<?xml version="1.0" encoding="utf-8"?>
<svg xmlns="http://www.w3.org/2000/svg" viewBox="0 0 20 20">
    <title>admin</title>
    <path d="M5.6,9.1l-.4-.2L.9,4.6h0A1.6,1.6,0,0,1,2,1.9H2a1.6,1.6,0,0,1,1.1.5L7.4,6.7a.6.6,0,0,1,0,.8L6,8.9ZM1.7,3.8,5.6,7.6l.5-.5L2.2,3.2a.4.4,0,0,0-.5,0,.4.4,0,0,0,0,.5Z"/>
    <path d="M4.9,9.7l-.4-.2a.6.6,0,0,1,0-.8L7.2,6a.6.6,0,0,1,.8.8L5.3,9.6Z"/>
    <rect x="7" y="7.2" width="1.2" height="3.97" transform="translate(-4.2 8.1) rotate(-45)"/>
    <rect x="11.5" y="11.8" width="1.2" height="3.61" transform="translate(-6.1 12.5) rotate(-45)"/>
    <rect x="13.8" y="14.6" width="1.4" height="2.76" transform="translate(-7.1 15) rotate(-45)"/>
    <path d="M15,18.1l-.4-.2-2-2a.6.6,0,0,1,0-.8l1-1a.6.6,0,0,1,.8,0l2,2a.6.6,0,0,1,0,.8l-1,1Zm-1.1-2.6L15,16.6h.1L14,15.4Z"/>
    <path d="M5.5,17.9a1.9,1.9,0,0,1-1.3-3.2l6.1-6.1a4.8,4.8,0,0,1,1.1-5.2A4.9,4.9,0,0,1,17,2.4a.6.6,0,0,1,.2.9l-1.7,2v1h.7l2-2,.5-.2a.6.6,0,0,1,.4.3,4.8,4.8,0,0,1-.9,5.6h0A4.8,4.8,0,0,1,13,11.2L6.9,17.3A1.9,1.9,0,0,1,5.5,17.9ZM14.8,3.1a3.7,3.7,0,0,0-2.6,1.1,3.6,3.6,0,0,0-.7,4.2.6.6,0,0,1-.1.7L5,15.5a.7.7,0,0,0-.2.5.7.7,0,0,0,.2.5.7.7,0,0,0,1,0l6.4-6.4a.6.6,0,0,1,.7-.1,3.6,3.6,0,0,0,5.2-4.1L16.8,7.4l-.4.2H14.9a.6.6,0,0,1-.6-.6V5.1a.6.6,0,0,1,.1-.4l1.3-1.5Z"/>
</svg>
