<?xml version="1.0" encoding="utf-8"?>
<svg xmlns="http://www.w3.org/2000/svg" viewBox="0 0 20 20">
    <title>announce</title>
    <path d="M10.4,12.3a.6.6,0,0,1-.6-.6V7.8a.6.6,0,0,1,1.2,0v3.9A.6.6,0,0,1,10.4,12.3Z"/>
    <path d="M16.4,17.8a.6.6,0,0,1-.6-.6V2.3a.6.6,0,0,1,1.2,0V17.2A.6.6,0,0,1,16.4,17.8Z"/>
    <path d="M19,17h-.2L.8,11.5a.6.6,0,0,1-.4-.6V8.5A.6.6,0,0,1,.8,8l18-5.5h.5a.6.6,0,0,1,.2.5V16.4a.6.6,0,0,1-.2.5ZM1.6,10.5l16.8,5.1V3.9L1.6,9Z"/>
    <path d="M9.4,18.3a3.3,3.3,0,0,1-3.5-3.4v-2a.6.6,0,0,1,1.2,0v2a2.1,2.1,0,0,0,2.3,2.2,1.9,1.9,0,0,0,2.1-2.2v-.3a.6.6,0,0,1,1.2,0v.3A3.1,3.1,0,0,1,9.4,18.3Z"/>
</svg>
