<?xml version="1.0" encoding="utf-8"?>
<svg xmlns="http://www.w3.org/2000/svg" viewBox="0 0 20 20">
    <title>attach</title>
    <path d="M4.1,18.7a3.7,3.7,0,0,1-2.6-6.4L11,2.8a5.1,5.1,0,0,1,7.2,0,4.8,4.8,0,0,1,1.5,3.4,4.8,4.8,0,0,1-1.5,3.4l-6.8,6.8a.6.6,0,0,1-.8-.8l6.8-6.8a3.6,3.6,0,0,0,1.1-2.6,3.6,3.6,0,0,0-1.1-2.6,3.9,3.9,0,0,0-5.5,0L2.4,13.1a2.5,2.5,0,0,0-.8,1.8,2.5,2.5,0,0,0,4.3,1.8l9.2-9.2a.9.9,0,0,0,0-1.4,1,1,0,0,0-1.4,0L7.1,12.8a.6.6,0,0,1-.8-.8l6.6-6.6a2.2,2.2,0,0,1,3.1,0,2.1,2.1,0,0,1,0,3.1L6.8,17.5A3.7,3.7,0,0,1,4.1,18.7Z"/>
</svg>
