<?xml version="1.0" encoding="utf-8"?>
<svg xmlns="http://www.w3.org/2000/svg" viewBox="0 0 20 20">
    <title>backup</title>
    <rect x="7.6" y="9.3" width="4.8" height="3.43"/>
    <path d="M3.9,12.2l-.4-.2L1.2,9.8A.6.6,0,0,1,2,9l1.7,1.7L4.8,8.6a.6.6,0,1,1,1,.5L4.4,11.9l-.4.3Z"/>
    <path d="M14.6,12.4h-.3a.6.6,0,0,1-.2-.8l1.6-2.8.4-.3.5.2L18.8,11a.6.6,0,1,1-.8.8L16.3,10l-1.2,2.1A.6.6,0,0,1,14.6,12.4Z"/>
    <path d="M10,18a7,7,0,0,1-4.9-2,.6.6,0,1,1,.8-.8,5.9,5.9,0,0,0,5.5,1.5,6,6,0,0,0,4.5-6.7A.6.6,0,1,1,17,9.7a7.1,7.1,0,0,1-5.4,8.1Z"/>
    <path d="M3.6,11.5a.6.6,0,0,1-.6-.4,7,7,0,0,1,.8-5.5A7.4,7.4,0,0,1,8.4,2.2a7,7,0,0,1,6.9,2.2.6.6,0,1,1-.9.8A5.9,5.9,0,0,0,8.7,3.3,6.3,6.3,0,0,0,4.8,6.2a5.9,5.9,0,0,0-.7,4.6.6.6,0,0,1-.4.7Z"/>
    <path d="M11.7,9.8H8.3a.5.5,0,0,1-.5-.5v-1a2.2,2.2,0,0,1,4.3,0v1A.5.5,0,0,1,11.7,9.8Zm-3-.9h2.5V8.3a1.3,1.3,0,0,0-2.5,0Z"/>
    <path d="M10,11.8a.5.5,0,0,1-.5-.5v-.7a.5.5,0,0,1,.9,0v.7A.5.5,0,0,1,10,11.8Z"/>
</svg>
