<?xml version="1.0" encoding="utf-8"?>
<svg xmlns="http://www.w3.org/2000/svg" viewBox="0 0 24 22">
<title>broadcast</title>
<g>
	<g transform="translate(-326.000000, -113.000000)">
		<g transform="translate(310.000000, 94.000000)">
			<g transform="translate(16.000000, 19.000000)">
				<path d="M12.5,13.9c-0.4,0-0.7-0.3-0.7-0.7V8.3c0-0.4,0.3-0.7,0.7-0.7c0.4,0,0.7,0.3,0.7,0.7v4.9
					C13.3,13.6,13,13.9,12.5,13.9"/>
				<g transform="translate(18.666667, 0.130002)">
					<g>
					</g>
					<defs>
						<filter filterUnits="userSpaceOnUse" x="0.6" y="0.6">
							<feColorMatrix  type="matrix" values="1 0 0 0 0  0 1 0 0 0  0 0 1 0 0  0 0 0 1 0"/>
						</filter>
					</defs>
					<mask maskUnits="userSpaceOnUse" x="0.6" y="0.6">
						<g>
							<polygon points="0.6,0.6 2.1,0.6 2.1,20.6 0.6,20.6"/>
						</g>
					</mask>
					<path d="M1.4,20.6c-0.4,0-0.7-0.3-0.7-0.7V1.3c0-0.4,0.3-0.7,0.7-0.7s0.7,0.3,0.7,0.7v18.6
						C2.1,20.3,1.8,20.6,1.4,20.6"/>
				</g>
				<g transform="translate(0.000000, 1.462182)">
					<g>
					</g>
					<defs>
						<filter filterUnits="userSpaceOnUse" x="0" y="0.2">
							<feColorMatrix  type="matrix" values="1 0 0 0 0  0 1 0 0 0  0 0 1 0 0  0 0 0 1 0"/>
						</filter>
					</defs>
					<mask maskUnits="userSpaceOnUse" x="0" y="0.2">
						<g>
							<polygon points="0,0.2 24,0.2 24,18.3 0,18.3"/>
						</g>
					</mask>
					<path d="M1.5,10.2l21,6.4V2l-21,6.4V10.2z M23.2,18.3c-0.1,0-0.1,0-0.2,0L0.5,11.4
						C0.2,11.3,0,11.1,0,10.7V7.8c0-0.3,0.2-0.6,0.5-0.7L23,0.2c0.2-0.1,0.5,0,0.7,0.1C23.9,0.5,24,0.7,24,0.9v16.6
						c0,0.2-0.1,0.5-0.3,0.6C23.6,18.3,23.4,18.3,23.2,18.3z"/>
				</g>
				<path d="M11.2,21.4c-2.1,0-4.4-1.3-4.4-4.2v-2.5c0-0.4,0.3-0.7,0.8-0.7c0.4,0,0.7,0.3,0.7,0.7v2.5
					c0,2,1.6,2.7,2.9,2.7c1.6,0,2.6-1,2.6-2.7v-0.4c0-0.4,0.3-0.7,0.7-0.7c0.4,0,0.8,0.3,0.8,0.7v0.4C15.3,19.8,13.7,21.4,11.2,21.4
					"/>
			</g>
		</g>
	</g>
</g>
</svg>