<?xml version="1.0" encoding="UTF-8"?>
<svg width="16px" height="15px" viewBox="0 0 16 15" version="1.1" xmlns="http://www.w3.org/2000/svg" xmlns:xlink="http://www.w3.org/1999/xlink">
    <!-- Generator: Sketch 50.2 (55047) - http://www.bohemiancoding.com/sketch -->
    <title>building/standard</title>
    <desc>Created with Sketch.</desc>
    <defs>
        <polygon id="path-1" points="0 0 15.2309333 0 15.2309333 14.8886222 0 14.8886222"></polygon>
    </defs>
    <g id="Icons" stroke="none" stroke-width="1" fill="none" fill-rule="evenodd">
        <g transform="translate(-255.000000, -1801.000000)" id="Objects">
            <g transform="translate(25.000000, 1496.000000)">
                <g id="Building" transform="translate(230.000000, 275.000000)">
                    <g id="building/standard" transform="translate(0.000000, 30.000000)">
                        <mask id="mask-2" fill="white">
                            <use xlink:href="#path-1"></use>
                        </mask>
                        <g id="Clip-2"></g>
                        <path d="M4.93688889,5.26577778 L6.94933333,5.26577778 L6.94933333,3.56444444 L4.93688889,3.56444444 L4.93688889,5.26577778 Z M8.28177778,5.26577778 L10.2951111,5.26577778 L10.2951111,3.56444444 L8.28177778,3.56444444 L8.28177778,5.26577778 Z M10.7742222,6.59911111 C11.2453333,6.59911111 11.6284444,6.216 11.6284444,5.74577778 L11.6284444,3.08444444 C11.6284444,2.61333333 11.2453333,2.23111111 10.7742222,2.23111111 L4.45688889,2.23111111 C3.98577778,2.23111111 3.60355556,2.61333333 3.60355556,3.08444444 L3.60355556,5.74577778 C3.60355556,6.216 3.98577778,6.59911111 4.45688889,6.59911111 L10.7742222,6.59911111 Z" id="Fill-1" fill="#626E70" mask="url(#mask-2)"></path>
                        <path d="M2.34026667,1.69662222 C2.34026667,1.40151111 2.5776,1.15795556 2.87804444,1.15795556 L12.3527111,1.15795556 C12.6540444,1.15795556 12.8904889,1.40151111 12.8904889,1.69662222 L12.8904889,13.5552889 L10.2451556,13.5552889 L10.2451556,9.0584 C10.2451556,8.58728889 9.86204444,8.20506667 9.39182222,8.20506667 L5.84071111,8.20506667 C5.36871111,8.20506667 4.98648889,8.58728889 4.98648889,9.0584 L4.98648889,13.5552889 L2.34026667,13.5552889 L2.34026667,1.69662222 Z M6.31982222,13.5552889 L8.91182222,13.5552889 L8.91182222,9.53751111 L6.31982222,9.53751111 L6.31982222,13.5552889 Z M14.5642667,13.5552889 L14.0496,13.5552889 L14.0496,1.69662222 C14.0496,0.764177778 13.2904889,-0.000266666667 12.3527111,-0.000266666667 L2.87804444,-0.000266666667 C1.94026667,-0.000266666667 1.18204444,0.764177778 1.18204444,1.69662222 L1.18204444,13.5552889 L0.666488889,13.5552889 C0.298488889,13.5552889 -0.000177777778,13.8539556 -0.000177777778,14.2219556 C-0.000177777778,14.5899556 0.298488889,14.8886222 0.666488889,14.8886222 L5.84071111,14.8886222 L9.39182222,14.8886222 L14.5642667,14.8886222 C14.9322667,14.8886222 15.2309333,14.5899556 15.2309333,14.2219556 C15.2309333,13.8539556 14.9322667,13.5552889 14.5642667,13.5552889 Z" id="Fill-3" fill="#626E70" mask="url(#mask-2)"></path>
                    </g>
                </g>
            </g>
        </g>
    </g>
</svg>