<?xml version="1.0" encoding="utf-8"?>
<svg xmlns="http://www.w3.org/2000/svg" viewBox="0 0 10.92 15.51">
  <g id="bulb-with-question-mark">
    <g id="bulb-with-question-mark:root">
      <g id="Header">
        <g id="Page-1">
          <g id="Group-3">
            <g class="cls-2">
              <path id="Fill-1" d="M2.31,11A3.55,3.55,0,0,0,1.5,8.76,5.52,5.52,0,0,1,0,5.08,4.32,4.32,0,0,1,1.5,1.81a6,6,0,0,1,6.27-1,4.78,4.78,0,0,1,3.15,4.46A3.94,3.94,0,0,1,9.44,8.51a2.18,2.18,0,0,0-.66.82A4.85,4.85,0,0,0,8.24,11H7.69a5.26,5.26,0,0,1,.59-1.91,2.79,2.79,0,0,1,.82-1,3.39,3.39,0,0,0,1.27-2.81,4.29,4.29,0,0,0-2.84-4,5.45,5.45,0,0,0-5.65.9A3.81,3.81,0,0,0,.55,5.08,5,5,0,0,0,1.88,8.37a4,4,0,0,1,1,2.65Z" transform="translate(0 -0.36)"/>
            </g>
          </g>
          <path id="Fill-4" d="M5.75,6.82a.53.53,0,0,1,.16.39.56.56,0,0,1-.16.4.57.57,0,0,1-.41.16.58.58,0,0,1-.4-.16.55.55,0,0,1-.15-.4.53.53,0,0,1,.15-.39.55.55,0,0,1,.4-.15.56.56,0,0,1,.41.15M4.41,3.63a1.49,1.49,0,0,1,1.1-.38,1.65,1.65,0,0,1,1,.29,1,1,0,0,1,.38.82.93.93,0,0,1-.16.56,2.83,2.83,0,0,1-.46.47,2.66,2.66,0,0,0-.38.4.6.6,0,0,0-.13.4H4.93A1.15,1.15,0,0,1,5,5.75a1.22,1.22,0,0,1,.18-.32,3.66,3.66,0,0,1,.28-.28,1.84,1.84,0,0,0,.28-.3.54.54,0,0,0,.09-.31c0-.26-.15-.39-.44-.39s-.5.19-.5.57H4a1.47,1.47,0,0,1,.41-1.08" transform="translate(0 -0.36)"/>
          <path id="Fill-6" d="M2.89,11.14a.34.34,0,1,0,0,.68H8a.34.34,0,1,0,0-.68ZM8,12.36H2.89a.88.88,0,1,1,0-1.75H8a.88.88,0,1,1,0,1.75Z" transform="translate(0 -0.36)"/>
          <path id="Fill-8" d="M2.89,12.36a.34.34,0,1,0,0,.68H8a.34.34,0,1,0,0-.68ZM8,13.58H2.89a.88.88,0,1,1,0-1.76H8a.88.88,0,1,1,0,1.76Z" transform="translate(0 -0.36)"/>
          <path id="Fill-10" d="M4.19,14.8a1.45,1.45,0,0,0,1.27.53,1.47,1.47,0,0,0,1.28-.53Zm1.27,1.06c-1,0-1.87-.54-1.87-1.24a.57.57,0,0,1,0-.13l0-.23H7.29l0,.23a.57.57,0,0,1,0,.13C7.33,15.32,6.51,15.86,5.46,15.86Z" transform="translate(0 -0.36)"/>
          <path id="Fill-12" d="M3.55,13.58a.34.34,0,1,0,0,.68H7.37a.34.34,0,1,0,0-.68ZM7.37,14.8H3.55a.88.88,0,1,1,0-1.76H7.37a.88.88,0,1,1,0,1.76Z" transform="translate(0 -0.36)"/>
        </g>
      </g>
    </g>
  </g>
</svg>
