<?xml version="1.0" encoding="utf-8"?>
<svg xmlns="http://www.w3.org/2000/svg" viewBox="0 0 20 20">
    <title>calendar</title>
    <path d="M18.5,19.1H1.5a.6.6,0,0,1-.6-.6V2.7a.6.6,0,0,1,.6-.6H4.4a.6.6,0,1,1,0,1.2H2.1V17.9H17.9V3.3H15.6a.6.6,0,1,1,0-1.2h2.9a.6.6,0,0,1,.6.6V18.5A.6.6,0,0,1,18.5,19.1Z"/>
    <path d="M6.8,5H4.4a.6.6,0,0,1-.6-.6V1.5A.6.6,0,0,1,4.4.9H6.8a.6.6,0,0,1,.6.6V4.4A.6.6,0,0,1,6.8,5ZM5,3.8H6.2V2.1H5Z"/>
    <path d="M15.6,5H13.2a.6.6,0,0,1-.6-.6V1.5a.6.6,0,0,1,.6-.6h2.3a.6.6,0,0,1,.6.6V4.4A.6.6,0,0,1,15.6,5ZM13.8,3.8H15V2.1H13.8Z"/>
    <path d="M13.2,3.3H6.8a.6.6,0,1,1,0-1.2h6.4a.6.6,0,1,1,0,1.2Z"/>
    <path d="M18.5,7.4H1.5a.6.6,0,1,1,0-1.2h17a.6.6,0,1,1,0,1.2Z"/>
    <path d="M6.2,16.8a.4.4,0,0,1-.4-.4V8.8a.4.4,0,1,1,.9,0v7.6A.4.4,0,0,1,6.2,16.8Z"/>
    <path d="M9.7,16.8a.4.4,0,0,1-.4-.4V8.8a.4.4,0,1,1,.9,0v7.6A.4.4,0,0,1,9.7,16.8Z"/>
    <path d="M13.3,16.8a.4.4,0,0,1-.4-.4V8.8a.4.4,0,0,1,.9,0v7.6A.4.4,0,0,1,13.3,16.8Z"/>
    <path d="M16,10.6H4a.4.4,0,0,1,0-.9H16a.4.4,0,0,1,0,.9Z"/>
    <path d="M16,13.1H4a.4.4,0,0,1,0-.9H16a.4.4,0,0,1,0,.9Z"/>
    <path d="M16,15.6H4a.4.4,0,0,1,0-.9H16a.4.4,0,0,1,0,.9Z"/>
</svg>
