<?xml version="1.0" encoding="utf-8"?>
<svg xmlns="http://www.w3.org/2000/svg" viewBox="0 0 20 20">
    <title>call-hangup</title>
    <path d="M15.1,13.9a2.5,2.5,0,0,1-2.5-2.4,36.3,36.3,0,0,0-5.2,0,2.5,2.5,0,0,1-.7,1.7,2.7,2.7,0,0,1-1.8.7H2.5A2.5,2.5,0,0,1,0,11.4V10.1A3.3,3.3,0,0,1,2.6,6.9a37.2,37.2,0,0,1,14.7,0A3.3,3.3,0,0,1,20,10.1v1.3a2.5,2.5,0,0,1-2.5,2.5ZM10,10.2h3.8v.9a1.4,1.4,0,0,0,1.4,1.4h2.3a1.4,1.4,0,0,0,1.4-1.4V10.1A2.2,2.2,0,0,0,17.1,8,36,36,0,0,0,2.9,8a2.2,2.2,0,0,0-1.1.6,2.1,2.1,0,0,0-.6,1.5v1.3a1.4,1.4,0,0,0,1.4,1.4H4.9a1.4,1.4,0,0,0,1-.4,1.4,1.4,0,0,0,.4-1v-.9H10Z"/>
</svg>
