<?xml version="1.0" encoding="utf-8"?>
<svg xmlns="http://www.w3.org/2000/svg" viewBox="0 0 20 20">
    <title>call-out</title>
    <path d="M14.7,18.9a3.5,3.5,0,0,1-1.9-.6A39.7,39.7,0,0,1,1.6,7.2a3.5,3.5,0,0,1,.4-4.4l1-1a2.7,2.7,0,0,1,3.8,0L8.6,3.6a2.7,2.7,0,0,1,.1,3.7,38.8,38.8,0,0,0,4,4,2.7,2.7,0,0,1,3.7.1l1.8,1.8a2.7,2.7,0,0,1,0,3.8l-1,1A3.5,3.5,0,0,1,14.7,18.9ZM5,2.2a1.5,1.5,0,0,0-1,.4l-1,1a2.3,2.3,0,0,0-.3,2.9A38.5,38.5,0,0,0,13.4,17.3a2.4,2.4,0,0,0,2.9-.3l1-1a1.5,1.5,0,0,0,0-2.1l-1.8-1.8a1.5,1.5,0,0,0-2.1,0l-.7.7-.4-.4A39.8,39.8,0,0,1,7.4,7.7l-.4-.4.7-.7a1.5,1.5,0,0,0,0-2.1L6,2.7A1.5,1.5,0,0,0,5,2.2Z"/>
    <path d="M17.4,7.3h0a.6.6,0,0,1-.6-.6l.2-4-3.8.4a.6.6,0,1,1-.1-1.2l5.2-.5L18,6.7A.6.6,0,0,1,17.4,7.3Z"/>
    <path d="M12.3,8l-.4-.2a.6.6,0,0,1,0-.8L16.8,2a.6.6,0,0,1,.8.8L12.7,7.8Z"/>
</svg>
