<?xml version="1.0" encoding="utf-8"?>
<svg xmlns="http://www.w3.org/2000/svg" viewBox="0 0 20 20">
    <title>call-active</title>
    <path d="M13,19.5a3.2,3.2,0,0,1-1.8-.5A36.3,36.3,0,0,1,1,8.8a3.2,3.2,0,0,1,.4-4l.9-.9a2.5,2.5,0,0,1,3.5,0L7.4,5.5a2.5,2.5,0,0,1,.1,3.4,35.4,35.4,0,0,0,3.6,3.6,2.5,2.5,0,0,1,3.4.1l1.6,1.6a2.5,2.5,0,0,1,0,3.5l-.9.9A3.2,3.2,0,0,1,13,19.5ZM4.1,4.3a1.3,1.3,0,0,0-1,.4l-.9.9a2.1,2.1,0,0,0-.3,2.7,35.2,35.2,0,0,0,9.9,9.9,2.2,2.2,0,0,0,2.7-.3l.9-.9a1.4,1.4,0,0,0,0-1.9l-1.6-1.6a1.4,1.4,0,0,0-1.9,0l-.6.6-.4-.3A36.4,36.4,0,0,1,6.3,9.2L6,8.8l.6-.6a1.4,1.4,0,0,0,0-1.9L5,4.7A1.3,1.3,0,0,0,4.1,4.3Z"/>
    <path d="M10.2.7a.4.4,0,1,0,0,.8,8.4,8.4,0,0,1,8.4,8.4.4.4,0,1,0,.8,0A9.1,9.1,0,0,0,10.2.7Z"/>
    <path d="M18.9,10.4a.6.6,0,0,1-.6-.6,8.2,8.2,0,0,0-8.2-8.2.6.6,0,0,1,0-1.1,9.3,9.3,0,0,1,9.3,9.3A.6.6,0,0,1,18.9,10.4ZM10.2.9a.2.2,0,0,0,0,.4,8.6,8.6,0,0,1,8.6,8.6.2.2,0,1,0,.4,0A9,9,0,0,0,10.2.9Z"/>
    <path d="M10.2,4.5a5.3,5.3,0,0,1,5.3,5.3.4.4,0,0,0,.8,0,6.1,6.1,0,0,0-6.1-6.1.4.4,0,0,0,0,.8Z"/>
    <path d="M15.9,10.4a.6.6,0,0,1-.6-.6,5.2,5.2,0,0,0-5.1-5.1.6.6,0,0,1,0-1.1,6.3,6.3,0,0,1,6.3,6.3A.6.6,0,0,1,15.9,10.4ZM10.2,3.9a.2.2,0,0,0,0,.4,5.5,5.5,0,0,1,5.5,5.5.2.2,0,1,0,.4,0A5.9,5.9,0,0,0,10.2,3.9Z"/>
    <path d="M10.2,7.5a2.3,2.3,0,0,1,2.3,2.3.4.4,0,1,0,.8,0,3,3,0,0,0-3-3,.4.4,0,0,0,0,.8Z"/>
    <path d="M12.8,10.4a.6.6,0,0,1-.6-.6,2.1,2.1,0,0,0-2.1-2.1.6.6,0,0,1,0-1.1,3.2,3.2,0,0,1,3.2,3.2A.6.6,0,0,1,12.8,10.4ZM10.2,7a.2.2,0,0,0,0,.4,2.5,2.5,0,0,1,2.5,2.5.2.2,0,1,0,.4,0A2.9,2.9,0,0,0,10.2,7Z"/>
</svg>
