<?xml version="1.0" encoding="utf-8"?>
<svg xmlns="http://www.w3.org/2000/svg" viewBox="0 0 20 20">
    <title>call-hold</title>
    <rect x="13.5" y="0.5" width="1.6" height="6.46" rx="0.8" ry="0.8"/>
    <rect x="16.9" y="0.5" width="1.6" height="6.46" rx="0.8" ry="0.8"/>
    <path d="M14.7,19.5a3.5,3.5,0,0,1-1.9-.6A39.7,39.7,0,0,1,1.6,7.7a3.5,3.5,0,0,1,.4-4.4l1-1a2.7,2.7,0,0,1,3.8,0L8.6,4.1a2.7,2.7,0,0,1,.1,3.7,38.8,38.8,0,0,0,4,4,2.7,2.7,0,0,1,3.7.1l1.8,1.8a2.7,2.7,0,0,1,0,3.8l-1,1A3.5,3.5,0,0,1,14.7,19.5ZM5,2.8a1.5,1.5,0,0,0-1,.4l-1,1a2.3,2.3,0,0,0-.3,2.9A38.5,38.5,0,0,0,13.4,17.9a2.4,2.4,0,0,0,2.9-.3l1-1a1.5,1.5,0,0,0,0-2.1l-1.8-1.8a1.5,1.5,0,0,0-2.1,0l-.7.7-.4-.4A39.8,39.8,0,0,1,7.4,8.2l-.4-.4.7-.7A1.5,1.5,0,0,0,7.8,5L6,3.2A1.5,1.5,0,0,0,5,2.8Z"/>
</svg>
