<?xml version="1.0" encoding="utf-8"?>
<svg xmlns="http://www.w3.org/2000/svg" viewBox="0 0 20 20">
    <title>change</title>
    <path d="M17.4,5.2H2.6A.6.6,0,0,1,2.6,4H17.4a.6.6,0,0,1,0,1.2Z"/>
    <path d="M17.4,15.8H2.6a.6.6,0,0,1,0-1.2H17.4a.6.6,0,0,1,0,1.2Z"/>
    <path d="M6.9,9.6l-.4-.2L2.2,5.1a.6.6,0,0,1,0-.8L6.4.1a.6.6,0,0,1,.8.9L3.4,4.6l3.8,4a.6.6,0,0,1,0,.8Z"/>
    <path d="M13.1,20.1l-.4-.2a.6.6,0,0,1,0-.8l3.8-3.9-3.8-3.8a.6.6,0,0,1,.8-.9l4.3,4.2a.6.6,0,0,1,0,.8l-4.3,4.3Z"/>
</svg>
