<svg xmlns="http://www.w3.org/2000/svg" viewBox="0 0 17.43 11.85">
    <title>chat-contact</title>
    <g>
        <g>
            <path d="M4.94,1.36c1.25,0,2.27,1.3,2.27,2.89a3.09,3.09,0,0,1-1.14,2.5h0V8L8.4,9a1.47,1.47,0,0,1,.92,1.37v.77H.69v-.77A1.46,1.46,0,0,1,1.59,9l2.33-.92V6.85h0a3,3,0,0,1-1.25-2.6c0-1.6,1-2.89,2.27-2.89m0-.73C3.31.63,2,2.26,2,4.25a3.89,3.89,0,0,0,1.25,3v.34l-1.89.74a2.19,2.19,0,0,0-1.36,2v.77a.71.71,0,0,0,.69.73H9.32a.71.71,0,0,0,.69-.73h0v-.77A2.2,2.2,0,0,0,8.63,8.29L6.77,7.55V7.09A3.93,3.93,0,0,0,7.89,4.25c0-2-1.33-3.63-3-3.63Z"/>
            <path d="M17,3.35A3.11,3.11,0,0,1,12.58,6l-1.82.77L11.5,5.3a2.49,2.49,0,0,1-.92-2A3.13,3.13,0,0,1,13.79.43,3.13,3.13,0,0,1,17,3.35Z" fill="none" stroke="#000" stroke-linejoin="round" stroke-width="0.8500000238418579px" />
        </g>
    </g>
</svg>
