<?xml version="1.0" encoding="UTF-8"?>
<svg width="15px" height="15px" viewBox="0 0 15 15" version="1.1" xmlns="http://www.w3.org/2000/svg" xmlns:xlink="http://www.w3.org/1999/xlink">
    <!-- Generator: Sketch 50.2 (55047) - http://www.bohemiancoding.com/sketch -->
    <title>chat/standard</title>
    <desc>Created with Sketch.</desc>
    <defs>
        <polygon id="path-1" points="0 0.231430341 10.7653152 0.231430341 10.7653152 10.1017759 0 10.1017759"></polygon>
        <polygon id="path-3" points="0.495356037 0.22596161 9.51083591 0.22596161 9.51083591 8.71826625 0.495356037 8.71826625"></polygon>
    </defs>
    <g id="Icons" stroke="none" stroke-width="1" fill="none" fill-rule="evenodd">
        <g transform="translate(-25.000000, -1873.000000)" id="Objects">
            <g transform="translate(25.000000, 1496.000000)">
                <g id="Chat" transform="translate(0.000000, 346.000000)">
                    <g id="chat/standard" transform="translate(0.000000, 31.000000)">
                        <g id="Group-3" transform="translate(0.000000, 0.561060)">
                            <mask id="mask-2" fill="white">
                                <use xlink:href="#path-1"></use>
                            </mask>
                            <g id="Clip-2"></g>
                            <path d="M0.655296594,10.1017759 C0.534826006,10.1017759 0.417525697,10.0502588 0.335098452,9.95594303 C0.218590712,9.82120619 0.197983901,9.6278192 0.285166563,9.47247554 L1.27508607,7.68998638 C0.450021053,6.90930526 -0.000158513932,5.8607356 -0.000158513932,4.70120619 C-0.000158513932,2.23631455 2.41480124,0.231113313 5.38297461,0.231113313 C8.35114799,0.231113313 10.7653152,2.23631455 10.7653152,4.70120619 L9.9180582,4.70120619 C9.9180582,2.70393065 7.88353189,1.07916285 5.38297461,1.07916285 C2.88241734,1.07916285 0.847891022,2.70393065 0.847891022,4.70120619 C0.847891022,5.73471703 1.27270836,6.62160248 2.07637399,7.26516904 C2.2380582,7.39435789 2.28323467,7.62103282 2.18257833,7.8017387 L1.5929065,8.86378204 L3.51092508,8.12589969 C3.59890031,8.0918192 3.69559381,8.08864892 3.78673932,8.11559628 C3.99280743,8.17900186 4.37720372,8.29630217 4.64588483,8.33276037 L4.53096223,9.17288421 C4.26545139,9.13642601 3.96031207,9.05320619 3.67894985,8.96919381 L0.807469969,10.0732433 C0.75753808,10.0930576 0.706021053,10.1017759 0.655296594,10.1017759" id="Fill-1" fill="#626E70" mask="url(#mask-2)"></path>
                        </g>
                        <g id="Group-6" transform="translate(4.755418, 6.109048)">
                            <mask id="mask-4" fill="white">
                                <use xlink:href="#path-3"></use>
                            </mask>
                            <g id="Clip-5"></g>
                            <path d="M6.54186997,6.94536718 C6.59576471,6.94536718 6.64886687,6.95567059 6.69959133,6.97548483 L7.95739938,7.47876656 L7.54367802,6.67827121 C7.45094737,6.49915046 7.49770898,6.2788161 7.65543034,6.15279752 C8.32435913,5.617813 8.66278638,4.94412879 8.66278638,4.14997399 C8.66278638,2.51093994 6.95321362,1.07321858 5.00349226,1.07321858 C3.05297833,1.07321858 1.342613,2.51093994 1.342613,4.14997399 C1.342613,5.13434551 1.89820433,6.08384396 2.82868111,6.68857461 C3.89785759,7.38286563 5.22144892,7.49224025 6.36988235,6.98182539 C6.42456966,6.95725573 6.48321981,6.94536718 6.54186997,6.94536718 M8.8553808,8.71834551 C8.80307121,8.71834551 8.74917647,8.70804211 8.69845201,8.68822786 L6.54583282,7.82670464 C5.17389474,8.37199257 3.62521362,8.21664892 2.366613,7.39871703 C1.19519505,6.63705759 0.495356037,5.42284087 0.495356037,4.14997399 C0.495356037,2.02271703 2.56,0.22596161 5.00349226,0.22596161 C7.44619195,0.22596161 9.51083591,2.02271703 9.51083591,4.14997399 C9.51083591,5.08679133 9.1454613,5.92215975 8.44879257,6.58474799 L9.23185139,8.10014118 C9.31348607,8.25706997 9.28812384,8.44807926 9.16923839,8.57964582 C9.08760372,8.66999876 8.97268111,8.71834551 8.8553808,8.71834551" id="Fill-4" fill="#626E70" mask="url(#mask-4)"></path>
                        </g>
                    </g>
                </g>
            </g>
        </g>
    </g>
</svg>