<?xml version="1.0" encoding="utf-8"?>
<svg xmlns="http://www.w3.org/2000/svg" viewBox="0 0 20 20">
    <title>chat-end</title>
    <path d="M3.1,16.5l-.6-.3a.7.7,0,0,1-.1-.8l1.3-2.3A5.6,5.6,0,0,1,2.1,9c0-3.4,3.3-6.2,7.4-6.2S16.8,5.6,16.8,9H15.4c0-2.6-2.7-4.7-5.9-4.7S3.5,6.4,3.5,9a4.1,4.1,0,0,0,1.6,3.3.7.7,0,0,1,.2.9l-.6,1,2.2-.8h.5l1.1.3-.2,1.4-1.1-.3L3.4,16.4Z" />
    <polyline points="17.1 12.5 14.5 15.1 17.1 17.6 15.8 18.9 13.3 16.3 10.7 18.9 9.4 17.6 12 15.1 9.4 12.5 10.7 11.3 13.3 13.8 15.8 11.3"/>
</svg>
