<?xml version="1.0" encoding="UTF-8"?>
<svg width="18px" height="17px" viewBox="0 0 18 17" version="1.1" xmlns="http://www.w3.org/2000/svg" xmlns:xlink="http://www.w3.org/1999/xlink">
    <!-- Generator: Sketch 50.2 (55047) - http://www.bohemiancoding.com/sketch -->
    <title>chat/headphones/standard</title>
    <desc>Created with Sketch.</desc>
    <defs>
        <polygon id="path-1" points="0 0.4384 1.6288 0.4384 1.6288 3.1544 0 3.1544"></polygon>
        <polygon id="path-3" points="0.5115 0.05 11.3935 0.05 11.3935 5.5379 0.5115 5.5379"></polygon>
    </defs>
    <g id="Icons" stroke="none" stroke-width="1" fill="none" fill-rule="evenodd">
        <g transform="translate(-49.000000, -1873.000000)" id="Objects">
            <g transform="translate(25.000000, 1496.000000)">
                <g id="Chat" transform="translate(0.000000, 346.000000)">
                    <g id="chat/headphones/standard" transform="translate(24.000000, 30.000000)">
                        <path d="M13.207,16.9232 L11.837,16.9232 L11.837,15.7232 L13.207,15.7232 C14.197,15.7232 15.003,14.9172 15.003,13.9262 L15.003,12.9432 L16.203,12.9432 L16.203,13.9262 C16.203,15.5792 14.859,16.9232 13.207,16.9232" id="Fill-1" fill="#626E70"></path>
                        <path d="M10.8095,15.8958 C10.5745,15.8958 10.3825,16.0878 10.3825,16.3228 C10.3825,16.5588 10.5745,16.7498 10.8095,16.7498 C11.0455,16.7498 11.2375,16.5588 11.2375,16.3228 C11.2375,16.0878 11.0455,15.8958 10.8095,15.8958 M10.8095,17.9498 C9.9135,17.9498 9.1825,17.2198 9.1825,16.3228 C9.1825,15.4258 9.9135,14.6958 10.8095,14.6958 C11.7065,14.6958 12.4375,15.4258 12.4375,16.3228 C12.4375,17.2198 11.7065,17.9498 10.8095,17.9498" id="Fill-3" fill="#626E70"></path>
                        <path d="M16.371,11.1046 C17.457,11.1046 18,10.5026 18,9.7466 C18,8.9906 17.457,8.3886 16.371,8.3886" id="Fill-5" fill="#626E70"></path>
                        <g id="Group-9" transform="translate(0.000000, 7.950200)">
                            <mask id="mask-2" fill="white">
                                <use xlink:href="#path-1"></use>
                            </mask>
                            <g id="Clip-8"></g>
                            <path d="M1.6288,3.1544 C0.5428,3.1544 -0.0002,2.5524 -0.0002,1.7964 C-0.0002,1.0404 0.5428,0.4384 1.6288,0.4384" id="Fill-7" fill="#626E70" mask="url(#mask-2)"></path>
                        </g>
                        <path d="M14.2558,12.4053 L15.0128,12.4053 C15.7708,12.4053 15.7708,12.1813 15.7708,11.8723 L15.7708,7.7633 C15.7708,7.3723 15.4518,7.0883 15.0128,7.0883 L14.2558,7.0883 L14.2558,12.4053 Z M15.0128,13.6053 L13.6548,13.6053 C13.3238,13.6053 13.0558,13.3363 13.0558,13.0053 L13.0558,6.4883 C13.0558,6.1563 13.3238,5.8883 13.6548,5.8883 L15.0128,5.8883 C16.1098,5.8883 16.9708,6.7113 16.9708,7.7633 L16.9708,11.8723 C16.9708,12.5193 16.7168,13.6053 15.0128,13.6053 Z" id="Fill-10" fill="#626E70"></path>
                        <path d="M2.9872,7.0882 C2.5482,7.0882 2.2292,7.3722 2.2292,7.7632 L2.2292,11.8722 C2.2292,12.1822 2.2292,12.4052 2.9872,12.4052 L3.7452,12.4052 L3.7452,7.0882 L2.9872,7.0882 Z M4.3442,13.6052 L2.9872,13.6052 C1.2842,13.6052 1.0292,12.5192 1.0292,11.8722 L1.0292,7.7632 C1.0292,6.7122 1.8892,5.8882 2.9872,5.8882 L4.3442,5.8882 C4.6752,5.8882 4.9452,6.1572 4.9452,6.4882 L4.9452,13.0052 C4.9452,13.3372 4.6752,13.6052 4.3442,13.6052 Z" id="Fill-12" fill="#626E70"></path>
                        <g id="Group-16" transform="translate(3.000000, 0.950200)">
                            <mask id="mask-4" fill="white">
                                <use xlink:href="#path-3"></use>
                            </mask>
                            <g id="Clip-15"></g>
                            <path d="M11.3935,5.5379 L10.1935,5.5379 C10.1935,3.2139 8.2735,1.2499 5.9995,1.2499 C3.6755,1.2499 1.7115,3.2139 1.7115,5.5379 L0.5115,5.5379 C0.5115,2.5629 3.0255,0.0499 5.9995,0.0499 C8.9735,0.0499 11.3935,2.5119 11.3935,5.5379" id="Fill-14" fill="#626E70" mask="url(#mask-4)"></path>
                        </g>
                    </g>
                </g>
            </g>
        </g>
    </g>
</svg>