<?xml version="1.0" encoding="utf-8"?>
<svg xmlns="http://www.w3.org/2000/svg" viewBox="0 0 20 20">
    <title>chat</title>
    <path d="M.9,14l-.4-.2a.6.6,0,0,1-.1-.7l1.4-2.5A5.7,5.7,0,0,1,0,6.4C0,3,3.4.2,7.5.2S15.1,3,15.1,6.4H13.9c0-2.8-2.9-5.1-6.4-5.1S1.2,3.6,1.2,6.4A4.5,4.5,0,0,0,2.9,10a.6.6,0,0,1,.1.8l-.8,1.5,2.7-1h.4l1.2.3-.2,1.2-1.2-.3L1.1,14Z"/>
    <path d="M19.1,19.8h-.2l-3-1.2A6.4,6.4,0,0,1,10,18a5.5,5.5,0,0,1-2.6-4.6c0-3,2.9-5.5,6.3-5.5S20,10.5,20,13.4a4.6,4.6,0,0,1-1.5,3.4L19.6,19a.6.6,0,0,1-.1.7Zm-3.2-2.5h.2l1.8.7L17.2,17a.6.6,0,0,1,.2-.7,3.5,3.5,0,0,0,1.4-2.8c0-2.3-2.4-4.3-5.1-4.3s-5.1,2-5.1,4.3A4.3,4.3,0,0,0,10.6,17a5.2,5.2,0,0,0,5,.4Z"/>
</svg>
