<?xml version="1.0" encoding="UTF-8"?>
<svg width="15px" height="11px" viewBox="0 0 15 11" version="1.1" xmlns="http://www.w3.org/2000/svg" xmlns:xlink="http://www.w3.org/1999/xlink">
    <!-- Generator: Sketch 50.2 (55047) - http://www.bohemiancoding.com/sketch -->
    <title>cloud_backup/standard</title>
    <desc>Created with Sketch.</desc>
    <defs>
        <polygon id="path-1" points="0.728003761 0.339692308 5.46001238 0.339692308 5.46001238 3.20484534 0.728003761 3.20484534"></polygon>
        <polygon id="path-3" points="0.783512007 0.276806478 13.0186072 0.276806478 13.0186072 9.32793522 0.783512007 9.32793522"></polygon>
    </defs>
    <g id="Icons" stroke="none" stroke-width="1" fill="none" fill-rule="evenodd">
        <g transform="translate(-1199.000000, -1802.000000)" id="Objects">
            <g transform="translate(25.000000, 1496.000000)">
                <g id="Backup" transform="translate(1150.000000, 275.000000)">
                    <g id="cloud_backup/standard" transform="translate(24.000000, 31.000000)">
                        <path d="M8.86925077,8.43229798 C8.79157895,8.43229798 8.71390712,8.41364211 8.64178328,8.37555304 C8.41114551,8.25195789 8.32554799,7.9682332 8.45235913,7.7428081 L9.31863777,6.18426559 L7.80165944,6.3265166 C7.54011146,6.34828178 7.30788854,6.1625004 7.28331889,5.90598219 C7.25874923,5.64946397 7.45055108,5.42170688 7.7113065,5.39760972 L10.1199257,5.17218462 C10.2974613,5.15741538 10.4662786,5.23592551 10.5629721,5.37973117 C10.6596656,5.52431417 10.6675913,5.70854089 10.5827864,5.86011984 L9.28614241,8.18899433 C9.20054489,8.34445992 9.03727554,8.43229798 8.86925077,8.43229798" id="Fill-1" fill="#626E70"></path>
                        <path d="M2.3290452,10.4511741 C1.98110712,10.4511741 1.63475418,10.3897652 1.28760867,10.2537328 C0.28500805,9.86195951 -0.192118885,8.94782186 0.0718068111,7.9248583 C0.318295975,6.96874494 1.22816594,6.02740081 2.42890898,6.16498785 C2.6896644,6.19452632 2.87591827,6.42694737 2.84580062,6.68268826 C2.8148904,6.93842915 2.57791207,7.11876923 2.31794923,7.09156275 C1.67913808,7.01849393 1.14336099,7.5742834 0.993565325,8.15339271 C0.925404334,8.42157085 0.849317647,9.07841296 1.6395096,9.38778947 C2.87274799,9.86895547 4.28431455,8.92450202 6.23720619,7.61781377 C7.24693994,6.94309312 8.39141053,6.1774251 9.72926811,5.46617004 C9.95990588,5.34335223 10.2484012,5.42730364 10.3736272,5.65350607 C10.4988533,5.8797085 10.4132557,6.1634332 10.182618,6.28625101 C8.88676656,6.97496356 7.76369536,7.72586235 6.77298328,8.38892308 C5.09035789,9.5137166 3.68909474,10.4511741 2.3290452,10.4511741" id="Fill-3" fill="#626E70"></path>
                        <g id="Group-7" transform="translate(9.510836, 0.437869)">
                            <mask id="mask-2" fill="white">
                                <use xlink:href="#path-1"></use>
                            </mask>
                            <g id="Clip-6"></g>
                            <path d="M4.55267864,3.20484534 C4.43775604,3.20484534 4.32283344,3.16442429 4.23168793,3.08202753 C4.03830093,2.90712874 4.02561981,2.61252146 4.20315542,2.42285344 C4.51622043,2.08860243 4.60102539,1.66962267 4.39892012,1.44886154 C4.16511207,1.19234332 3.25524211,1.04309636 1.48384892,2.3132502 C1.27144025,2.46560648 0.974226625,2.41974413 0.819675542,2.21142024 C0.665124458,2.00387368 0.710300929,1.71159838 0.922709598,1.56001943 C3.64597895,-0.39262834 4.8150192,0.505185425 5.1074774,0.82699919 C5.6456322,1.41699109 5.56003467,2.35367126 4.90299443,3.05404372 C4.80947121,3.15431903 4.68107492,3.20484534 4.55267864,3.20484534" id="Fill-5" fill="#626E70" mask="url(#mask-2)"></path>
                        </g>
                        <g id="Group-10" transform="translate(1.585139, 1.215197)">
                            <mask id="mask-4" fill="white">
                                <use xlink:href="#path-3"></use>
                            </mask>
                            <g id="Clip-9"></g>
                            <path d="M8.63940557,9.32801296 C7.36416099,9.32801296 5.96210526,9.24250688 5.87333746,9.23706559 C5.6109969,9.2207417 5.41206192,8.99920324 5.42791331,8.74268502 C5.44534985,8.48538947 5.67043963,8.29261215 5.93278019,8.30660405 C6.83155418,8.36179433 9.34637771,8.47139757 10.1754056,8.3136 C10.8102539,8.19311417 11.3476161,7.82621538 11.6884211,7.27975385 C12.080743,6.64934089 12.1742663,5.84091984 11.9444211,5.06048259 C11.5845944,3.84163239 10.9283467,3.20888745 9.87898452,3.07052308 L9.62377709,3.03709798 L9.51360991,2.80856356 C9.04440867,1.83690364 8.03546749,1.2096 6.94409907,1.2096 C5.44217957,1.2096 4.19705263,2.3616 4.10749226,3.83230445 L4.05914551,4.63994818 L3.37119505,4.19453927 C3.04227864,3.98155142 2.44151084,4.11602915 2.05711455,4.4875919 C1.83360991,4.7044664 1.52213003,5.16386721 1.94298452,5.80438543 C2.08485449,6.02125992 2.02065635,6.30964858 1.80032198,6.44956761 C1.57998762,6.58870931 1.28594427,6.52652308 1.14328173,6.30964858 C0.586897833,5.46313846 0.681213622,4.51013441 1.38897833,3.82453117 C1.90969659,3.31926802 2.62142415,3.08917895 3.2443839,3.17779433 C3.62798762,1.50964858 5.14892879,0.276806478 6.94409907,0.276806478 C8.31682972,0.276806478 9.58969659,1.01915466 10.2562477,2.18747854 C11.5465511,2.44321943 12.4207554,3.3216 12.8574613,4.80163239 C13.161808,5.83236923 13.0310341,6.91363239 12.4992198,7.76636113 C12.01813,8.5390251 11.2564706,9.05905749 10.3561115,9.23006964 C9.96695975,9.30391579 9.32101548,9.32801296 8.63940557,9.32801296" id="Fill-8" fill="#626E70" mask="url(#mask-4)"></path>
                        </g>
                    </g>
                </g>
            </g>
        </g>
    </g>
</svg>