<?xml version="1.0" encoding="UTF-8"?>
<svg width="11px" height="16px" viewBox="0 0 11 16" version="1.1" xmlns="http://www.w3.org/2000/svg" xmlns:xlink="http://www.w3.org/1999/xlink">
    <!-- Generator: Sketch 50.2 (55047) - http://www.bohemiancoding.com/sketch -->
    <title>coffee/standard</title>
    <desc>Created with Sketch.</desc>
    <defs>
        <polygon id="path-1" points="0 0.53968 10.8609286 0.53968 10.8609286 10.39968 0 10.39968"></polygon>
        <polygon id="path-3" points="0.617869326 0.72 1.8232149 0.72 1.8232149 4.35032 0.617869326 4.35032"></polygon>
        <polygon id="path-5" points="0.229569326 0.72 1.43439775 0.72 1.43439775 4.35032 0.229569326 4.35032"></polygon>
        <polygon id="path-7" points="0.627062183 0.72 1.8318906 0.72 1.8318906 4.35032 0.627062183 4.35032"></polygon>
    </defs>
    <g id="Icons" stroke="none" stroke-width="1" fill="none" fill-rule="evenodd">
        <g transform="translate(-746.000000, -1801.000000)" id="Objects">
            <g transform="translate(25.000000, 1496.000000)">
                <g id="Coffee" transform="translate(721.000000, 275.000000)">
                    <g id="coffee/standard" transform="translate(0.000000, 30.000000)">
                        <path d="M2.42204286,7.1796 C2.20518571,7.1796 2.02918571,7.3588 2.02918571,7.5796 L2.02918571,12.3796 C2.02918571,12.6004 2.20518571,12.7796 2.42204286,12.7796 C2.6389,12.7796 2.8149,12.6004 2.8149,12.3796 L2.8149,7.5796 C2.8149,7.3588 2.6389,7.1796 2.42204286,7.1796" id="Fill-1" fill="#626E70"></path>
                        <g id="Group-5" transform="translate(0.000000, 4.880320)">
                            <mask id="mask-2" fill="white">
                                <use xlink:href="#path-1"></use>
                            </mask>
                            <g id="Clip-4"></g>
                            <path d="M8.59155,6.39968 L8.59155,3.42848 C9.33483571,3.50448 9.91783571,4.13728 9.91783571,4.91408 C9.91783571,5.69008 9.33483571,6.32288 8.59155,6.39968 M6.68069286,9.47008 L1.91062143,9.47008 C1.36297857,9.47008 0.917478571,9.01648 0.917478571,8.45888 L0.917478571,1.47008 L7.67383571,1.47008 L7.67383571,8.45888 C7.67383571,9.01648 7.22833571,9.47008 6.68069286,9.47008 M10.8614786,4.91408 C10.8614786,3.60848 9.85419286,2.54688 8.59155,2.46768 L8.59155,1.01968 C8.59155,0.75488 8.38019286,0.53968 8.12012143,0.53968 L0.471978571,0.53968 C0.211121429,0.53968 -0.000235714286,0.75488 -0.000235714286,1.01968 L-0.000235714286,8.43648 C-0.000235714286,9.51888 0.864835714,10.39968 1.92869286,10.39968 L6.66262143,10.39968 C7.72647857,10.39968 8.59155,9.51888 8.59155,8.43648 L8.59155,7.35968 C9.85419286,7.28048 10.8614786,6.21968 10.8614786,4.91408" id="Fill-3" fill="#626E70" mask="url(#mask-2)"></path>
                        </g>
                        <g id="Group-8" transform="translate(0.785714, 0.080320)">
                            <mask id="mask-4" fill="white">
                                <use xlink:href="#path-3"></use>
                            </mask>
                            <g id="Clip-7"></g>
                            <path d="M0.9581,4.13832 C1.02881429,4.27352 1.16474286,4.35032 1.30538571,4.35032 C1.36745714,4.35032 1.4311,4.33512 1.49002857,4.30312 C1.68095714,4.19912 1.75324286,3.95672 1.6511,3.76152 C1.29124286,3.07432 1.39417143,2.90632 1.54895714,2.65272 C1.79095714,2.25672 1.97952857,1.83112 1.6346,0.96952 C1.5521,0.76472 1.32267143,0.66632 1.12231429,0.74952 C0.921171429,0.83272 0.825314286,1.06632 0.907028571,1.27112 C1.1286,1.82632 1.03038571,1.98712 0.881885714,2.22952 C0.610028571,2.67512 0.427742857,3.12632 0.9581,4.13832" id="Fill-6" fill="#626E70" mask="url(#mask-4)"></path>
                        </g>
                        <g id="Group-11" transform="translate(3.142857, 0.080320)">
                            <mask id="mask-6" fill="white">
                                <use xlink:href="#path-5"></use>
                            </mask>
                            <g id="Clip-10"></g>
                            <path d="M0.5698,4.13832 C0.640514286,4.27352 0.776442857,4.35032 0.9163,4.35032 C0.979157143,4.35032 1.0428,4.33512 1.10094286,4.30312 C1.29265714,4.19912 1.36494286,3.95672 1.2628,3.76152 C0.902942857,3.07432 1.00508571,2.90632 1.16065714,2.65272 C1.40265714,2.25672 1.59044286,1.83112 1.24551429,0.96952 C1.1638,0.76472 0.934371429,0.66552 0.733228571,0.74952 C0.532871429,0.83272 0.436228571,1.06632 0.518728571,1.27112 C0.7403,1.82632 0.642085714,1.98712 0.493585714,2.22952 C0.221728571,2.67512 0.0394428571,3.12632 0.5698,4.13832" id="Fill-9" fill="#626E70" mask="url(#mask-6)"></path>
                        </g>
                        <g id="Group-14" transform="translate(4.714286, 0.080320)">
                            <mask id="mask-8" fill="white">
                                <use xlink:href="#path-7"></use>
                            </mask>
                            <g id="Clip-13"></g>
                            <path d="M0.967292857,4.13832 C1.03800714,4.27352 1.17393571,4.35032 1.31379286,4.35032 C1.37665,4.35032 1.44029286,4.33512 1.49843571,4.30312 C1.69015,4.19912 1.76243571,3.95672 1.66029286,3.76152 C1.30043571,3.07432 1.40257857,2.90632 1.55815,2.65272 C1.80015,2.25672 1.98793571,1.83112 1.64300714,0.96952 C1.56129286,0.76472 1.33186429,0.66632 1.13072143,0.74952 C0.930364286,0.83272 0.833721429,1.06632 0.915435714,1.27112 C1.13779286,1.82632 1.03957857,1.98712 0.891078571,2.22952 C0.619221429,2.67512 0.436935714,3.12632 0.967292857,4.13832" id="Fill-12" fill="#626E70" mask="url(#mask-8)"></path>
                        </g>
                    </g>
                </g>
            </g>
        </g>
    </g>
</svg>