<?xml version="1.0" encoding="utf-8"?>
<svg xmlns="http://www.w3.org/2000/svg" viewBox="0 0 15.17 15.31">
    <title>collapse</title>
    <g>
        <path d="M584.86,608.19h0a0.57,0.57,0,0,1-.54-0.6l0.2-3.78-3.62.34a0.57,0.57,0,0,1-.11-1.14l4.93-.46-0.27,5.1A0.57,0.57,0,0,1,584.86,608.19Z" transform="translate(-579.42 -593.55)" />
        <path d="M580,608.86a0.57,0.57,0,0,1-.4-1l4.71-4.71a0.57,0.57,0,0,1,.81.81l-4.71,4.71A0.57,0.57,0,0,1,580,608.86Z" transform="translate(-579.42 -593.55)" />
    </g>
    <g>
        <path d="M588.3,599.85l0.27-5.1a0.57,0.57,0,1,1,1.14.06l-0.2,3.78,3.62-.34a0.57,0.57,0,0,1,.11,1.14Z" transform="translate(-579.42 -593.55)" />
        <path d="M589.3,599.4a0.57,0.57,0,0,1-.4-1l4.71-4.71a0.57,0.57,0,0,1,.81.81l-4.71,4.71A0.57,0.57,0,0,1,589.3,599.4Z" transform="translate(-579.42 -593.55)" />
    </g>
</svg>
