<?xml version="1.0" encoding="utf-8"?>
<svg xmlns="http://www.w3.org/2000/svg" viewBox="0 0 20 20">
    <title>columns</title>
    <path d="M5.4,6.1H2a1,1,0,1,1,0-2H5.4a1,1,0,1,1,0,2Z"/>
    <path d="M11.7,6.1H8.3a1,1,0,1,1,0-2h3.4a1,1,0,0,1,0,2Z"/>
    <path d="M18,6.1H14.6a1,1,0,1,1,0-2H18a1,1,0,0,1,0,2Z"/>
    <path d="M5.8,9.5H1.6a.6.6,0,0,1,0-1.1H5.8a.6.6,0,0,1,0,1.1Z"/>
    <path d="M12.1,9.5H7.9a.6.6,0,0,1,0-1.1h4.2a.6.6,0,0,1,0,1.1Z"/>
    <path d="M18.4,9.5H14.2a.6.6,0,0,1,0-1.1h4.2a.6.6,0,0,1,0,1.1Z"/>
    <path d="M5.8,12.7H1.6a.6.6,0,1,1,0-1.1H5.8a.6.6,0,1,1,0,1.1Z"/>
    <path d="M12.1,12.7H7.9a.6.6,0,1,1,0-1.1h4.2a.6.6,0,1,1,0,1.1Z"/>
    <path d="M18.4,12.7H14.2a.6.6,0,1,1,0-1.1h4.2a.6.6,0,1,1,0,1.1Z"/>
    <path d="M5.8,15.9H1.6a.6.6,0,0,1,0-1.1H5.8a.6.6,0,0,1,0,1.1Z"/>
    <path d="M12.1,15.9H7.9a.6.6,0,1,1,0-1.1h4.2a.6.6,0,0,1,0,1.1Z"/>
    <path d="M18.4,15.9H14.2a.6.6,0,0,1,0-1.1h4.2a.6.6,0,1,1,0,1.1Z"/>
</svg>
