<?xml version="1.0" encoding="utf-8"?>
<svg xmlns="http://www.w3.org/2000/svg" viewBox="0 0 20 20">
    <title>comment</title>
    <path d="M6,18H5.7a.6.6,0,0,1-.3-.5V14.9H1a.6.6,0,0,1-.6-.6V2.6A.6.6,0,0,1,1,2H19a.6.6,0,0,1,.6.6V14.3a.6.6,0,0,1-.6.6H9.8l-3.5,3ZM1.6,13.7H6a.6.6,0,0,1,.6.6v1.8l2.7-2.3h9.2V3.2H1.6Z"/>
    <path d="M12,6.3h-7a.6.6,0,1,1,0-1.2h7a.6.6,0,1,1,0,1.2Z"/>
    <path d="M15.1,8.8H4.9a.6.6,0,1,1,0-1.2H15.1a.6.6,0,1,1,0,1.2Z"/>
    <path d="M15.1,11.2H4.9a.6.6,0,1,1,0-1.2H15.1a.6.6,0,1,1,0,1.2Z"/>
</svg>
