<?xml version="1.0" encoding="utf-8"?>
<svg xmlns="http://www.w3.org/2000/svg" viewBox="0 0 20 20">
    <title>contact</title>
    <path d="M9.9,2.2c2.1,0,3.9,2.1,3.9,4.6a4.8,4.8,0,0,1-1.9,4h0v2.1l4,1.5a2.4,2.4,0,0,1,1.6,2.2v1.2H2.6V16.6a2.3,2.3,0,0,1,1.5-2.2l4-1.5V11h0A4.8,4.8,0,0,1,6,6.8C6,4.3,7.8,2.2,9.9,2.2M9.9,1c-2.8,0-5,2.6-5,5.8A6.1,6.1,0,0,0,7,11.6v.5L3.8,13.3a3.5,3.5,0,0,0-2.3,3.3v1.2A1.2,1.2,0,0,0,2.6,19H17.4a1.2,1.2,0,0,0,1.2-1.2V16.6a3.5,3.5,0,0,0-2.3-3.3L13,12.1v-.7a6.1,6.1,0,0,0,1.9-4.5c0-3.2-2.3-5.8-5-5.8Z"/>
</svg>
