<?xml version="1.0" encoding="utf-8"?>
<svg xmlns="http://www.w3.org/2000/svg" viewBox="0 0 20 20">
    <title>contact-card</title>
    <path d="M19,3.2H1a.6.6,0,0,0-.6.6V16.2a.6.6,0,0,0,.6.6H4.1a.6.6,0,0,0,.6-.6v-.3a.6.6,0,1,1,1.3,0v.3a.6.6,0,0,0,.6.6h6.8l.6-.9a.6.6,0,1,1,1.3,0v.3a.6.6,0,0,0,.6.6H19a.6.6,0,0,0,.6-.6V3.8A.6.6,0,0,0,19,3.2Zm-.6,12.4H16.5a1.7,1.7,0,0,0-1.8-1.6,1.7,1.7,0,0,0-1.8,1.6H7.2a1.8,1.8,0,0,0-3.6,0H1.6V4.4H18.4Z"/>
    <circle cx="6" cy="7.8" r="1.6"/>
    <path d="M6,9.4a2.2,2.2,0,0,0-2.5,2.5h5A2.2,2.2,0,0,0,6,9.4Z"/>
    <path d="M15.8,11.1H10.6a.6.6,0,1,1,0-1.2h5.2a.6.6,0,1,1,0,1.2Z"/>
    <path d="M15.8,9H10.6a.6.6,0,1,1,0-1.2h5.2a.6.6,0,1,1,0,1.2Z"/>
</svg>
