<?xml version="1.0" encoding="utf-8"?>
<svg xmlns="http://www.w3.org/2000/svg" viewBox="0 0 25.63 25.63">
    <title>cpu</title>
    <path d="M1216.53,956.24v-13.5H1203v13.5h13.5Zm1.25,0.29a1,1,0,0,1-1,1h-14.08a1,1,0,0,1-1-1V942.46a1,1,0,0,1,1-1h14.08a1,1,0,0,1,1,1v14.07Z" transform="translate(-1196.73 -936.68)" />
    <path d="M1201.5,945.07h-4.21a0.56,0.56,0,0,1,0-1.12h4.21A0.56,0.56,0,0,1,1201.5,945.07Z" transform="translate(-1196.73 -936.68)" />
    <path d="M1201.5,948.26h-4.21a0.56,0.56,0,1,1,0-1.12h4.21A0.56,0.56,0,0,1,1201.5,948.26Z" transform="translate(-1196.73 -936.68)" />
    <path d="M1201.5,951.44h-4.21a0.56,0.56,0,1,1,0-1.12h4.21A0.56,0.56,0,0,1,1201.5,951.44Z" transform="translate(-1196.73 -936.68)" />
    <path d="M1221.8,945.07h-4.21a0.56,0.56,0,0,1,0-1.12h4.21A0.56,0.56,0,0,1,1221.8,945.07Z" transform="translate(-1196.73 -936.68)" />
    <path d="M1221.8,948.26h-4.21a0.56,0.56,0,0,1,0-1.12h4.21A0.56,0.56,0,0,1,1221.8,948.26Z" transform="translate(-1196.73 -936.68)" />
    <path d="M1221.8,951.44h-4.21a0.56,0.56,0,0,1,0-1.12h4.21A0.56,0.56,0,0,1,1221.8,951.44Z" transform="translate(-1196.73 -936.68)" />
    <path d="M1221.8,954.7h-4.21a0.56,0.56,0,0,1,0-1.12h4.21A0.56,0.56,0,0,1,1221.8,954.7Z" transform="translate(-1196.73 -936.68)" />
    <path d="M1201.8,954.7h-4.21a0.56,0.56,0,0,1,0-1.12h4.21A0.56,0.56,0,0,1,1201.8,954.7Z" transform="translate(-1196.73 -936.68)" />
    <path d="M1205.53,957.54v4.21a0.56,0.56,0,0,1-1.12,0v-4.21A0.56,0.56,0,0,1,1205.53,957.54Z" transform="translate(-1196.73 -936.68)" />
    <path d="M1208.72,957.54v4.21a0.56,0.56,0,1,1-1.12,0v-4.21A0.56,0.56,0,1,1,1208.72,957.54Z" transform="translate(-1196.73 -936.68)" />
    <path d="M1211.9,957.54v4.21a0.56,0.56,0,0,1-1.12,0v-4.21A0.56,0.56,0,0,1,1211.9,957.54Z" transform="translate(-1196.73 -936.68)" />
    <path d="M1205.53,937.24v4.21a0.56,0.56,0,0,1-1.12,0v-4.21A0.56,0.56,0,0,1,1205.53,937.24Z" transform="translate(-1196.73 -936.68)" />
    <path d="M1208.72,937.24v4.21a0.56,0.56,0,1,1-1.12,0v-4.21A0.56,0.56,0,1,1,1208.72,937.24Z" transform="translate(-1196.73 -936.68)" />
    <path d="M1211.9,937.24v4.21a0.56,0.56,0,0,1-1.12,0v-4.21A0.56,0.56,0,0,1,1211.9,937.24Z" transform="translate(-1196.73 -936.68)" />
    <path d="M1215.16,937.24v4.21a0.56,0.56,0,1,1-1.12,0v-4.21A0.56,0.56,0,1,1,1215.16,937.24Z" transform="translate(-1196.73 -936.68)" />
    <path d="M1215.16,957.24v4.21a0.56,0.56,0,1,1-1.12,0v-4.21A0.56,0.56,0,1,1,1215.16,957.24Z" transform="translate(-1196.73 -936.68)" />
</svg>
