<?xml version="1.0" encoding="utf-8"?>
<svg xmlns="http://www.w3.org/2000/svg" viewBox="0 0 20 20">
    <title>data</title>
    <path d="M16.8,19.6H3.2a.6.6,0,0,1-.6-.6V1A.6.6,0,0,1,3.2.4h9.1l5,4.3a.6.6,0,0,1,.2.5V19A.6.6,0,0,1,16.8,19.6ZM3.8,18.4H16.2V5.6l-4.6-4H3.8Z"/>
    <path d="M16.8,5.9h-5a.6.6,0,0,1-.6-.6V1h1.2V4.7h4.4Z"/>
    <path d="M14.9,16.2H5.1V7.5h9.9ZM6.2,15.1h7.5V8.7H6.2Z"/>
    <path d="M14.3,11.3H5.7a.6.6,0,1,1,0-1.2h8.7a.6.6,0,1,1,0,1.2Z"/>
    <path d="M14.3,13.8H5.7a.6.6,0,0,1,0-1.2h8.7a.6.6,0,1,1,0,1.2Z"/>
    <path d="M8.8,15.7a.6.6,0,0,1-.6-.6V8.2a.6.6,0,0,1,1.2,0v6.9A.6.6,0,0,1,8.8,15.7Z"/>
</svg>
