<?xml version="1.0" encoding="utf-8"?>
<svg xmlns="http://www.w3.org/2000/svg" viewBox="0 0 20 20">
    <title>database</title>
    <path d="M10,8.8C4.7,8.8.8,7,.8,4.6S4.7.4,10,.4s9.2,1.8,9.2,4.2S15.3,8.8,10,8.8Zm0-7.2c-4.7,0-8,1.6-8,3s3.3,3,8,3,8-1.6,8-3S14.7,1.6,10,1.6Z"/>
    <path d="M10,12.4C4.7,12.4.8,10.6.8,8.2A.6.6,0,0,1,2,8.2c0,1.4,3.3,3,8,3s8-1.6,8-3a.6.6,0,0,1,1.2,0C19.2,10.6,15.3,12.4,10,12.4Z"/>
    <path d="M10,16C4.7,16,.8,14.2.8,11.8a.6.6,0,0,1,1.2,0c0,1.4,3.3,3,8,3s8-1.6,8-3a.6.6,0,0,1,1.2,0C19.2,14.2,15.3,16,10,16Z"/>
    <path d="M10,19.6C4.7,19.6.8,17.8.8,15.4V4.6A.6.6,0,0,1,2,4.6V15.4c0,1.4,3.3,3,8,3s8-1.6,8-3V4.6a.6.6,0,0,1,1.2,0V15.4C19.2,17.8,15.3,19.6,10,19.6Z"/>
</svg>
