<?xml version="1.0" encoding="utf-8"?>
<svg xmlns="http://www.w3.org/2000/svg" viewBox="0 0 20 20">
    <title>delete</title>
    <path d="M15.5,19.6H4.5A1.6,1.6,0,0,1,3,18V3.6A.6.6,0,0,1,3.6,3H16.4a.6.6,0,0,1,.6.6V18A1.6,1.6,0,0,1,15.5,19.6ZM4.2,4.2V18a.4.4,0,0,0,.4.4H15.5a.4.4,0,0,0,.4-.4V4.2Z"/>
    <path d="M13.4,4.2H6.6A.6.6,0,0,1,6,3.6V1A.6.6,0,0,1,6.6.4h6.7A.6.6,0,0,1,14,1V3.6A.6.6,0,0,1,13.4,4.2ZM7.2,3h5.5V1.6H7.2Z"/>
    <path d="M18.8,4.2H1.2A.6.6,0,1,1,1.2,3H18.8a.6.6,0,1,1,0,1.2Z"/>
    <path d="M6.6,16a.6.6,0,0,1-.6-.6V7.2a.6.6,0,0,1,1.2,0v8.1A.6.6,0,0,1,6.6,16Z"/>
    <path d="M10,16a.6.6,0,0,1-.6-.6V7.2a.6.6,0,0,1,1.2,0v8.1A.6.6,0,0,1,10,16Z"/>
    <path d="M13.4,16a.6.6,0,0,1-.6-.6V7.2a.6.6,0,0,1,1.2,0v8.1A.6.6,0,0,1,13.4,16Z"/>
</svg>
