<?xml version="1.0" encoding="UTF-8"?>
<svg width="16px" height="16px" viewBox="0 0 16 16" version="1.1" xmlns="http://www.w3.org/2000/svg" xmlns:xlink="http://www.w3.org/1999/xlink">
    <!-- Generator: Sketch 50.2 (55047) - http://www.bohemiancoding.com/sketch -->
    <title>Device Group</title>
    <desc>Created with Sketch.</desc>
    <defs></defs>
    <g id="Icons" stroke="none" stroke-width="1" fill="none" fill-rule="evenodd">
        <g transform="translate(-1175.000000, -1944.000000)" fill="#626E70" id="Objects">
            <g transform="translate(25.000000, 1496.000000)">
                <g id="Device-Group" transform="translate(1150.000000, 418.000000)">
                    <g transform="translate(0.000000, 30.000000)">
                        <path d="M7.80817778,6.75022703 C7.08284444,6.75022703 6.49306667,7.3244973 6.49306667,8.02979459 C6.49306667,8.73552432 7.08284444,9.30936216 7.80817778,9.30936216 C8.53351111,9.30936216 9.12328889,8.73552432 9.12328889,8.02979459 C9.12328889,7.3244973 8.53351111,6.75022703 7.80817778,6.75022703 M7.80817778,9.74179459 C6.83795556,9.74179459 6.04862222,8.97379459 6.04862222,8.02979459 C6.04862222,7.08579459 6.83795556,6.31779459 7.80817778,6.31779459 C8.7784,6.31779459 9.56773333,7.08579459 9.56773333,8.02979459 C9.56773333,8.97379459 8.7784,9.74179459 7.80817778,9.74179459" id="Fill-1"></path>
                        <path d="M7.80817778,0.864864865 C7.08284444,0.864864865 6.49306667,1.43913514 6.49306667,2.14443243 C6.49306667,2.84972973 7.08284444,3.424 7.80817778,3.424 C8.53351111,3.424 9.12328889,2.84972973 9.12328889,2.14443243 C9.12328889,1.43913514 8.53351111,0.864864865 7.80817778,0.864864865 M7.80817778,3.85643243 C6.83795556,3.85643243 6.04862222,3.08843243 6.04862222,2.14443243 C6.04862222,1.20043243 6.83795556,0.432432432 7.80817778,0.432432432 C8.7784,0.432432432 9.56773333,1.20043243 9.56773333,2.14443243 C9.56773333,3.08843243 8.7784,3.85643243 7.80817778,3.85643243" id="Fill-3"></path>
                        <path d="M3.5308,2.58931892 C3.19435556,2.58931892 2.85746667,2.71429189 2.60102222,2.96337297 C2.08857778,3.4624 2.08857778,4.27407568 2.60102222,4.7731027 C3.11435556,5.27212973 3.94813333,5.2716973 4.46102222,4.7731027 C4.97346667,4.27407568 4.97346667,3.4624 4.46102222,2.96337297 C4.20457778,2.71429189 3.86768889,2.58931892 3.5308,2.58931892 M3.53124444,5.57958919 C3.08013333,5.57958919 2.62991111,5.41267027 2.2868,5.07883243 C1.60057778,4.41115676 1.60057778,3.32531892 2.2868,2.65764324 C2.97257778,1.9904 4.08946667,1.98953514 4.77524444,2.65764324 C5.46146667,3.32531892 5.46146667,4.41115676 4.77524444,5.07883243 C4.43213333,5.41267027 3.98191111,5.57958919 3.53124444,5.57958919" id="Fill-6"></path>
                        <path d="M1.75955556,6.75022703 C1.03422222,6.75022703 0.444444444,7.3244973 0.444444444,8.02979459 C0.444444444,8.73552432 1.03422222,9.30936216 1.75955556,9.30936216 C2.48488889,9.30936216 3.07466667,8.73552432 3.07466667,8.02979459 C3.07466667,7.3244973 2.48488889,6.75022703 1.75955556,6.75022703 M1.75955556,9.74179459 C0.789333333,9.74179459 0,8.97379459 0,8.02979459 C0,7.08579459 0.789333333,6.31779459 1.75955556,6.31779459 C2.72977778,6.31779459 3.51911111,7.08579459 3.51911111,8.02979459 C3.51911111,8.97379459 2.72977778,9.74179459 1.75955556,9.74179459" id="Fill-8"></path>
                        <path d="M3.5308,10.9123892 C3.19435556,10.9123892 2.85746667,11.0369297 2.60102222,11.2864432 C2.08857778,11.7854703 2.08857778,12.5971459 2.60102222,13.096173 C3.11435556,13.5956324 3.94813333,13.5952 4.46102222,13.096173 C4.97346667,12.5971459 4.97346667,11.7854703 4.46102222,11.2864432 C4.20457778,11.0369297 3.86768889,10.9123892 3.5308,10.9123892 M3.53124444,13.902227 C3.08013333,13.902227 2.62991111,13.7353081 2.2868,13.4019027 C1.60057778,12.734227 1.60057778,11.6483892 2.2868,10.9807135 C2.97257778,10.3139027 4.08946667,10.3130378 4.77524444,10.9807135 C5.46146667,11.6483892 5.46146667,12.734227 4.77524444,13.4019027 C4.43213333,13.7353081 3.98191111,13.902227 3.53124444,13.902227" id="Fill-10"></path>
                        <path d="M7.80817778,12.6353297 C7.08284444,12.6353297 6.49306667,13.2091676 6.49306667,13.9148973 C6.49306667,14.620627 7.08284444,15.1944649 7.80817778,15.1944649 C8.53351111,15.1944649 9.12328889,14.620627 9.12328889,13.9148973 C9.12328889,13.2091676 8.53351111,12.6353297 7.80817778,12.6353297 M7.80817778,15.6268973 C6.83795556,15.6268973 6.04862222,14.8588973 6.04862222,13.9148973 C6.04862222,12.9708973 6.83795556,12.2028973 7.80817778,12.2028973 C8.7784,12.2028973 9.56773333,12.9708973 9.56773333,13.9148973 C9.56773333,14.8588973 8.7784,15.6268973 7.80817778,15.6268973" id="Fill-12"></path>
                        <path d="M12.0855111,10.9123892 C11.7486222,10.9123892 11.4117333,11.0369297 11.1552889,11.2864432 C10.6428444,11.7854703 10.6428444,12.5971459 11.1552889,13.096173 C11.6686222,13.5947676 12.5019556,13.5956324 13.0152889,13.096173 C13.5277333,12.5971459 13.5277333,11.7854703 13.0152889,11.2864432 C12.7588444,11.0369297 12.4219556,10.9123892 12.0855111,10.9123892 M12.0850667,13.902227 C11.6344,13.902227 11.1841778,13.7353081 10.8410667,13.4019027 C10.1548444,12.734227 10.1548444,11.6483892 10.8410667,10.9807135 C11.5268444,10.3130378 12.6437333,10.3134703 13.3295111,10.9807135 C14.0157333,11.6483892 14.0157333,12.734227 13.3295111,13.4019027 C12.9864,13.7353081 12.5361778,13.902227 12.0850667,13.902227" id="Fill-14"></path>
                        <path d="M13.8567556,6.75022703 C13.1314222,6.75022703 12.5416444,7.3244973 12.5416444,8.02979459 C12.5416444,8.73552432 13.1314222,9.30936216 13.8567556,9.30936216 C14.5820889,9.30936216 15.1718667,8.73552432 15.1718667,8.02979459 C15.1718667,7.3244973 14.5820889,6.75022703 13.8567556,6.75022703 M13.8567556,9.74179459 C12.8865333,9.74179459 12.0972,8.97379459 12.0972,8.02979459 C12.0972,7.08579459 12.8865333,6.31779459 13.8567556,6.31779459 C14.8269778,6.31779459 15.6163111,7.08579459 15.6163111,8.02979459 C15.6163111,8.97379459 14.8269778,9.74179459 13.8567556,9.74179459" id="Fill-16"></path>
                        <path d="M12.0855111,2.58931892 C11.7486222,2.58931892 11.4117333,2.71429189 11.1552889,2.96337297 C10.6428444,3.4624 10.6428444,4.27407568 11.1552889,4.7731027 C11.6686222,5.2716973 12.5019556,5.27212973 13.0152889,4.7731027 C13.5277333,4.27407568 13.5277333,3.4624 13.0152889,2.96337297 C12.7588444,2.71429189 12.4219556,2.58931892 12.0855111,2.58931892 M12.0850667,5.57958919 C11.6344,5.57958919 11.1841778,5.41267027 10.8410667,5.07883243 C10.1548444,4.41115676 10.1548444,3.32531892 10.8410667,2.65764324 C11.5268444,1.98953514 12.6437333,1.9904 13.3295111,2.65764324 C14.0157333,3.32531892 14.0157333,4.41115676 13.3295111,5.07883243 C12.9864,5.41267027 12.5361778,5.57958919 12.0850667,5.57958919" id="Fill-18"></path>
                    </g>
                </g>
            </g>
        </g>
    </g>
</svg>