<?xml version="1.0" encoding="utf-8"?>
<svg xmlns="http://www.w3.org/2000/svg" viewBox="0 0 20 20">
    <title>document</title>
    <path d="M16.1,19H3.9a.6.6,0,0,1-.6-.6V1.6A.6.6,0,0,1,3.9,1H12l.4.2,4.1,4.1a.6.6,0,0,1,.2.4V18.4A.6.6,0,0,1,16.1,19ZM4.5,17.9H15.5V5.9L11.8,2.1H4.5Z" />
    <path d="M16.1,6.2H12a.6.6,0,0,1-.6-.6V1.6h1.1V5.1h3.5Z" />
    <path d="M13.5,10.6H6.9a.6.6,0,1,1,0-1.1h6.6a.6.6,0,1,1,0,1.1Z" />
    <path d="M11.6,13H6.9a.6.6,0,1,1,0-1.1h4.7a.6.6,0,1,1,0,1.1Z" />
    <path d="M13.5,15.3H6.9a.6.6,0,1,1,0-1.1h6.6a.6.6,0,1,1,0,1.1Z" />
</svg>
