<?xml version="1.0" encoding="utf-8"?>
<svg xmlns="http://www.w3.org/2000/svg" viewBox="0 0 20 20">
    <title>email</title>
    <path d="M17.8,17H2.2A1.9,1.9,0,0,1,.4,15.2V4.8A1.9,1.9,0,0,1,2.2,3H17.8a1.9,1.9,0,0,1,1.8,1.8V15.2A1.9,1.9,0,0,1,17.8,17ZM2.2,4.2a.7.7,0,0,0-.6.6V15.2a.7.7,0,0,0,.6.6H17.8a.7.7,0,0,0,.6-.6V4.8a.7.7,0,0,0-.6-.6Z"/>
    <path d="M10,11.7H9.7L3.1,7.2a.6.6,0,0,1,.7-1L10,10.3l6.2-4.1a.6.6,0,0,1,.7,1l-6.5,4.3Z"/>
    <path d="M3.5,14a.6.6,0,0,1-.3-1.1L5.9,11a.6.6,0,0,1,.7,1L3.8,13.9Z"/>
    <path d="M16.5,14h-.3L13.4,12a.6.6,0,0,1,.7-1l2.8,1.9a.6.6,0,0,1-.3,1.1Z"/>
</svg>
