<?xml version="1.0" encoding="utf-8"?>
<svg xmlns="http://www.w3.org/2000/svg" viewBox="0 0 15.18 15.32">
    <title>expand</title>
    <g>
        <path d="M594.32,751.79h0a0.57,0.57,0,0,1-.54-0.6l0.2-3.78-3.62.34a0.57,0.57,0,1,1-.11-1.14l4.93-.46-0.27,5.1A0.57,0.57,0,0,1,594.32,751.79Z" transform="translate(-579.98 -746.15)" />
        <path d="M589.45,752.46a0.57,0.57,0,0,1-.4-1l4.71-4.71a0.57,0.57,0,0,1,.81.81l-4.71,4.71A0.57,0.57,0,0,1,589.45,752.46Z" transform="translate(-579.98 -746.15)" />
    </g>
    <g>
        <path d="M580,761.48l0.27-5.1a0.57,0.57,0,1,1,1.14.06l-0.2,3.78,3.62-.34a0.57,0.57,0,0,1,.11,1.14Z" transform="translate(-579.98 -746.15)" />
        <path class="cls-1" d="M581,761a0.57,0.57,0,0,1-.4-1l4.71-4.71a0.57,0.57,0,0,1,.81.81l-4.71,4.71A0.57,0.57,0,0,1,581,761Z" transform="translate(-579.98 -746.15)" />
    </g>
</svg>
