<?xml version="1.0" encoding="UTF-8"?>
<svg width="16px" height="16px" viewBox="0 0 16 16" version="1.1" xmlns="http://www.w3.org/2000/svg" xmlns:xlink="http://www.w3.org/1999/xlink">
    <!-- Generator: Sketch 50.2 (55047) - http://www.bohemiancoding.com/sketch -->
    <title>external_link/enabled</title>
    <desc>Created with Sketch.</desc>
    <defs>
        <rect id="path-1" x="0.376493566" y="0.282341452" width="15.0588235" height="15.3411758"></rect>
    </defs>
    <g id="Icons" stroke="none" stroke-width="1" fill="none" fill-rule="evenodd">
        <g transform="translate(-747.000000, -1187.000000)" id="Action">
            <g transform="translate(25.000000, 502.000000)">
                <g id="External-Link" transform="translate(722.000000, 631.000000)">
                    <g id="Icons" transform="translate(0.000000, 30.000000)">
                        <g id="external_link/enabled" transform="translate(0.000000, 24.000000)">
                            <mask id="mask-2" fill="white">
                                <use xlink:href="#path-1"></use>
                            </mask>
                            <g id="Mask"></g>
                            <g id="Group" mask="url(#mask-2)" fill="#626E70" fill-rule="nonzero">
                                <g transform="translate(0.000000, -2.823529)">
                                    <path d="M11.7647059,9.42233813 C11.7647059,9.16243943 11.9753954,8.9517499 12.2352941,8.9517499 C12.4951928,8.9517499 12.7058824,9.16243943 12.7058824,9.42233813 L12.7058824,15.0588224 C12.7058824,16.8781133 11.2310556,18.35294 9.41176471,18.35294 C9.38727656,18.3528793 9.38727656,18.3528793 9.36279022,18.3525759 L3.72972411,18.35294 C1.92972925,18.3261761 0.470588235,16.7750507 0.470588235,14.9748568 L0.470588235,9.41176471 C0.470588235,7.59247377 1.94541494,6.11764706 3.76470588,6.11764706 L8.47058824,6.11764706 C8.73048694,6.11764706 8.94117647,6.32833659 8.94117647,6.58823529 C8.94117647,6.848134 8.73048694,7.05882353 8.47058824,7.05882353 L3.76470588,7.05882353 C2.46521235,7.05882353 1.41176471,8.11227118 1.41176471,9.41176471 L1.41176471,14.9748568 C1.41176471,16.2607096 2.44401349,17.3084209 3.72972411,17.327538 L9.41176471,17.327538 C10.74624,17.327798 11.7647059,16.3583159 11.7647059,15.0588224 L11.7647059,9.42233813 Z" id="Line-2"></path>
                                    <path d="M11.6530153,4.03328805 L11.6530153,13.2038949 C11.6530153,13.593743 11.336981,13.9097773 10.947133,13.9097773 C10.5572849,13.9097773 10.2412506,13.593743 10.2412506,13.2038949 L10.2412506,4.03328805 L8.62273777,5.65180091 C8.34707356,5.92746512 7.90013358,5.92746512 7.62446937,5.65180091 C7.34880516,5.37613671 7.34880516,4.92919672 7.62446937,4.65353252 L10.947133,1.3308689 L14.2697966,4.65353252 C14.5454608,4.92919672 14.5454608,5.37613671 14.2697966,5.65180091 C13.9941324,5.92746512 13.5471924,5.92746512 13.2715282,5.65180091 L11.6530153,4.03328805 Z" id="Combined-Shape" transform="translate(10.947133, 7.620323) rotate(45.000000) translate(-10.947133, -7.620323) "></path>
                                </g>
                            </g>
                        </g>
                    </g>
                </g>
            </g>
        </g>
    </g>
</svg>