<?xml version="1.0" encoding="utf-8"?>
<svg xmlns="http://www.w3.org/2000/svg" viewBox="0 0 20 20">
    <title>file-server</title>
    <path d="M15,19.3H5.1a.6.6,0,1,1,0-1.2H15a.6.6,0,1,1,0,1.2Z"/>
    <path d="M9.7,19.3a.6.6,0,0,1-.6-.6V15.6a.6.6,0,0,1,1.2,0v3.1A.6.6,0,0,1,9.7,19.3Z"/>
    <path d="M1.9,18.4a.3.3,0,1,0,.3.3.3.3,0,0,0-.3-.3Z"/>
    <path d="M1.9,19.6a.9.9,0,1,1,.9-.9A.9.9,0,0,1,1.9,19.6Zm0-1.2a.3.3,0,1,0,.3.3A.3.3,0,0,0,1.9,18.4Z"/>
    <path d="M18.1,18.4a.3.3,0,1,0,.3.3.3.3,0,0,0-.3-.3Z"/>
    <path d="M18.1,19.6a.9.9,0,1,1,.9-.9A.9.9,0,0,1,18.1,19.6Zm0-1.2a.3.3,0,1,0,.3.3A.3.3,0,0,0,18.1,18.4Z"/>
    <path d="M3,16.2A2.5,2.5,0,0,1,.6,13.7V1A.6.6,0,0,1,1.2.4H6.6a.6.6,0,0,1,.6.6v.6h9.2a.6.6,0,0,1,.6.6V4.5h1.8a.6.6,0,0,1,.6.6v8.2a2.9,2.9,0,0,1-2.7,3ZM5.1,15H16.7a1.7,1.7,0,0,0,1.5-1.8V5.7H5.4v8.2A2.4,2.4,0,0,1,5.1,15ZM1.8,1.6V13.7A1.3,1.3,0,0,0,3,15a1.3,1.3,0,0,0,1.2-1.2V5.1a.6.6,0,0,1,.6-.6h11V2.8H6.6A.6.6,0,0,1,6,2.2V1.6Z"/>
</svg>
