<?xml version="1.0" encoding="utf-8"?>
<svg xmlns="http://www.w3.org/2000/svg" viewBox="0 0 20 20">
    <title>flame</title>
    <path d="M10.2,19.6A6.4,6.4,0,0,1,6.4,8H7a.6.6,0,0,1,.4.4h0a8,8,0,0,0,.4,1.4,8.1,8.1,0,0,0-.5-8.5A.6.6,0,0,1,7.9.4c6.1,2.4,9.2,9.2,8.3,14.1A5.8,5.8,0,0,1,10.2,19.6ZM6.4,9.6a5.2,5.2,0,0,0,3.8,8.8A4.6,4.6,0,0,0,15,14.3c.7-3.9-1.4-9.3-5.8-11.9,1.3,3,.9,6.8-1,8.9l-.5.2-.4-.2A4.3,4.3,0,0,1,6.4,9.6Z"/>
    <path d="M10.5,12c.8,1.4-1.2,3.4-2.3,3.1a2,2,0,0,0,1.9,1.6,2,2,0,0,0,2-2C12.1,13.5,11.7,12,10.5,12Z"/>
</svg>
