<?xml version="1.0" encoding="utf-8"?>
<svg xmlns="http://www.w3.org/2000/svg" viewBox="0 0 20 20">
    <title>funnel</title>
    <path d="M16.7,1h.2a1.1,1.1,0,0,1,.7,1.4A6.6,6.6,0,0,1,17,3.7l-4.7,7.4a.6.6,0,0,0-.1.3c0,1.3,0,2.6,0,3.9a1.9,1.9,0,0,1-.6,1.5l-2.3,2a.9.9,0,0,1-1.5-.4,1.4,1.4,0,0,1-.1-.4c0-2.2,0-4.3,0-6.5a.7.7,0,0,0-.1-.3L2.8,3.4l-.4-.9a1.1,1.1,0,0,1,.7-1.5H16.7ZM9.2,17h.2l1.2-1a.7.7,0,0,0,.3-.6c0-1.3,0-2.6,0-4a1.5,1.5,0,0,1,.3-.9L16,2.6V2.4H3.9v.2L5.8,5.5l3.1,4.9a1.6,1.6,0,0,1,.3.9c0,1.8,0,3.6,0,5.5Z"/>
</svg>
