<?xml version="1.0" encoding="utf-8"?>
<svg xmlns="http://www.w3.org/2000/svg" viewBox="0 0 20 20">
    <title>gear</title>
    <path d="M11.8,19.5H8.2a1.1,1.1,0,0,1-1.1-.9l-.3-2-1-.6L4,16.7a1.1,1.1,0,0,1-1.3-.5L.9,13.2a1.1,1.1,0,0,1,.3-1.4l1.6-1.3c0-.2,0-.4,0-.6s0-.4,0-.6L1.1,8.2A1.1,1.1,0,0,1,.9,6.8L2.7,3.7A1.1,1.1,0,0,1,4,3.2L5.9,4l1-.6.3-2A1.1,1.1,0,0,1,8.2.5h3.5a1.1,1.1,0,0,1,1.1.9l.3,2,1,.6L16,3.3a1.1,1.1,0,0,1,1.3.5l1.8,3.1a1.1,1.1,0,0,1-.3,1.4L17.3,9.4c0,.2,0,.4,0,.6s0,.4,0,.6l1.6,1.3a1.1,1.1,0,0,1,.3,1.4l-1.8,3.1a1.1,1.1,0,0,1-1.3.5L14.1,16l-1,.6-.3,2A1.1,1.1,0,0,1,11.8,19.5ZM8.4,18.2h3.2l.4-2.5h.3l1.4-.8.3-.2,2.4,1L18,12.7l-2-1.6v-.4a5.4,5.4,0,0,0,0-1.6V8.9l2-1.6L16.3,4.5l-2.4,1-.3-.2-1.4-.8H12l-.4-2.5H8.4L8,4.3H7.7l-1.4.8-.3.2-2.4-1L2,7.3l2,1.6v.4a5.4,5.4,0,0,0,0,1.6v.4L2,12.7l1.6,2.8,2.4-1,.3.2,1.4.8H8ZM10,13.7A3.7,3.7,0,1,1,13.7,10,3.7,3.7,0,0,1,10,13.7Zm0-6.2A2.5,2.5,0,1,0,12.5,10,2.5,2.5,0,0,0,10,7.5Z"/>
</svg>
