<?xml version="1.0" encoding="utf-8"?>
<svg xmlns="http://www.w3.org/2000/svg" viewBox="0 0 20 20">
    <title>globe</title>
    <path d="M10,.4H9.6A9.3,9.3,0,0,0,.4,9.8,9.6,9.6,0,0,0,10,19.6,9.6,9.6,0,1,0,10,.4Zm8.4,9.3h-4a12.4,12.4,0,0,0-.4-3.2h3.6A8.3,8.3,0,0,1,18.4,9.8ZM17.1,5.4H13.7a13.4,13.4,0,0,0-2-3.7A8.5,8.5,0,0,1,17.1,5.4ZM6.6,9.8a11.1,11.1,0,0,1,.4-3.2H13a11.2,11.2,0,0,1,.4,3.2Zm6.7,1.1a13.4,13.4,0,0,1-.8,3.2h-5a13.4,13.4,0,0,1-.8-3.2ZM9.9,1.6h.3a13,13,0,0,1,2.4,3.9H7.4A13,13,0,0,1,9.9,1.6Zm-1.6.2a13.4,13.4,0,0,0-2,3.7H2.8A8.3,8.3,0,0,1,8.3,1.7ZM2.2,6.5H6a12.4,12.4,0,0,0-.4,3.2h-4A8.3,8.3,0,0,1,2.2,6.5Zm.5,7.6a8.7,8.7,0,0,1-1.1-3.2h4a14.5,14.5,0,0,0,.7,3.2Zm.7,1.1H6.8a19,19,0,0,0,1.7,3.1A8.4,8.4,0,0,1,3.4,15.2ZM10,18.5H9.9A19.3,19.3,0,0,1,8,15.2h4.1a19.4,19.4,0,0,1-1.9,3.2Zm1.6-.2a19,19,0,0,0,1.7-3.1h3.4A8.5,8.5,0,0,1,11.6,18.3Zm5.8-4.2H13.7a14.5,14.5,0,0,0,.7-3.2h4A8.4,8.4,0,0,1,17.4,14.1Z"/>
</svg>
