<?xml version="1.0" encoding="utf-8"?>
<svg xmlns="http://www.w3.org/2000/svg" viewBox="0 0 16 16">
    <title>group</title>
    <g fill="none" fill-rule="evenodd">
<g transform="translate(-1175 -1895)" fill="#626E70">
<g transform="translate(25 1454)">
<g transform="translate(1150 417)">
<g transform="translate(0 24)">
<path d="m7.8082 6.7502c-0.72533 0-1.3151 0.57427-1.3151 1.2796 0 0.70573 0.58978 1.2796 1.3151 1.2796 0.72533 0 1.3151-0.57384 1.3151-1.2796 0-0.7053-0.58978-1.2796-1.3151-1.2796m0 2.9916c-0.97022 0-1.7596-0.768-1.7596-1.712s0.78933-1.712 1.7596-1.712 1.7596 0.768 1.7596 1.712-0.78933 1.712-1.7596 1.712"/>
<path d="m7.8082 0.86486c-0.72533 0-1.3151 0.57427-1.3151 1.2796 0 0.7053 0.58978 1.2796 1.3151 1.2796 0.72533 0 1.3151-0.57427 1.3151-1.2796 0-0.7053-0.58978-1.2796-1.3151-1.2796m0 2.9916c-0.97022 0-1.7596-0.768-1.7596-1.712s0.78933-1.712 1.7596-1.712 1.7596 0.768 1.7596 1.712-0.78933 1.712-1.7596 1.712"/>
<path d="m3.5308 2.5893c-0.33644 0-0.67333 0.12497-0.92978 0.37405-0.51244 0.49903-0.51244 1.3107 0 1.8097 0.51333 0.49903 1.3471 0.49859 1.86 0 0.51244-0.49903 0.51244-1.3107 0-1.8097-0.25644-0.24908-0.59333-0.37405-0.93022-0.37405m4.4444e-4 2.9903c-0.45111 0-0.90133-0.16692-1.2444-0.50076-0.68622-0.66768-0.68622-1.7535 0-2.4212 0.68578-0.66724 1.8027-0.66811 2.4884 0 0.68622 0.66768 0.68622 1.7535 0 2.4212-0.34311 0.33384-0.79333 0.50076-1.244 0.50076"/>
<path d="m1.7596 6.7502c-0.72533 0-1.3151 0.57427-1.3151 1.2796 0 0.70573 0.58978 1.2796 1.3151 1.2796 0.72533 0 1.3151-0.57384 1.3151-1.2796 0-0.7053-0.58978-1.2796-1.3151-1.2796m0 2.9916c-0.97022 0-1.7596-0.768-1.7596-1.712s0.78933-1.712 1.7596-1.712c0.97022 0 1.7596 0.768 1.7596 1.712s-0.78933 1.712-1.7596 1.712"/>
<path d="m3.5308 10.912c-0.33644 0-0.67333 0.12454-0.92978 0.37405-0.51244 0.49903-0.51244 1.3107 0 1.8097 0.51333 0.49946 1.3471 0.49903 1.86 0 0.51244-0.49903 0.51244-1.3107 0-1.8097-0.25644-0.24951-0.59333-0.37405-0.93022-0.37405m4.4444e-4 2.9898c-0.45111 0-0.90133-0.16692-1.2444-0.50032-0.68622-0.66768-0.68622-1.7535 0-2.4212 0.68578-0.66681 1.8027-0.66768 2.4884 0 0.68622 0.66768 0.68622 1.7535 0 2.4212-0.34311 0.33341-0.79333 0.50032-1.244 0.50032"/>
<path d="m7.8082 12.635c-0.72533 0-1.3151 0.57384-1.3151 1.2796s0.58978 1.2796 1.3151 1.2796c0.72533 0 1.3151-0.57384 1.3151-1.2796s-0.58978-1.2796-1.3151-1.2796m0 2.9916c-0.97022 0-1.7596-0.768-1.7596-1.712s0.78933-1.712 1.7596-1.712 1.7596 0.768 1.7596 1.712-0.78933 1.712-1.7596 1.712"/>
<path d="m12.086 10.912c-0.33689 0-0.67378 0.12454-0.93022 0.37405-0.51244 0.49903-0.51244 1.3107 0 1.8097 0.51333 0.49859 1.3467 0.49946 1.86 0 0.51244-0.49903 0.51244-1.3107 0-1.8097-0.25644-0.24951-0.59333-0.37405-0.92978-0.37405m-4.444e-4 2.9898c-0.45067 0-0.90089-0.16692-1.244-0.50032-0.68622-0.66768-0.68622-1.7535 0-2.4212 0.68578-0.66768 1.8027-0.66724 2.4884 0 0.68622 0.66768 0.68622 1.7535 0 2.4212-0.34311 0.33341-0.79333 0.50032-1.2444 0.50032"/>
<path d="m13.857 6.7502c-0.72533 0-1.3151 0.57427-1.3151 1.2796 0 0.70573 0.58978 1.2796 1.3151 1.2796 0.72533 0 1.3151-0.57384 1.3151-1.2796 0-0.7053-0.58978-1.2796-1.3151-1.2796m0 2.9916c-0.97022 0-1.7596-0.768-1.7596-1.712s0.78933-1.712 1.7596-1.712c0.97022 0 1.7596 0.768 1.7596 1.712s-0.78933 1.712-1.7596 1.712"/>
<path d="m12.086 2.5893c-0.33689 0-0.67378 0.12497-0.93022 0.37405-0.51244 0.49903-0.51244 1.3107 0 1.8097 0.51333 0.49859 1.3467 0.49903 1.86 0 0.51244-0.49903 0.51244-1.3107 0-1.8097-0.25644-0.24908-0.59333-0.37405-0.92978-0.37405m-4.444e-4 2.9903c-0.45067 0-0.90089-0.16692-1.244-0.50076-0.68622-0.66768-0.68622-1.7535 0-2.4212 0.68578-0.66811 1.8027-0.66724 2.4884 0 0.68622 0.66768 0.68622 1.7535 0 2.4212-0.34311 0.33384-0.79333 0.50076-1.2444 0.50076"/>
</g>
</g>
</g>
</g>
</g>
</svg>
