<?xml version="1.0" encoding="utf-8"?>
<svg xmlns="http://www.w3.org/2000/svg" viewBox="0 0 20 20">
    <title>help</title>
    <path d="M9.2,11.4V11a1.9,1.9,0,0,1,.2-1,3.1,3.1,0,0,1,.9-.9l.8-.7a1,1,0,0,0,.2-.6.6.6,0,0,0-.3-.6l-.8-.2a4.4,4.4,0,0,0-2,.6L7.6,6.4a5.4,5.4,0,0,1,2.7-.7,2.9,2.9,0,0,1,1.9.6,1.8,1.8,0,0,1,.7,1.5,2,2,0,0,1-.3,1.1,4.1,4.1,0,0,1-1.1,1l-.7.6a1,1,0,0,0-.1.6v.3Zm-.2,2a1,1,0,0,1,.3-.7,1,1,0,0,1,.7-.2,1,1,0,0,1,.7.3,1.1,1.1,0,0,1,0,1.4,1,1,0,0,1-.7.3,1,1,0,0,1-.7-.3A1,1,0,0,1,9,13.3Z"/>
    <path d="M10,19.6A9.6,9.6,0,1,1,19.6,10,9.6,9.6,0,0,1,10,19.6Zm0-18A8.4,8.4,0,1,0,18.4,10,8.4,8.4,0,0,0,10,1.6Z"/>
</svg>
