<?xml version="1.0" encoding="utf-8"?>
<svg xmlns="http://www.w3.org/2000/svg" viewBox="0 0 32.5 32.5">
    <title>patch</title>
    <path d="M26.59,16.26l4.87-4.86a3.65,3.65,0,0,0,0-5.14l-5.2-5.2a3.64,3.64,0,0,0-5.13,0L16.26,5.93,11.39,1.06a3.64,3.64,0,0,0-5.13,0l-5.2,5.2a3.65,3.65,0,0,0,0,5.14l4.87,4.86L1.06,21.13a3.64,3.64,0,0,0,0,5.13l5.2,5.2a3.66,3.66,0,0,0,2.57,1.06,3.62,3.62,0,0,0,2.56-1.06l4.87-4.87,4.87,4.87a3.62,3.62,0,0,0,2.56,1.06,3.66,3.66,0,0,0,2.57-1.06l5.2-5.2a3.64,3.64,0,0,0,0-5.13ZM17.68,7.35l4.86-4.87a1.62,1.62,0,0,1,2.3,0L30,7.68A1.62,1.62,0,0,1,30,10l-4.86,4.87ZM7.68,30l-5.2-5.2a1.62,1.62,0,0,1,0-2.3l4.86-4.86,7.5,7.5L10,30A1.62,1.62,0,0,1,7.68,30ZM30,24.84L24.84,30a1.62,1.62,0,0,1-2.3,0l-4.86-4.86L17,24.47l-0.71-.71-7.5-7.5L8,15.55l-0.7-.7L2.48,10a1.62,1.62,0,0,1,0-2.3l5.2-5.2a1.62,1.62,0,0,1,2.3,0l4.87,4.87L15.55,8l0.71,0.71,7.5,7.5L24.47,17l0.71,0.71L30,22.54A1.62,1.62,0,0,1,30,24.84Z" transform="translate(0)"/>
    <path d="M16.24,14.88a1.23,1.23,0,1,0,0-2.46h0a1.22,1.22,0,0,0-.87.36A1.23,1.23,0,0,0,16.24,14.88Z" transform="translate(0)"/>
    <path d="M13.65,15h0a1.23,1.23,0,0,0,0,2.46,1.32,1.32,0,0,0,.87-0.36A1.23,1.23,0,0,0,13.65,15Z" transform="translate(0)"/>
    <path d="M19.73,15.39A1.22,1.22,0,0,0,18.86,15h0a1.23,1.23,0,0,0,0,2.46h0A1.23,1.23,0,0,0,19.73,15.39Z" transform="translate(0)"/>
    <path d="M15.4,18a1.23,1.23,0,0,0,.87,2.1h0a1.22,1.22,0,0,0,.87-0.36A1.23,1.23,0,1,0,15.4,18Z" transform="translate(0)"/>
</svg>
