<svg xmlns="http://www.w3.org/2000/svg" viewBox="0 0 20 20">
    <title>juno-tasks</title>
    <rect x="2.4" y="1.5" width="15" height="17" rx="2.1" ry="2.1" fill="#fff"/>
    <g opacity="0.15">
        <path d="M15.3,1.5a2.1,2.1,0,0,1,2.1,2.1V16.4a2.1,2.1,0,0,1-2.1,2.1H4.6a2.1,2.1,0,0,1-2.1-2.1V3.6A2.1,2.1,0,0,1,4.6,1.5H15.3m0-1H4.6A3.1,3.1,0,0,0,1.4,3.6V16.4a3.1,3.1,0,0,0,3.1,3.1H15.3a3.1,3.1,0,0,0,3.1-3.1V3.6A3.1,3.1,0,0,0,15.3.5Z" fill="#222"/>
    </g>
    <path d="M4.4,1.5h11a2,2,0,0,1,2,2V5.6a0,0,0,0,1,0,0H2.4a0,0,0,0,1,0,0V3.5A2,2,0,0,1,4.4,1.5Z" fill="#f6931e"/>
    <path d="M14.1,14.2H10.6a.6.6,0,0,1,0-1.2h3.6a.6.6,0,0,1,0,1.2Z" fill="#231f20"/>
    <path d="M14.1,9.9H10.6a.6.6,0,0,1,0-1.2h3.6a.6.6,0,0,1,0,1.2Z" fill="#231f20"/>
    <path d="M6.6,11.1,4.9,9.8a.5.5,0,0,1-.1-.7.6.6,0,0,1,.8-.1l.7.5.9-1.5a.6.6,0,0,1,.7-.2.5.5,0,0,1,.2.7Z" fill="#231f20"/>
    <path d="M6.6,15.3,4.9,14a.5.5,0,0,1-.1-.7.6.6,0,0,1,.8-.1l.7.5.9-1.5a.6.6,0,0,1,.7-.2.5.5,0,0,1,.2.7Z" fill="#231f20"/>
</svg>
