<?xml version="1.0" encoding="utf-8"?>
<svg xmlns="http://www.w3.org/2000/svg" viewBox="0 0 9.6 9.7">
<title>juno-alert</title>
<g>
  <polygon
   fill="none"
   stroke="#FFFFFF"
   stroke-width="0.5625"
   stroke-linejoin="round"
   stroke-miterlimit="10"
   points="2.8,9.5 6.8,9.5 4.8,5.6"
  />
  <line
   fill="none"
   stroke="#FFFFFF"
   stroke-width="0.5625"
   stroke-linecap="round"
   stroke-linejoin="round"
   stroke-miterlimit="10"
   x1="4.8"
   y1="5.6"
   x2="4.8"
   y2="4.8"
  />
  <line
   fill="none"
   stroke="#FFFFFF"
   stroke-width="0.5625"
   stroke-linejoin="round"
   stroke-miterlimit="10"
   x1="2.8"
   y1="9.5"
   x2="5.9"
   y2="7.6"
  />
  <line
   fill="none"
   stroke="#FFFFFF"
   stroke-width="0.5625"
   stroke-linejoin="round"
   stroke-miterlimit="10"
   x1="6.8"
   y1="9.5"
   x2="3.7"
   y2="7.6"
  />
  <line
   fill="none"
   stroke="#FFFFFF"
   stroke-width="0.5625"
   stroke-linejoin="round"
   stroke-miterlimit="10"
   x1="4.1"
   y1="7"
   x2="5.5"
   y2="7"
  />
  <path
   fill="none"
   stroke="#FFFFFF"
   stroke-width="0.9"
   stroke-linecap="round"
   stroke-miterlimit="10"
   d="M2,8.1c-0.9-0.8-1.5-2-1.5-3.3c0-2.4,1.9-4.3,4.3-4.3s4.3,1.9,4.3,4.3c0,1.3-0.6,2.5-1.5,3.3"
  />
  <path
   fill="none"
   stroke="#FFFFFF"
   stroke-width="0.7312"
   stroke-linecap="round"
   stroke-miterlimit="10"
   d="M2.5,6.4C2.2,5.9,2,5.4,2,4.8C2,3.3,3.3,2,4.8,2s2.8,1.3,2.8,2.8c0,0.6-0.2,1.1-0.5,1.6"
  />
  <path
   fill="none"
   stroke="#FFFFFF"
   stroke-width="0.5625"
   stroke-linecap="round"
   stroke-miterlimit="10"
   d="M3.6,5.1c0-0.1,0-0.2,0-0.3c0-0.7,0.6-1.2,1.2-1.2C5.5,3.6,6,4.1,6,4.8C6,4.9,6,5,6,5.1"
  />
</g>
</svg>
