<?xml version="1.0" encoding="utf-8"?>
<svg xmlns="http://www.w3.org/2000/svg" viewBox="0 0 20 20">
    <title>keyhole</title>
    <path d="M10,19.6A9.6,9.6,0,1,1,19.6,10,9.6,9.6,0,0,1,10,19.6Zm0-18A8.4,8.4,0,1,0,18.4,10,8.4,8.4,0,0,0,10,1.6Z"/>
    <path d="M12.8,16.5H7.5l-.5-.2a.6.6,0,0,1-.1-.5l1.2-5.5A3.4,3.4,0,0,1,6.6,7.5a3.4,3.4,0,0,1,6.8,0,3.4,3.4,0,0,1-1.5,2.8l1.4,5.5a.6.6,0,0,1-.1.5ZM8.3,15.3H12l-1.4-5.1a.6.6,0,0,1,.3-.7,2.2,2.2,0,0,0,1.2-2,2.2,2.2,0,0,0-4.4,0A2.2,2.2,0,0,0,9,9.5a.6.6,0,0,1,.3.7Z"/>
</svg>
