<?xml version="1.0" encoding="utf-8"?>
<svg xmlns="http://www.w3.org/2000/svg" viewBox="0 0 20 20">
    <title>laptop</title>
    <path d="M16,13.8H4a.5.5,0,0,1-.5-.5v-9A.5.5,0,0,1,4,3.8H16a.5.5,0,0,1,.5.5v9A.5.5,0,0,1,16,13.8Zm-11.5-1h11v-8H4.5Z"/>
    <path d="M18.2,15.9a.6.6,0,0,1-.6-.6V3.5a.6.6,0,0,0-.6-.6H3a.6.6,0,0,0-.6.6V15.3a.6.6,0,0,1-1.2,0V3.5A1.8,1.8,0,0,1,3,1.6H17a1.8,1.8,0,0,1,1.8,1.8V15.3A.6.6,0,0,1,18.2,15.9Z"/>
    <path d="M18.2,18.4H1.8A1.4,1.4,0,0,1,.4,17V15.3a.6.6,0,0,1,.6-.6H8.4a.6.6,0,0,1,.6.6v.2H11v-.2a.6.6,0,0,1,.6-.6H19a.6.6,0,0,1,.6.6V17A1.4,1.4,0,0,1,18.2,18.4ZM1.6,15.9v1a.2.2,0,0,0,.2.2H18.2a.2.2,0,0,0,.2-.2v-1H12.2v.2a.6.6,0,0,1-.6.6H8.4a.6.6,0,0,1-.6-.6v-.2Z"/>
</svg>
