<?xml version="1.0" encoding="utf-8"?>
<svg xmlns="http://www.w3.org/2000/svg" viewBox="0 0 20 20">
    <title>link</title>
    <path d="M4.8,19.5a3.6,3.6,0,0,1-2.6-1.1l-.8-.8a3.9,3.9,0,0,1,0-5.4L5.9,7.9A3.6,3.6,0,0,1,8.8,6.8a6.5,6.5,0,0,1,4.4,2.6.7.7,0,0,1-1,.8,5.3,5.3,0,0,0-3.4-2,2.3,2.3,0,0,0-1.9.7L2.4,13.2a2.6,2.6,0,0,0,0,3.5l.8.8a2.3,2.3,0,0,0,1.8.7,3.4,3.4,0,0,0,2.2-1.1l3.2-3.2a.7.7,0,0,1,.9.9L8,18.1a4.6,4.6,0,0,1-3,1.4Z"/>
    <path d="M11.9,13.1h-.4a5.9,5.9,0,0,1-3.9-2.1.6.6,0,0,1,1.1-.7,4.8,4.8,0,0,0,2.9,1.6,1.4,1.4,0,0,0,1.1-.3l4.9-4.9a2.2,2.2,0,0,0,.7-1.6,2.2,2.2,0,0,0-.7-1.6l-.8-.8A3.2,3.2,0,0,0,15,1.8a2,2,0,0,0-1.7.5L9.7,5.9A.7.7,0,1,1,8.7,5l3.6-3.6A3.3,3.3,0,0,1,15.1.5a4.6,4.6,0,0,1,2.6,1.3l.8.8a3.5,3.5,0,0,1,1.1,2.5,3.5,3.5,0,0,1-1.1,2.5l-4.9,4.9A2.4,2.4,0,0,1,11.9,13.1Z"/>
</svg>
