<?xml version="1.0" encoding="utf-8"?>
<!-- Generator: Adobe Illustrator 19.2.1, SVG Export Plug-In . SVG Version: 6.00 Build 0)  -->
<svg xmlns="http://www.w3.org/2000/svg" viewBox="0 0 200 200" fill="#03A9F4">
    <g>
        <path d="M101.5,184.4L101.5,184.4c-4.1,0-7.5-3.3-7.5-7.5V150c0-4.1,3.3-7.5,7.5-7.5h0c4.1,0,7.5,3.3,7.5,7.5V177C109,181.1,105.6,184.4,101.5,184.4z" opacity="0.6"/>
        <path d="M98,54.4L98,54.4c-4.1,0-7.5-3.3-7.5-7.5V20c0-4.1,3.3-7.5,7.5-7.5h0c4.1,0,7.5,3.3,7.5,7.5v26.9C105.5,51.1,102.2,54.4,98,54.4z" opacity="0.12"/>
        <path d="M55.6,23.9L55.6,23.9c3.6-2.1,8.1-0.8,10.2,2.7L79.3,50c2.1,3.6,0.8,8.1-2.7,10.2l0,0c-3.6,2.1-8.1,0.8-10.2-2.7L52.9,34.1C50.8,30.5,52.1,26,55.6,23.9z" opacity="0.2"/>
        <path d="M119.5,134.6L119.5,134.6c3.6-2.1,8.1-0.8,10.2,2.7l13.5,23.3c2.1,3.6,0.8,8.1-2.7,10.2h0c-3.6,2.1-8.1,0.8-10.2-2.7l-13.5-23.3C114.7,141.2,116,136.7,119.5,134.6z" opacity="0.68"/>
        <path d="M171.5,139.8L171.5,139.8c-2.1,3.6-6.6,4.8-10.2,2.7L138,129.1c-3.6-2.1-4.8-6.6-2.7-10.2l0,0c2.1-3.6,6.6-4.8,10.2-2.7l23.3,13.5C172.4,131.7,173.6,136.2,171.5,139.8z" opacity="0.76"/>
        <path d="M60.8,75.9L60.8,75.9c-2.1,3.6-6.6,4.8-10.2,2.7L27.3,65.2c-3.6-2.1-4.8-6.6-2.7-10.2l0,0c2.1-3.6,6.6-4.8,10.2-2.7l23.3,13.5C61.7,67.7,62.9,72.3,60.8,75.9z" opacity="0.28"/>
        <path d="M13.2,97.4L13.2,97.4c0-4.1,3.3-7.5,7.5-7.5h26.9c4.1,0,7.5,3.3,7.5,7.5v0c0,4.1-3.3,7.5-7.5,7.5H20.7C16.6,104.8,13.2,101.5,13.2,97.4z" opacity="0.36"/>
        <path d="M141,97.4L141,97.4c0-4.1,3.3-7.5,7.5-7.5h26.9c4.1,0,7.5,3.3,7.5,7.5v0c0,4.1-3.3,7.5-7.5,7.5h-26.9C144.4,104.8,141,101.5,141,97.4z" opacity="0.84"/>
        <path d="M171.5,55L171.5,55c2.1,3.6,0.8,8.1-2.7,10.2l-23.3,13.5c-3.6,2.1-8.1,0.8-10.2-2.7l0,0c-2.1-3.6-0.8-8.1,2.7-10.2l23.3-13.5C164.9,50.2,169.5,51.4,171.5,55z" opacity="0.92"/>
        <path d="M60.8,118.9L60.8,118.9c2.1,3.6,0.8,8.1-2.7,10.2l-23.3,13.5c-3.6,2.1-8.1,0.8-10.2-2.7l0,0c-2.1-3.6-0.8-8.1,2.7-10.2l23.3-13.5C54.2,114.1,58.8,115.3,60.8,118.9z" opacity="0.44"/>
        <path d="M55.6,170.9L55.6,170.9c-3.6-2.1-4.8-6.6-2.7-10.2l13.5-23.3c2.1-3.6,6.6-4.8,10.2-2.7l0,0c3.6,2.1,4.8,6.6,2.7,10.2l-13.5,23.3C63.8,171.7,59.2,172.9,55.6,170.9z" opacity="0.52"/>
        <path d="M117.6,60.9L117.6,60.9c-3.6-2.1-4.8-6.6-2.7-10.2l13.5-23.3c2.1-3.6,6.6-4.8,10.2-2.7l0,0c3.6,2.1,4.8,6.6,2.7,10.2l-13.5,23.3C125.8,61.7,121.2,62.9,117.6,60.9z"/>
    </g>
</svg>
