<svg xmlns="http://www.w3.org/2000/svg" viewBox="0 0 11.07 15">
  <title>lock-close</title>
  <path d="M11.06,6.72a.57.57,0,0,0-.57-.46H9.56V6.2c0-.71,0-1.43,0-2.14A4,4,0,0,0,6.48.11,3.76,3.76,0,0,0,5.69,0H5.44L5.2,0A3.94,3.94,0,0,0,3,.88a4,4,0,0,0-1.45,2.4A3.86,3.86,0,0,0,1.51,4c0,1.08,0,1.78,0,2.22H.62a.61.61,0,0,0-.42.15A.56.56,0,0,0,0,6.83q0,.41,0,.83,0,2.93,0,5.87a1.42,1.42,0,0,0,.47,1.08,1.41,1.41,0,0,0,1,.39H9.6a1.42,1.42,0,0,0,1.07-.46,1.4,1.4,0,0,0,.39-.86v-7Zm-8.4-.88c0-.5,0-1.12,0-1.81a2.68,2.68,0,0,1,.18-1A2.85,2.85,0,0,1,4.16,1.51a2.71,2.71,0,0,1,1.11-.34,2.79,2.79,0,0,1,2.15.69,2.78,2.78,0,0,1,1,1.76,3.55,3.55,0,0,1,0,.48c0,.7,0,1.39,0,2.09v.06H2.65C2.65,6.13,2.66,6,2.66,5.84ZM9.91,7.47q0,3,0,6.06a.29.29,0,0,1-.22.31H1.45a.29.29,0,0,1-.29-.29s0,0,0,0V7.42H9.91Z"/>
  <polygon points="7.79 9.53 7.24 8.98 5.04 11.17 3.83 9.96 3.28 10.51 5.04 12.28 7.79 9.53"/>
</svg>