<?xml version="1.0" encoding="utf-8"?>
<svg xmlns="http://www.w3.org/2000/svg" viewBox="0 0 20 20">
    <title>lock</title>
    <path d="M16.5,19.6H3.5A1.6,1.6,0,0,1,2,18V9.1A1.6,1.6,0,0,1,3.5,7.5h.8v-1A6.2,6.2,0,0,1,6.2,2,5.5,5.5,0,0,1,10.6.4a6.1,6.1,0,0,1,5.1,6.3v.8h.8A1.6,1.6,0,0,1,18,9.1V18A1.6,1.6,0,0,1,16.5,19.6ZM3.5,8.7a.4.4,0,0,0-.4.4V18a.4.4,0,0,0,.4.4h13a.4.4,0,0,0,.4-.4V9.1a.4.4,0,0,0-.4-.4H14.6v-2a4.9,4.9,0,0,0-4.1-5.1A4.4,4.4,0,0,0,6.9,2.9,5,5,0,0,0,5.4,6.4V8.7Zm10-.2H6.4v-2A3.7,3.7,0,0,1,10,2.7a3.7,3.7,0,0,1,3.6,3.8Zm-6-1.2h4.8V6.4A2.5,2.5,0,0,0,10,3.9,2.5,2.5,0,0,0,7.6,6.4Z"/>
    <path d="M10,15.8a1.3,1.3,0,0,1-1.3-1.3v-2a1.3,1.3,0,1,1,2.5,0v2A1.3,1.3,0,0,1,10,15.8Z"/>
</svg>
