<svg xmlns="http://www.w3.org/2000/svg" viewBox="0 0 11.07 15">
    <title>lock-open</title>
    <path d="M5.44,0h.25a3.75,3.75,0,0,1,.79.11A4,4,0,0,1,9.56,4.06c0,.71,0,1.43,0,2.14v.06h.92a.57.57,0,0,1,.57.46v7a1.4,1.4,0,0,1-.39.86A1.42,1.42,0,0,1,9.6,15H1.42a1.41,1.41,0,0,1-1-.39A1.42,1.42,0,0,1,0,13.53Q0,10.6,0,7.66q0-.41,0-.83A.56.56,0,0,1,.19,6.4a.61.61,0,0,1,.42-.15H8.4s0,0,0-.06c0-.7,0-1.39,0-2.09a3.55,3.55,0,0,0,0-.48,2.78,2.78,0,0,0-1-1.76,2.79,2.79,0,0,0-2.15-.69,2.71,2.71,0,0,0-1.11.34A2.85,2.85,0,0,0,2.85,3a2.68,2.68,0,0,0-.18,1A.58.58,0,1,1,1.51,4a3.27,3.27,0,0,1,.07-.75A4,4,0,0,1,3,.88,3.94,3.94,0,0,1,5.2,0ZM1.16,7.42v.06q0,3,0,6s0,0,0,0a.29.29,0,0,0,.29.29H9.69a.29.29,0,0,0,.22-.31q0-3,0-6.06v0Z"/>
    <polyline points="7.23 9.59 6.1 10.71 7.23 11.85 6.67 12.41 5.54 11.28 4.41 12.41 3.84 11.85 4.97 10.71 3.84 9.59 4.41 9.02 5.54 10.15 6.67 9.02"/>
</svg>