<?xml version="1.0" encoding="utf-8"?>
<svg xmlns="http://www.w3.org/2000/svg" viewBox="0 0 18.65 18.59">
    <title>logmein-corrupted</title>
    <g fill="#1173bd">
        <path d="M51.39,36.65a2.56,2.56,0,0,1,5.13,0,2.59,2.59,0,0,1-2.6,2.53A2.61,2.61,0,0,1,51.39,36.65Z" transform="translate(-40.98 -28.34)"/>
        <path d="M46.63,36.4a1.82,1.82,0,1,1,1.81,1.84A1.89,1.89,0,0,1,46.63,36.4Z" transform="translate(-40.98 -28.34)"/>
        <path d="M45.14,39.62A1.18,1.18,0,0,1,44,38.54a1.09,1.09,0,1,1,2.18,0A1.12,1.12,0,0,1,45.14,39.62Z" transform="translate(-40.98 -28.34)"/>
        <path d="M50,28.34a9,9,0,1,0,0,18c0.24,0,.47,0,0.7,0a0.52,0.52,0,0,0,.53-0.53,0.49,0.49,0,0,0-.53-0.59c-0.23,0-.46,0-0.7,0a7.88,7.88,0,1,1,7.88-7.88,7.63,7.63,0,0,1-.55,2.87,0.51,0.51,0,0,0,.19.68,0.6,0.6,0,0,0,.77-0.06A8.81,8.81,0,0,0,59,37.34,9,9,0,0,0,50,28.34Z" transform="translate(-40.98 -28.34)"/>
    </g>
    <g fill="#b61b28">
        <path d="M59.28,45.51l-1.83-3.16-0.64-1.09-0.56-1a0.77,0.77,0,0,0-.68-0.39,0.75,0.75,0,0,0-.67.39l-2.67,4.61-0.36.62a0.76,0.76,0,0,0-.06.64,0.36,0.36,0,0,0,.06.14,0.75,0.75,0,0,0,.67.39H58.6a0.76,0.76,0,0,0,.68-0.39A0.78,0.78,0,0,0,59.28,45.51ZM58.87,46a0.31,0.31,0,0,1-.27.15H52.54A0.3,0.3,0,0,1,52.28,46a0.28,0.28,0,0,1,0-.3l0.64-1.1,2.39-4.13a0.3,0.3,0,0,1,.53,0l0.69,1.19,0.62,1.06,1.72,3A0.3,0.3,0,0,1,58.87,46Z" transform="translate(-40.98 -28.34)"/>
        <path d="M59.49,45.39L57.6,42.12,57,41l-0.49-.85a1,1,0,0,0-.89-0.51,1,1,0,0,0-.89.51L51.88,45l-0.23.4a1,1,0,0,0-.08.81,0.58,0.58,0,0,0,.08.22,1,1,0,0,0,.89.51H58.6A1,1,0,0,0,59.49,45.39Zm-0.89.56H52.54l0-.07,0.81-1.4,2.22-3.84a0,0,0,0,1,0,0L56.36,42,57,43l1.68,2.88,0.22-.13Z" transform="translate(-40.98 -28.34)"/>
    </g>
    <path fill="#b61b28" d="M55.17,45.12a0.39,0.39,0,0,1,.1-0.29,0.42,0.42,0,0,1,.3-0.1,0.41,0.41,0,0,1,.3.1,0.45,0.45,0,0,1,0,.58,0.4,0.4,0,0,1-.3.11,0.42,0.42,0,0,1-.3-0.1A0.39,0.39,0,0,1,55.17,45.12Zm0.69-.79H55.3l-0.12-2.27H56Z" transform="translate(-40.98 -28.34)"/>
</svg>
