<?xml version="1.0" encoding="utf-8"?>
<svg xmlns="http://www.w3.org/2000/svg" viewBox="0 0 20 20">
    <title>logmein</title>
    <path d="M11.5,9.3a2.7,2.7,0,0,1,5.5,0A2.8,2.8,0,0,1,14.2,12,2.8,2.8,0,0,1,11.5,9.3Z"/>
    <path d="M6.4,9a2,2,0,0,1,2-2,2,2,0,0,1,1.9,2,2,2,0,0,1-2,2A2,2,0,0,1,6.4,9Z"/>
    <path d="M4.8,12.4a1.3,1.3,0,0,1-1.2-1.1,1.2,1.2,0,0,1,1.2-1.2A1.2,1.2,0,0,1,6,11.3,1.2,1.2,0,0,1,4.8,12.4Z"/>
    <path d="M10,19.6A9.6,9.6,0,1,1,19.6,10,9.6,9.6,0,0,1,10,19.6Zm0-18A8.4,8.4,0,1,0,18.4,10,8.4,8.4,0,0,0,10,1.6Z"/>
</svg>
