<?xml version="1.0" encoding="utf-8"?>
<svg xmlns="http://www.w3.org/2000/svg" viewBox="0 0 18 18.5">
    <title>logmein-installing</title>
    <g fill="#626e70">
        <path d="M93.43,37.32a2.56,2.56,0,0,1,5.13,0A2.59,2.59,0,0,1,96,39.88,2.61,2.61,0,0,1,93.43,37.32Z" transform="translate(-83.02 -29.01)"/>
        <path d="M88.67,37.07a1.82,1.82,0,1,1,1.81,1.84A1.89,1.89,0,0,1,88.67,37.07Z" transform="translate(-83.02 -29.01)"/>
        <path d="M87.18,40.29a1.18,1.18,0,0,1-1.09-1.08,1.09,1.09,0,1,1,2.18,0A1.12,1.12,0,0,1,87.18,40.29Z" transform="translate(-83.02 -29.01)"/>
        <path d="M92,29a9,9,0,0,0,0,18,8.34,8.34,0,0,0,1.51-.13,0.58,0.58,0,0,0,.3-0.63,0.47,0.47,0,0,0-.53-0.48,7.59,7.59,0,0,1-1.28.11A7.88,7.88,0,1,1,99.9,38a8,8,0,0,1-.56,2.93,0.53,0.53,0,0,0,.19.64,0.56,0.56,0,0,0,.83-0.23A8.65,8.65,0,0,0,101,38,9,9,0,0,0,92,29Z" transform="translate(-83.02 -29.01)"/>
    </g>
    <g fill="#81d4fa">
        <path d="M99.29,46.25a3,3,0,0,1-1.73,1,2.91,2.91,0,0,1-2.29-.62,2.87,2.87,0,0,1-1-2.13h0.47v0.07a2.29,2.29,0,0,0,1,1.86,2.5,2.5,0,0,0,2.13.27,2.19,2.19,0,0,0,1.41-1.36,2.36,2.36,0,0,0,0-1.09,2.53,2.53,0,0,0-.32-1,2.36,2.36,0,0,0-.77-0.77,2.39,2.39,0,0,0-3,.4L96,42.73a0.2,0.2,0,0,1,.21,0,0.21,0.21,0,0,1,.06.1,0.23,0.23,0,0,1-.16.28l-0.92.25-0.29.08a0.24,0.24,0,0,1-.2,0l0,0a0.16,0.16,0,0,1-.05-0.14l0-1.26a0.23,0.23,0,0,1,.23-0.22,0.22,0.22,0,0,1,.22.23v0.49a2.83,2.83,0,0,1,3.46-.4,3,3,0,0,1,.51.41,2.77,2.77,0,0,1,.59.88,4.05,4.05,0,0,1,.23,1A2.4,2.4,0,0,1,99.29,46.25Z" transform="translate(-83.02 -29.01)"/>
        <path d="M100.08,44.4a4.15,4.15,0,0,0-.25-1.1,4.67,4.67,0,0,0-.23-0.45,4,4,0,0,0-.41-0.51A2.38,2.38,0,0,0,98.8,42l-0.17-.12A3.09,3.09,0,0,0,95.3,42a0.46,0.46,0,0,0-.13-0.28,0.48,0.48,0,0,0-.33-0.15,0.47,0.47,0,0,0-.49.47l0,1.25a0.39,0.39,0,0,0,0,.15,0.46,0.46,0,0,0,.58.32l0.7-.19,0.51-.14a0.49,0.49,0,0,0,.29-0.22,0.45,0.45,0,0,0,0-.36,0.44,0.44,0,0,0-.12-0.21,0.26,0.26,0,0,0-.08-0.07,2.18,2.18,0,0,1,1.86.17l0.13,0.09a2,2,0,0,1,.56.6,1.57,1.57,0,0,1,.15.32,2.6,2.6,0,0,1,.13.55,2.2,2.2,0,0,1,0,1,1.94,1.94,0,0,1-1.25,1.2,2.25,2.25,0,0,1-1.91-.24l-0.06,0a2,2,0,0,1-.71-0.92A1.83,1.83,0,0,1,95,44.51v0s0-.33-0.5-0.33S94,44.48,94,44.48a2.68,2.68,0,0,0,.22,1.08,3.15,3.15,0,0,0,.61,1l0.27,0.25a3.13,3.13,0,0,0,2,.71,2.68,2.68,0,0,0,.49,0,3.14,3.14,0,0,0,1.88-1.06A2.63,2.63,0,0,0,100.08,44.4Z" transform="translate(-83.02 -29.01)"/>
    </g>
</svg>
