<?xml version="1.0" encoding="UTF-8"?>
<svg width="10px" height="16px" viewBox="0 0 10 16" version="1.1" xmlns="http://www.w3.org/2000/svg" xmlns:xlink="http://www.w3.org/1999/xlink">
    <!-- Generator: Sketch 50.2 (55047) - http://www.bohemiancoding.com/sketch -->
    <title>medium/standard</title>
    <desc>Created with Sketch.</desc>
    <defs>
        <polygon id="path-1" points="0 0.60952381 0.914971429 0.60952381 0.914971429 15.2380952 0 15.2380952"></polygon>
        <polygon id="path-3" points="0 0.609596569 9.8993884 0.609596569 9.8993884 9.32678095 0 9.32678095"></polygon>
    </defs>
    <g id="Icons" stroke="none" stroke-width="1" fill="none" fill-rule="evenodd">
        <g transform="translate(-25.000000, -446.000000)" id="Status">
            <g transform="translate(25.000000, 139.000000)">
                <g id="Medium" transform="translate(0.000000, 277.000000)">
                    <g id="medium/standard" transform="translate(0.000000, 30.000000)">
                        <g id="Group-3" transform="translate(0.000000, 0.152381)">
                            <mask id="mask-2" fill="white">
                                <use xlink:href="#path-1"></use>
                            </mask>
                            <g id="Clip-2"></g>
                            <path d="M0.457066667,15.2380952 C0.20487619,15.2380952 -7.61904762e-05,15.0331429 -7.61904762e-05,14.7809524 L-7.61904762e-05,1.06666667 C-7.61904762e-05,0.81447619 0.20487619,0.60952381 0.457066667,0.60952381 C0.709257143,0.60952381 0.914971429,0.81447619 0.914971429,1.06666667 L0.914971429,14.7809524 C0.914971429,15.0331429 0.709257143,15.2380952 0.457066667,15.2380952" id="Fill-1" fill="#626E70" mask="url(#mask-2)"></path>
                        </g>
                        <g id="Group-6" transform="translate(0.000000, 0.152381)">
                            <mask id="mask-4" fill="white">
                                <use xlink:href="#path-3"></use>
                            </mask>
                            <g id="Clip-5"></g>
                            <path d="M0.457066667,9.32678095 C0.370209524,9.32678095 0.283352381,9.3024 0.208685714,9.2536381 C0.0784,9.16906667 -7.61904762e-05,9.02430476 -7.61904762e-05,8.8696381 L-7.61904762e-05,1.06697143 C-7.61904762e-05,0.913828571 0.0768761905,0.770590476 0.204114286,0.686019048 C0.332114286,0.600685714 0.49287619,0.586209524 0.634590476,0.645638095 L9.61973333,4.42849524 C9.78735238,4.49935238 9.89782857,4.6631619 9.89935238,4.84525714 C9.9016381,5.02659048 9.79497143,5.19268571 9.62887619,5.26735238 L0.643733333,9.2871619 C0.584304762,9.31382857 0.520304762,9.32678095 0.457066667,9.32678095" id="Fill-4" fill="#626E70" mask="url(#mask-4)"></path>
                        </g>
                    </g>
                </g>
            </g>
        </g>
    </g>
</svg>