<?xml version="1.0" encoding="utf-8"?>
<svg xmlns="http://www.w3.org/2000/svg" viewBox="0 0 14.23 19.2">
    <title>memory</title>
    <g>
        <path d="M963.23,822.39a0.29,0.29,0,0,1-.32.22h-7.7a0.29,0.29,0,0,1-.32-0.22v-5.2a0.29,0.29,0,0,1,.32-0.22h7.7a0.29,0.29,0,0,1,.32.22v5.2Z" transform="translate(-951.9 -806.57)" />
    </g>
    <path d="M959,807.07v3.16a0.41,0.41,0,1,1-.81,0v-3.16A0.41,0.41,0,1,1,959,807.07Z" transform="translate(-951.9 -806.57)" />
    <path d="M961.33,807.07v3.16a0.41,0.41,0,1,1-.81,0v-3.16A0.41,0.41,0,1,1,961.33,807.07Z" transform="translate(-951.9 -806.57)" />
    <path d="M963.63,807.07v3.16a0.41,0.41,0,1,1-.81,0v-3.16A0.41,0.41,0,1,1,963.63,807.07Z" transform="translate(-951.9 -806.57)" />
    <path d="M951.9,824.87V811.64a0.9,0.9,0,0,1,.26-0.63l4.17-4.17a0.9,0.9,0,0,1,.63-0.26h8.27a0.9,0.9,0,0,1,.9.9v17.41a0.9,0.9,0,0,1-.9.9H952.8A0.9,0.9,0,0,1,951.9,824.87Zm12.55-17.1H957.3a0.48,0.48,0,0,0-.34.14l-3.71,3.71a0.48,0.48,0,0,0-.14.34v12.12a0.48,0.48,0,0,0,.48.48h10.87a0.48,0.48,0,0,0,.48-0.48V808.25A0.48,0.48,0,0,0,964.45,807.77Z" transform="translate(-951.9 -806.57)" />
</svg>
