<?xml version="1.0" encoding="utf-8"?>
<svg xmlns="http://www.w3.org/2000/svg" viewBox="0 0 20 20">
    <title>mobile</title>
    <path d="M14.2,19.6H5.8a2.2,2.2,0,0,1-2.2-2.2V2.6A2.2,2.2,0,0,1,5.8.4h8.4a2.2,2.2,0,0,1,2.2,2.2V17.4A2.2,2.2,0,0,1,14.2,19.6ZM5.8,1.6a1,1,0,0,0-1,1V17.4a1,1,0,0,0,1,1h8.4a1,1,0,0,0,1-1V2.6a1,1,0,0,0-1-1Z"/>
    <path d="M15.8,5.4H4.2a.6.6,0,1,1,0-1.2H15.8a.6.6,0,1,1,0,1.2Z"/>
    <path d="M15.8,15.5H4.2a.6.6,0,1,1,0-1.2H15.8a.6.6,0,1,1,0,1.2Z"/>
    <path d="M11.5,3.4h-3a.5.5,0,1,1,0-1h3a.5.5,0,1,1,0,1Z"/>
    <circle cx="10" cy="16.8" r="1"/>
</svg>
