<?xml version="1.0" encoding="utf-8"?>
<svg xmlns="http://www.w3.org/2000/svg" viewBox="0 0 20 20">
    <title>mute</title>
    <path d="M10,14.5a4.2,4.2,0,0,1-4.2-4.2v-6a4.2,4.2,0,0,1,8.3,0v6A4.2,4.2,0,0,1,10,14.5ZM10,1.3a3,3,0,0,0-3,3v6a3,3,0,1,0,5.9,0v-6A3,3,0,0,0,10,1.3Z"/>
    <path d="M16.1,10.7a.6.6,0,0,0-1.2,0,4.9,4.9,0,1,1-9.8,0,.6.6,0,0,0-1.2,0,6.1,6.1,0,0,0,5.5,6.1v3.1h1.2V16.8A6.1,6.1,0,0,0,16.1,10.7Z"/>
    <rect x="0.3" y="7.8" width="19.3" height="1.9" transform="translate(9.1 -4.5) rotate(45)"/>
</svg>
