<?xml version="1.0" encoding="utf-8"?>
<svg xmlns="http://www.w3.org/2000/svg" viewBox="0 0 20 20">
    <title>network</title>
    <path d="M15.9,13.4a.6.6,0,0,1-.6-.6V10.9a.3.3,0,0,0-.3-.3H5a.3.3,0,0,0-.3.3v1.9a.6.6,0,0,1-1.2,0V10.9A1.5,1.5,0,0,1,5,9.4H15a1.5,1.5,0,0,1,1.5,1.5v1.9A.6.6,0,0,1,15.9,13.4Z"/>
    <path d="M10.3,10.6a.6.6,0,0,1-.6-.6V7.5a.6.6,0,0,1,1.2,0V10A.6.6,0,0,1,10.3,10.6Z"/>
    <path d="M12.5,7.8H8.1A1.5,1.5,0,0,1,6.6,6.3V2.5A1.5,1.5,0,0,1,8.1,1h4.4A1.5,1.5,0,0,1,14,2.5V6.3A1.5,1.5,0,0,1,12.5,7.8ZM8.1,2.2a.3.3,0,0,0-.3.3V6.3a.3.3,0,0,0,.3.3h4.4a.3.3,0,0,0,.3-.3V2.5a.3.3,0,0,0-.3-.3Z"/>
    <path d="M6.3,19H1.9A1.5,1.5,0,0,1,.4,17.5V13.7a1.5,1.5,0,0,1,1.5-1.5H6.3a1.5,1.5,0,0,1,1.5,1.5v3.8A1.5,1.5,0,0,1,6.3,19ZM1.9,13.4a.3.3,0,0,0-.3.3v3.8a.3.3,0,0,0,.3.3H6.3a.3.3,0,0,0,.3-.3V13.7a.3.3,0,0,0-.3-.3Z"/>
    <path d="M18.1,19H13.7a1.5,1.5,0,0,1-1.5-1.5V13.7a1.5,1.5,0,0,1,1.5-1.5h4.4a1.5,1.5,0,0,1,1.5,1.5v3.8A1.5,1.5,0,0,1,18.1,19Zm-4.4-5.6a.3.3,0,0,0-.3.3v3.8a.3.3,0,0,0,.3.3h4.4a.3.3,0,0,0,.3-.3V13.7a.3.3,0,0,0-.3-.3Z"/>
</svg>
