<?xml version="1.0" encoding="utf-8"?>
<svg xmlns="http://www.w3.org/2000/svg" viewBox="0 0 521.16 345.77">
    <title>no-results-graphic</title>
    <ellipse fill="#666666" opacity="0.2" cx="260.58" cy="297.91" rx="260.58" ry="47.86" />
    <rect fill="#c8d9df" stroke="#759faf" stroke-linejoin="round" stroke-width="7px" x="213.99" y="53.06" width="177.25" height="228.9" />
    <g opacity="0.35">
        <path fill="#666666" d="M2761.5,261l-1.85,1.85a1.31,1.31,0,0,1-1.85,0l-4-4-4,4a1.31,1.31,0,0,1-1.85,0l-1.85-1.85a1.31,1.31,0,0,1,0-1.85l4-4-4-4a1.31,1.31,0,0,1,0-1.85l1.85-1.85a1.31,1.31,0,0,1,1.85,0l4,4,4-4a1.31,1.31,0,0,1,1.85,0l1.85,1.85a1.31,1.31,0,0,1,0,1.85l-4,4,4,4A1.31,1.31,0,0,1,2761.5,261Z" transform="translate(-2669.67 -47.11)" />
    </g>
    <g opacity="0.35">
        <path fill="#666666" d="M3003.17,57.4l-1.37,1.37a1,1,0,0,1-1.37,0l-3-3-3,3a1,1,0,0,1-1.37,0l-1.37-1.37a1,1,0,0,1,0-1.37l3-3-3-3a1,1,0,0,1,0-1.37l1.37-1.37a1,1,0,0,1,1.37,0l3,3,3-3a1,1,0,0,1,1.37,0l1.37,1.37a1,1,0,0,1,0,1.37l-3,3,3,3A1,1,0,0,1,3003.17,57.4Z" transform="translate(-2669.67 -47.11)" />
    </g>
    <g opacity="0.35">
        <path fill="#666666" d="M3128,229.72l-2.18,2.17a1.54,1.54,0,0,1-2.17,0l-4.7-4.7-4.7,4.7a1.54,1.54,0,0,1-2.17,0l-2.18-2.17a1.54,1.54,0,0,1,0-2.17l4.7-4.7-4.7-4.7a1.54,1.54,0,0,1,0-2.17l2.18-2.17a1.54,1.54,0,0,1,2.17,0l4.7,4.7,4.7-4.7a1.54,1.54,0,0,1,2.17,0L3128,216a1.54,1.54,0,0,1,0,2.17l-4.7,4.7,4.7,4.7A1.54,1.54,0,0,1,3128,229.72Z" transform="translate(-2669.67 -47.11)" />
    </g>
    <path fill="#c8d9df" d="M2731.37,209.61a2.4,2.4,0,0,1-1.72-.73l-6.56-6.54a13.47,13.47,0,1,1,3.46-3.46l6.56,6.56A2.45,2.45,0,0,1,2731.37,209.61Zm-15.92-26.94a8.57,8.57,0,1,0,8.57,8.57A8.58,8.58,0,0,0,2715.45,182.66Z" transform="translate(-2669.67 -47.11)" />
    <path fill="#c8d9df" d="M3037.93,74.66a1.63,1.63,0,0,1-1.16-.49l-4.44-4.43a9.11,9.11,0,1,1,2.34-2.34l4.44,4.44A1.66,1.66,0,0,1,3037.93,74.66Zm-10.77-18.22a5.8,5.8,0,1,0,5.8,5.8A5.81,5.81,0,0,0,3027.16,56.43Z" transform="translate(-2669.67 -47.11)" />
    <path fill="#c8d9df" d="M3102.13,281.59a1.15,1.15,0,0,1-.82-0.35l-3.14-3.13a6.44,6.44,0,1,1,1.66-1.65l3.14,3.14A1.17,1.17,0,0,1,3102.13,281.59Zm-7.61-12.88a4.1,4.1,0,1,0,4.1,4.1A4.1,4.1,0,0,0,3094.52,268.71Z" transform="translate(-2669.67 -47.11)" />
    <polygon fill="#e3ecef" stroke="#759faf" stroke-linejoin="round" stroke-width="7px" points="359.03 312.98 181.78 312.98 181.78 84.08 326.65 84.08 319.66 123.44 359.03 114.88 359.03 312.98" />
    <line fill="#e3ecef" stroke-linecap="round" stroke="#759faf" stroke-linejoin="round" stroke-width="7px" x1="327.64" y1="84.82" x2="358.65" y2="114.64" />
    <path fill="#c8d9df" d="M2998.4,210h-116a4,4,0,0,1,0-8h116A4,4,0,0,1,2998.4,210Z" transform="translate(-2669.67 -47.11)" />
    <path fill="#c8d9df" d="M2998.4,234h-116a4,4,0,0,1,0-8h116A4,4,0,0,1,2998.4,234Z" transform="translate(-2669.67 -47.11)" />
    <path fill="#c8d9df" d="M2998.4,258h-116a4,4,0,0,1,0-8h116A4,4,0,0,1,2998.4,258Z" transform="translate(-2669.67 -47.11)" />
    <path fill="#c8d9df" d="M2998.4,282h-116a4,4,0,0,1,0-8h116A4,4,0,0,1,2998.4,282Z" transform="translate(-2669.67 -47.11)" />
    <path fill="#c8d9df" d="M2998.4,306h-116a4,4,0,0,1,0-8h116A4,4,0,0,1,2998.4,306Z" transform="translate(-2669.67 -47.11)" />
    <path fill="#c8d9df" d="M2998.4,330h-116a4,4,0,0,1,0-8h116A4,4,0,0,1,2998.4,330Z" transform="translate(-2669.67 -47.11)" />
    <rect fill="#c8d9df" x="2789.68" y="198.13" width="40.72" height="172.87" rx="12" ry="12" transform="translate(-1767.78 -1844.91) rotate(41.72)" stroke="#759faf" stroke-linejoin="round" stroke-width="7px" />
    <circle fill="#c8d9df" cx="2852.48" cy="236.97" r="63" transform="translate(-1892.26 2161.36) rotate(-48.28)" stroke="#759faf" stroke-linejoin="round" stroke-width="7px" />
    <circle fill="#fff" cx="2852.22" cy="237.25" r="43.03" transform="translate(-1892.56 2161.27) rotate(-48.28)" />
    <path fill="#759faf" d="M2846.18,244v-2.67a9.9,9.9,0,0,1,1.24-5.13,13,13,0,0,1,4.4-4.08,16.52,16.52,0,0,0,3.61-2.85,4.33,4.33,0,0,0,1.1-2.91,2.34,2.34,0,0,0-1.18-2.06,5.59,5.59,0,0,0-3.07-.76q-4.68,0-10.94,3.32L2837,218.4a32.1,32.1,0,0,1,16.12-4.4q6.91,0,10.85,3a9.9,9.9,0,0,1,3.94,8.28,11.81,11.81,0,0,1-1.75,6.5,17.85,17.85,0,0,1-5.6,5.19,21.65,21.65,0,0,0-4.08,3.08,3.47,3.47,0,0,0-.82,2.31V244h-9.52Zm-1.33,10.85a5.73,5.73,0,0,1,1.66-4.4,6.91,6.91,0,0,1,4.88-1.55,6.68,6.68,0,0,1,4.76,1.57,5.74,5.74,0,0,1,1.66,4.39,5.58,5.58,0,0,1-1.72,4.37,6.76,6.76,0,0,1-4.7,1.55,7,7,0,0,1-4.81-1.53A5.54,5.54,0,0,1,2844.84,254.83Z" transform="translate(-2669.67 -47.11)" />
</svg>
