<svg xmlns="http://www.w3.org/2000/svg" viewBox="0 0 99.94 83.43">
    <title>notification</title>
    <path d="M26.82 73.79s.71 8.14 11.81 8.14 11.8-8.14 11.8-8.14M34.22 10.61S33.51 3 38.63 3s5.12 7.27 5.12 7.27" fill="none" stroke="#3b3b3b" stroke-miterlimit="10" stroke-width="3"/>
    <path d="M70.43 55.21c4.08 6.2 4.93 12.78 5.69 16.32a2.23 2.23 0 0 1-2.22 2.69l-35.06-.38-35.07.38a2.23 2.23 0 0 1-2.22-2.69c1-4.5 2.08-13.89 9.76-21.18 2.53-7.61 5.07-42 27.53-41 7.8-.35 13.2 3.57 17 9.16" fill="none" stroke="#3b3b3b" stroke-miterlimit="10" stroke-width="3"/>
    <path d="M64.49 3.57L38.26 49a4.15 4.15 0 0 0 3.59 6.22H94.3A4.15 4.15 0 0 0 97.88 49L71.66 3.57a4.14 4.14 0 0 0-7.17 0z" fill="none" stroke="#3b3b3b" stroke-miterlimit="10" stroke-width="3"/>
    <path stroke-linecap="round" fill="none" stroke="#3b3b3b" stroke-miterlimit="10" stroke-width="3" d="M68.46 17.03v20.82"/>
    <circle cx="68.46" cy="44.56" r="2.3" fill="#3b3b3b"/>
</svg>
