<?xml version="1.0" encoding="utf-8"?>
<svg xmlns="http://www.w3.org/2000/svg" viewBox="0 0 29.1 25.2">
    <title>offline</title>
    <path d="M3519.54,107.67a1.25,1.25,0,0,1-.88-0.37,9.23,9.23,0,0,0-13.06,0,1.25,1.25,0,0,1-1.77-1.77,11.73,11.73,0,0,1,16.59,0A1.25,1.25,0,0,1,3519.54,107.67Z" transform="translate(-3497.6 -90.83)"/>
    <path d="M3522.45,103.41a1.25,1.25,0,0,1-.88-0.37,13.37,13.37,0,0,0-18.88,0,1.25,1.25,0,1,1-1.77-1.77,15.87,15.87,0,0,1,22.42,0A1.25,1.25,0,0,1,3522.45,103.41Z" transform="translate(-3497.6 -90.83)"/>
    <path d="M3525.4,98.82a1.25,1.25,0,0,1-.88-0.37,17.55,17.55,0,0,0-24.78,0,1.25,1.25,0,0,1-1.77-1.77,20,20,0,0,1,28.32,0A1.25,1.25,0,0,1,3525.4,98.82Z" transform="translate(-3497.6 -90.83)"/>
    <path d="M3514.38,116a1.25,1.25,0,0,1-.88-0.37l-4.81-4.81a1.25,1.25,0,1,1,1.77-1.77l4.81,4.81A1.25,1.25,0,0,1,3514.38,116Z" transform="translate(-3497.6 -90.83)"/>
    <path d="M3509.56,116a1.25,1.25,0,0,1-.88-2.13l4.81-4.81a1.25,1.25,0,1,1,1.77,1.77l-4.81,4.81A1.25,1.25,0,0,1,3509.56,116Z" transform="translate(-3497.6 -90.83)"/>
</svg>
