<?xml version="1.0" encoding="UTF-8"?>
<svg width="16px" height="12px" viewBox="0 0 16 12" version="1.1" xmlns="http://www.w3.org/2000/svg" xmlns:xlink="http://www.w3.org/1999/xlink">
    <!-- Generator: Sketch 50.2 (55047) - http://www.bohemiancoding.com/sketch -->
    <title>online/standard</title>
    <desc>Created with Sketch.</desc>
    <defs>
        <polygon id="path-1" points="0 0.276 16 0.276 16 4.6429 0 4.6429"></polygon>
    </defs>
    <g id="Icons" stroke="none" stroke-width="1" fill="none" fill-rule="evenodd">
        <g transform="translate(-266.000000, -377.000000)" id="Status">
            <g transform="translate(25.000000, 139.000000)">
                <g id="Online" transform="translate(241.000000, 207.000000)">
                    <g id="online/standard" transform="translate(0.000000, 30.000000)">
                        <g id="Group-3" transform="translate(0.000000, 0.723800)">
                            <mask id="mask-2" fill="white">
                                <use xlink:href="#path-1"></use>
                            </mask>
                            <g id="Clip-2"></g>
                            <path d="M15.8046,3.5039 C11.5006,-0.8001 4.4986,-0.8001 0.1956,3.5039 C-0.0654,3.7639 -0.0654,4.1869 0.1956,4.4479 C0.4546,4.7079 0.8786,4.7079 1.1386,4.4479 C4.9216,0.6639 11.0776,0.6639 14.8616,4.4479 C15.1206,4.7079 15.5446,4.7079 15.8046,4.4479 C16.0656,4.1869 16.0656,3.7639 15.8046,3.5039" id="Fill-1" fill="#626E70" mask="url(#mask-2)"></path>
                        </g>
                        <path d="M2.746,6.7783 C2.485,7.0383 2.485,7.4623 2.746,7.7223 C3.006,7.9823 3.43,7.9823 3.689,7.7223 C6.066,5.3453 9.933,5.3453 12.31,7.7223 C12.571,7.9823 12.994,7.9823 13.254,7.7223 C13.515,7.4623 13.515,7.0383 13.255,6.7783 C10.357,3.8813 5.642,3.8813 2.746,6.7783" id="Fill-4" fill="#626E70"></path>
                        <path d="M5.2968,9.329 C5.0358,9.589 5.0358,10.012 5.2968,10.273 C5.5568,10.533 5.9808,10.533 6.2398,10.273 C7.2108,9.302 8.7888,9.302 9.7598,10.273 C10.0208,10.533 10.4428,10.533 10.7038,10.273 C10.9638,10.012 10.9638,9.589 10.7038,9.329 C9.2128,7.838 6.7868,7.838 5.2968,9.329" id="Fill-6" fill="#626E70"></path>
                        <path d="M8.8749,11.8486 C8.8749,12.3316 8.4829,12.7236 7.9999,12.7236 C7.5169,12.7236 7.1249,12.3316 7.1249,11.8486 C7.1249,11.3656 7.5169,10.9736 7.9999,10.9736 C8.4829,10.9736 8.8749,11.3656 8.8749,11.8486" id="Fill-8" fill="#626E70"></path>
                    </g>
                </g>
            </g>
        </g>
    </g>
</svg>