<?xml version="1.0" encoding="utf-8"?>
<svg xmlns="http://www.w3.org/2000/svg" viewBox="0 0 19.2 16.95">
    <title>patch</title>
    <path d="M150.08,152.37h-1.86V151h1.86v-1.84h1.35V151h1.86v1.34h-1.86v1.81h-1.35v-1.81Z" transform="translate(-141.01 -141.93)" />
    <path d="M156.51,145.92a0.6,0.6,0,0,1-.6-0.6v-1.89a0.3,0.3,0,0,0-.3-0.3h-10a0.3,0.3,0,0,0-.3.3v1.89a0.6,0.6,0,0,1-1.2,0v-1.89a1.5,1.5,0,0,1,1.5-1.5h10a1.5,1.5,0,0,1,1.5,1.5v1.89A0.6,0.6,0,0,1,156.51,145.92Z" transform="translate(-141.01 -141.93)" />
    <path d="M158.37,158.88H142.85a1.88,1.88,0,0,1-1.84-1.83V146.73a1.89,1.89,0,0,1,1.84-1.84h15.52a1.89,1.89,0,0,1,1.84,1.84v10.32A1.88,1.88,0,0,1,158.37,158.88Zm-15.52-12.79a0.69,0.69,0,0,0-.64.64v10.32a0.69,0.69,0,0,0,.64.63h15.52a0.69,0.69,0,0,0,.64-0.63V146.73a0.69,0.69,0,0,0-.64-0.64H142.85Z" transform="translate(-141.01 -141.93)" />
</svg>
