<?xml version="1.0" encoding="utf-8"?>
<svg xmlns="http://www.w3.org/2000/svg" viewBox="0 0 20 20">
    <title>preview</title>
    <path d="M10,15.7C4.8,15.7.7,10.4.5,10.2a.6.6,0,0,1,0-.7C.7,9.3,4.8,4.3,10,4.3s9.3,5,9.5,5.2a.6.6,0,0,1,0,.7C19.3,10.4,15.2,15.7,10,15.7ZM1.8,9.9c1,1.2,4.4,4.7,8.2,4.7s7.2-3.5,8.2-4.7c-1-1.1-4.4-4.4-8.2-4.4S2.8,8.7,1.8,9.9Z"/>
    <path d="M10,13.5a3.7,3.7,0,1,1,3.7-3.7A3.7,3.7,0,0,1,10,13.5Zm0-6.2a2.5,2.5,0,1,0,2.5,2.5A2.5,2.5,0,0,0,10,7.3Z"/>
    <path d="M11.3,10.2a.6.6,0,0,1-.6-.6.4.4,0,0,0-.4-.4.6.6,0,1,1,0-1.2,1.6,1.6,0,0,1,1.6,1.6A.6.6,0,0,1,11.3,10.2Z"/>
</svg>
