<?xml version="1.0" encoding="utf-8"?>
<svg xmlns="http://www.w3.org/2000/svg" viewBox="0 0 27.5 27.5" stroke="#222222" stroke-miterlimit="10" stroke-width="2px">
    <title>processor</title>
    <rect fill="#FFFFFF" x="3.64" y="3.64" width="20.22" height="20.22" rx="1.93" ry="1.93"/>
    <g fill="none" stroke-linecap="round">
        <line x1="7.16" y1="1" x2="7.16" y2="3.64"/>
        <line x1="20.34" y1="1" x2="20.34" y2="3.64"/>
        <line x1="11.55" y1="1" x2="11.55" y2="3.64"/>
        <line x1="15.95" y1="1" x2="15.95" y2="3.64"/>
        <line x1="7.16" y1="23.86" x2="7.16" y2="26.5"/>
        <line x1="20.34" y1="23.86" x2="20.34" y2="26.5"/>
        <line x1="11.55" y1="23.86" x2="11.55" y2="26.5"/>
        <line x1="15.95" y1="23.86" x2="15.95" y2="26.5"/>
        <line x1="1" y1="20.34" x2="3.64" y2="20.34"/>
        <line x1="1" y1="7.16" x2="3.64" y2="7.16"/>
        <line x1="1" y1="15.95" x2="3.64" y2="15.95"/>
        <line x1="1" y1="11.55" x2="3.64" y2="11.55"/>
        <line x1="23.86" y1="20.34" x2="26.5" y2="20.34"/>
        <line x1="23.86" y1="7.16" x2="26.5" y2="7.16"/>
        <line x1="23.86" y1="15.95" x2="26.5" y2="15.95"/>
        <line x1="23.86" y1="11.55" x2="26.5" y2="11.55"/>
    </g>
    <rect fill="#222222" x="8.22" y="8.22" width="11.06" height="11.06" rx="1.93" ry="1.93"/>
</svg>
