<?xml version="1.0" encoding="utf-8"?>
<svg xmlns="http://www.w3.org/2000/svg" viewBox="0 0 20 20">
    <title>refresh</title>
    <path d="M3.4,13.4,3,13.2.6,10.8a.6.6,0,0,1,.9-.9l1.9,1.8L4.5,9.5a.6.6,0,1,1,1.1.6L4,13a.6.6,0,0,1-.4.3Z"/>
    <path d="M14.9,11.6h-.3a.6.6,0,0,1-.2-.8l1.7-3a.6.6,0,0,1,.5-.3l.5.2L19.4,10a.6.6,0,0,1-.9.8L16.8,9l-1.3,2.2A.6.6,0,0,1,14.9,11.6Z"/>
    <path d="M10,17.5a7.5,7.5,0,0,1-5.3-2.2.6.6,0,0,1,.9-.9,6.3,6.3,0,0,0,5.9,1.6,6.4,6.4,0,0,0,4.8-7.2.6.6,0,0,1,1.2-.2,7.6,7.6,0,0,1-5.8,8.6Z"/>
    <path d="M3.1,12.6a.6.6,0,0,1-.6-.5,7.5,7.5,0,0,1,.8-5.8A7.9,7.9,0,0,1,8.3,2.7,7.5,7.5,0,0,1,15.7,5a.6.6,0,0,1-.9.8,6.3,6.3,0,0,0-6.2-2A6.7,6.7,0,0,0,4.4,7a6.3,6.3,0,0,0-.7,4.9.6.6,0,0,1-.4.8Z"/>
</svg>
