<?xml version="1.0" encoding="UTF-8"?>
<svg width="16px" height="15px" viewBox="0 0 16 15" version="1.1" xmlns="http://www.w3.org/2000/svg" xmlns:xlink="http://www.w3.org/1999/xlink">
    <!-- Generator: Sketch 50.2 (55047) - http://www.bohemiancoding.com/sketch -->
    <title>reset/enabled</title>
    <desc>Created with Sketch.</desc>
    <defs>
        <polygon id="path-1" points="0 0.259097499 5.4323814 0.259097499 5.4323814 4.32773333 0 4.32773333"></polygon>
        <polygon id="path-3" points="0.216600331 0.271591603 14.2217534 0.271591603 14.2217534 14.2222222 0.216600331 14.2222222"></polygon>
    </defs>
    <g id="Icons" stroke="none" stroke-width="1" fill="none" fill-rule="evenodd">
        <g transform="translate(-255.000000, -1192.000000)" id="Action">
            <g transform="translate(25.000000, 502.000000)">
                <g id="Reset" transform="translate(230.000000, 631.000000)">
                    <g id="Icons" transform="translate(0.000000, 32.000000)">
                        <g id="reset/enabled" transform="translate(0.000000, 27.000000)">
                            <g id="Group-3" transform="translate(0.000000, 5.061956)">
                                <mask id="mask-2" fill="white">
                                    <use xlink:href="#path-1"></use>
                                </mask>
                                <g id="Clip-2"></g>
                                <path d="M2.54595556,4.32773333 C2.5344,4.32773333 2.52462222,4.32773333 2.51306667,4.32684444 C2.35751111,4.31617778 2.21617778,4.2344 2.12906667,4.10551111 L0.0837333333,1.03617778 C-0.0691555556,0.806844444 -0.00693333333,0.496622222 0.223288889,0.342844444 C0.452622222,0.189955556 0.762844444,0.252177778 0.915733333,0.4824 L2.59928889,3.00684444 L4.55573333,0.771288889 C4.73795556,0.563288889 5.05262222,0.542844444 5.26151111,0.724177778 C5.46951111,0.905511111 5.49084444,1.22195556 5.30773333,1.42995556 L2.92195556,4.15706667 C2.82595556,4.26551111 2.68906667,4.32773333 2.54595556,4.32773333" id="Fill-1" fill="#626E70" mask="url(#mask-2)"></path>
                            </g>
                            <g id="Group-6" transform="translate(1.777778, 0.617511)">
                                <mask id="mask-4" fill="white">
                                    <use xlink:href="#path-3"></use>
                                </mask>
                                <g id="Clip-5"></g>
                                <path d="M7.48346667,14.2223111 C7.21502222,14.2223111 6.99368889,14.0098667 6.98391111,13.7405333 C6.97413333,13.4649778 7.18924444,13.2329778 7.4648,13.2223111 C9.06035556,13.1636444 10.5385778,12.4872 11.6248,11.3174222 C12.7119111,10.1476444 13.2781333,8.62497778 13.2176889,7.02942222 C13.1599111,5.43386667 12.4834667,3.95653333 11.3136889,2.87031111 C10.1430222,1.7832 8.62035556,1.21608889 7.0248,1.27564444 C5.36435556,1.33697778 3.7768,2.1192 2.66835556,3.42053333 C1.5448,4.73964444 1.04791111,6.44097778 1.26746667,8.21075556 C1.30213333,8.48453333 1.10746667,8.73431111 0.833688889,8.76808889 C0.557244444,8.80275556 0.310133333,8.60808889 0.275466667,8.33342222 C0.0203555556,6.28275556 0.599911111,4.30764444 1.90746667,2.77253333 C3.19635556,1.25786667 5.0488,0.347644444 6.98746667,0.276533333 C8.85413333,0.2072 10.6283556,0.869422222 11.9936889,2.13786667 C13.3590222,3.40631111 14.1492444,5.12986667 14.2168,6.99208889 C14.2861333,8.85431111 13.6256889,10.6329778 12.3572444,11.9983111 C11.0888,13.3636444 9.36435556,14.1529778 7.50213333,14.2223111 C7.49591111,14.2223111 7.48968889,14.2223111 7.48346667,14.2223111" id="Fill-4" fill="#626E70" mask="url(#mask-4)"></path>
                            </g>
                            <path d="M12.4322667,8.72675556 L8.53448889,8.72675556 L8.53448889,4.45297778 C8.53448889,4.17742222 8.75848889,3.95253333 9.03493333,3.95253333 C9.31048889,3.95253333 9.53448889,4.17742222 9.53448889,4.45297778 L9.53448889,7.72675556 L12.4322667,7.72675556 C12.7087111,7.72675556 12.9318222,7.95075556 12.9318222,8.22631111 C12.9318222,8.50275556 12.7087111,8.72675556 12.4322667,8.72675556" id="Fill-7" fill="#626E70"></path>
                        </g>
                    </g>
                </g>
            </g>
        </g>
    </g>
</svg>