<?xml version="1.0" encoding="utf-8"?>
<svg xmlns="http://www.w3.org/2000/svg" viewBox="0 0 25.3 27.3">
    <title>restart</title>
    <path d="M4053.52,120.09a13.75,13.75,0,0,1-3.87-.6,12.83,12.83,0,0,1-3.49-1.76,12.61,12.61,0,0,1-4.61-6.2,12.57,12.57,0,0,1,4.27-14.06,1.25,1.25,0,1,1,1.51,2,10.1,10.1,0,0,0,.27,16.23,10.3,10.3,0,0,0,2.79,1.42,10.08,10.08,0,0,0,6.2,0,10.28,10.28,0,0,0,2.79-1.42,10.08,10.08,0,0,0,3.68-5,10.26,10.26,0,0,0,.11-6.2,10.16,10.16,0,0,0-3.52-5.07,1.25,1.25,0,1,1,1.51-2,12.63,12.63,0,0,1-3.81,22A13.72,13.72,0,0,1,4053.52,120.09Z" transform="translate(-4040.73 -92.77)"/>
    <path d="M4047.3,104.16a1.25,1.25,0,0,1-1.23-1.05l-0.72-4.45a1.25,1.25,0,0,1,2.47-.4l0.72,4.45a1.25,1.25,0,0,1-1,1.43Z" transform="translate(-4040.73 -92.77)"/>
    <path d="M4042,99.91a1.25,1.25,0,0,1-.05-2.5l4.61-.2a1.25,1.25,0,1,1,.11,2.5l-4.61.2H4042Z" transform="translate(-4040.73 -92.77)"/>
    <path d="M4053.5,107.25a1.25,1.25,0,0,1-1.25-1.25V94a1.25,1.25,0,0,1,2.5,0v12A1.25,1.25,0,0,1,4053.5,107.25Z" transform="translate(-4040.73 -92.77)"/>
</svg>
