<svg xmlns="http://www.w3.org/2000/svg" viewBox="0 0 95.08 108.87">
    <title>rollback</title>
    <circle cx="46.61" cy="54.16" r="28.19" fill="none" stroke="#3b3b3b" stroke-linecap="round" stroke-linejoin="round" stroke-width="3"/>
    <circle cx="46.61" cy="54.16" r="18.75" fill="none" stroke="#3b3b3b" stroke-linecap="round" stroke-linejoin="round" stroke-width="3"/>
    <path fill="none" stroke="#3b3b3b" stroke-linecap="round" stroke-linejoin="round" stroke-width="3" d="M56.49 107.37l9.45-10.89-12.71-6.3M39.92 1.5l-8.6 11.57 13.14 5.33M92.44 94.64a4.43 4.43 0 0 1-6.27.33L65.36 76.45l6-6.59 20.76 18.51a4.44 4.44 0 0 1 .32 6.27zM11.34 27a44.8 44.8 0 0 0 52.6 69.18M32.37 12.38a44.81 44.81 0 0 1 51.54 66.91M40.74 48.73a6.83 6.83 0 0 1 3.45-5.87 5.92 5.92 0 0 1 6.65.74 5.23 5.23 0 0 1 .87 6.51c-1 1.46-2.7 2.31-3.64 3.8-1 1.65-.91 3.76-.74 5.71"/>
    <circle cx="47.53" cy="65.43" r="2.01" fill="#3b3b3b"/>
</svg>
