<?xml version="1.0" encoding="UTF-8"?>
<svg viewBox="0 0 18 18" version="1.1" xmlns="http://www.w3.org/2000/svg" xmlns:xlink="http://www.w3.org/1999/xlink">
    <title>save</title>
    <g stroke="none" stroke-width="1" fill="none" fill-rule="evenodd" transform="translate(1.000000, 1.000000)">
        <g>
            <path d="M13.5038508,0.0560708416 L0.481993044,0.00200133696 C0.21689865,0.000900609024 0.00110486577,0.21490976 4.13783177e-06,0.480004155 C1.37933304e-06,0.480668499 7.92128426e-11,0.481332849 7.92094168e-11,0.481997199 L-5.55111512e-17,15.3615842 C-1.36659313e-12,15.6266808 0.21490332,15.8415842 0.48,15.8415842 L15.52,15.8415842 C15.7850967,15.8415842 16,15.6266808 16,15.3615842 L16,2.4186308 C16,2.28075348 15.9407101,2.1495339 15.8372384,2.05840894 L13.6089326,0.095995509 C13.579887,0.0704158278 13.542554,0.0562315455 13.5038508,0.0560708416 Z" id="Path" stroke="#000"></path>
            <path d="M13.0028057,13.5 L2.99719434,13.5 C2.66732265,13.5 2.4,13.2513965 2.4,12.944624 L2.4,8.05537602 C2.4,7.74860348 2.66732265,7.5 2.99719434,7.5 L13.1532212,7.5 C13.399992,7.5 13.6,7.68600249 13.6,7.91549328 L13.6,12.944624 C13.6,13.2513965 13.3326773,13.5 13.0028057,13.5 Z" id="Stroke-3" stroke="#000"></path>
            <path d="M10.24,3.8019802 L11.52,3.8019802 C11.6083656,3.8019802 11.68,3.73034576 11.68,3.6419802 L11.68,1.11049505 C11.68,1.02212949 11.6083656,0.95049505 11.52,0.95049505 L10.24,0.95049505 C10.1516344,0.95049505 10.08,1.02212949 10.08,1.11049505 L10.08,2.27492928 L10.08,3.6419802 C10.08,3.73034576 10.1516344,3.8019802 10.24,3.8019802 Z" id="Stroke-7" fill="#000"></path>
            <path d="M12.64,0.158415842 L12.64,4.43089109 C12.64,4.69598777 12.4250967,4.91089109 12.16,4.91089109 L3.85348739,4.91089109 C3.58898216,4.91089109 3.37432462,4.69690999 3.37348978,4.43240608 L3.36,0.158415842" stroke="#000" stroke-linecap="square"></path>
        </g>
    </g>
</svg>