<?xml version="1.0" encoding="utf-8"?>
<svg xmlns="http://www.w3.org/2000/svg" viewBox="0 0 16 16">
	<title>scheduled</title>
    <g>
	    <g>
		    <g>
				<path fill="#1173BD" d="M8,0L8,0c4.4,0,8,3.6,8,8l0,0c0,4.4-3.6,8-8,8l0,0c-4.4,0-8-3.6-8-8l0,0C0,3.6,3.6,0,8,0z" />
				<g transform="translate(3.000000, 3.000000)">
					<g>
						<g></g>
						<defs>
							<filter filterUnits="userSpaceOnUse" x="0" y="0" width="10" height="10">
								<feColorMatrix  type="matrix" values="1 0 0 0 0  0 1 0 0 0  0 0 1 0 0  0 0 0 1 0" />
							</filter>
						</defs>
						<mask maskUnits="userSpaceOnUse" x="0" y="0" width="10" height="10">
							<g class="st1">
								<polygon fill="#FFFFFF" points="0,0 10,0 10,10 0,10" />
							</g>
						</mask>
						<path fill="#FFFFFF" d="M5,0.6c-2.4,0-4.4,2-4.4,4.4s2,4.4,4.4,4.4s4.4-2,4.4-4.4S7.4,0.6,5,0.6 M5,10c-2.8,0-5-2.2-5-5c0-2.8,2.2-5,5-5c2.8,0,5,2.2,5,5C10,7.8,7.8,10,5,10"/>
					</g>
					<path fill="#FFFFFF" d="M7.2,7.6c-0.1,0-0.2,0-0.2-0.1L4.6,5.2C4.6,5.2,4.5,5.1,4.5,5V2.8c0-0.2,0.1-0.3,0.3-0.3c0.2,0,0.3,0.1,0.3,0.3v2.1L7.5,7c0.1,0.1,0.1,0.3,0,0.4C7.4,7.5,7.3,7.6,7.2,7.6"/>
				</g>
			</g>
		</g>
	</g>
</svg>
