<?xml version="1.0" encoding="UTF-8"?>
<svg width="15px" height="15px" viewBox="0 0 15 15" version="1.1" xmlns="http://www.w3.org/2000/svg" xmlns:xlink="http://www.w3.org/1999/xlink">
    <!-- Generator: Sketch 50.2 (55047) - http://www.bohemiancoding.com/sketch -->
    <title>script_scroll/standard</title>
    <desc>Created with Sketch.</desc>
    <defs>
        <polygon id="path-1" points="0.42425 0.745263158 11.0375833 0.745263158 11.0375833 10.3751579 0.42425 10.3751579"></polygon>
        <polygon id="path-3" points="0.00025 0.745263158 15 0.745263158 15 14.3154526 0.00025 14.3154526"></polygon>
    </defs>
    <g id="Icons" stroke="none" stroke-width="1" fill="none" fill-rule="evenodd">
        <g transform="translate(-987.000000, -1731.000000)" id="Objects">
            <g transform="translate(25.000000, 1496.000000)">
                <g id="Script" transform="translate(941.000000, 205.000000)">
                    <g id="script_scroll/standard" transform="translate(21.000000, 30.000000)">
                        <g id="Group-3" transform="translate(2.500000, 0.097011)">
                            <mask id="mask-2" fill="white">
                                <use xlink:href="#path-1"></use>
                            </mask>
                            <g id="Clip-2"></g>
                            <path d="M0.85675,10.3751579 C0.618416667,10.3751579 0.42425,10.1797895 0.42425,9.93894737 L0.42425,2.90568421 C0.42425,1.71410526 1.38341667,0.744842105 2.56258333,0.744842105 L10.6059167,0.744842105 C10.84425,0.744842105 11.0375833,0.940210526 11.0375833,1.18189474 C11.0375833,1.42273684 10.84425,1.61810526 10.6059167,1.61810526 L2.56258333,1.61810526 C1.86008333,1.61810526 1.28841667,2.19578947 1.28841667,2.90568421 L1.28841667,9.93894737 C1.28841667,10.1797895 1.09508333,10.3751579 0.85675,10.3751579" id="Fill-1" fill="#626E70" mask="url(#mask-2)"></path>
                        </g>
                        <g id="Group-6" transform="translate(0.000000, 0.097011)">
                            <mask id="mask-4" fill="white">
                                <use xlink:href="#path-3"></use>
                            </mask>
                            <g id="Clip-5"></g>
                            <path d="M12.17025,2.22282105 L14.0410833,2.22282105 C13.87775,1.86576842 13.5194167,1.61818947 13.1060833,1.61818947 C12.6919167,1.61818947 12.3335833,1.86576842 12.17025,2.22282105 Z M2.38191667,10.3752421 C1.54525,10.3752421 0.864416667,11.0632421 0.864416667,11.9087158 C0.864416667,12.7550316 1.54525,13.4430316 2.38191667,13.4430316 L7.85941667,13.4430316 C7.51775,13.0261895 7.31191667,12.4914526 7.31191667,11.9087158 C7.31191667,11.3268211 7.51775,10.7920842 7.85941667,10.3752421 L2.38191667,10.3752421 Z M9.69358333,14.3154526 L2.38191667,14.3154526 C1.06858333,14.3154526 0.00025,13.2358737 0.00025,11.9087158 C0.00025,10.5815579 1.06858333,9.50197895 2.38191667,9.50197895 L9.69358333,9.50197895 C9.93191667,9.50197895 10.12525,9.69734737 10.12525,9.93903158 C10.12525,10.1798737 9.93191667,10.3752421 9.69358333,10.3752421 C8.85608333,10.3752421 8.17608333,11.0632421 8.17608333,11.9087158 C8.17608333,12.7550316 8.85608333,13.4430316 9.69358333,13.4430316 C10.53025,13.4430316 11.2110833,12.7550316 11.2110833,11.9087158 L11.2110833,2.65903158 C11.2110833,1.60387368 12.0610833,0.744926316 13.1060833,0.744926316 C14.15025,0.744926316 15.00025,1.60387368 15.00025,2.65903158 C15.00025,2.90071579 14.8069167,3.09608421 14.56775,3.09608421 L12.07525,3.09608421 L12.07525,11.9087158 C12.07525,13.2358737 11.0069167,14.3154526 9.69358333,14.3154526 Z" id="Fill-4" fill="#626E70" mask="url(#mask-4)"></path>
                        </g>
                        <path d="M9.44966667,7.24555789 L5.30633333,7.24555789 C5.068,7.24555789 4.87466667,7.05018947 4.87466667,6.80934737 C4.87466667,6.56766316 5.068,6.37229474 5.30633333,6.37229474 L9.44966667,6.37229474 C9.688,6.37229474 9.88216667,6.56766316 9.88216667,6.80934737 C9.88216667,7.05018947 9.688,7.24555789 9.44966667,7.24555789" id="Fill-7" fill="#626E70"></path>
                        <path d="M9.44966667,5.27536842 L5.30633333,5.27536842 C5.068,5.27536842 4.87466667,5.08 4.87466667,4.83831579 C4.87466667,4.59747368 5.068,4.40210526 5.30633333,4.40210526 L9.44966667,4.40210526 C9.688,4.40210526 9.88216667,4.59747368 9.88216667,4.83831579 C9.88216667,5.08 9.688,5.27536842 9.44966667,5.27536842" id="Fill-9" fill="#626E70"></path>
                    </g>
                </g>
            </g>
        </g>
    </g>
</svg>