<?xml version="1.0" encoding="utf-8"?>
<svg xmlns="http://www.w3.org/2000/svg" viewBox="0 0 20 20">
    <title>script</title>
    <path d="M4.7,13.6a.6.6,0,0,1-.6-.6V4.2A2.7,2.7,0,0,1,6.9,1.4H17.1a.6.6,0,1,1,0,1.1H6.9A1.6,1.6,0,0,0,5.3,4.2V13A.6.6,0,0,1,4.7,13.6Z"/>
    <path d="M12.8,18.6H3.5a3,3,0,0,1,0-6.1h9.3a.6.6,0,1,1,0,1.1,1.9,1.9,0,1,0,1.9,1.9V3.9a2.4,2.4,0,0,1,4.8,0,.6.6,0,0,1-.6.6H15.8V15.5A3,3,0,0,1,12.8,18.6Zm-9.3-5a1.9,1.9,0,0,0,0,3.9h7a3,3,0,0,1,0-3.9ZM15.9,3.3h2.4a1.3,1.3,0,0,0-2.4,0Z"/>
    <path d="M12.5,9.5H7.2a.6.6,0,1,1,0-1.1h5.3a.6.6,0,0,1,0,1.1Z"/>
    <path d="M12.5,7H7.2a.6.6,0,1,1,0-1.1h5.3a.6.6,0,0,1,0,1.1Z"/>
</svg>
