<?xml version="1.0" encoding="UTF-8"?>
<svg width="12px" height="16px" viewBox="0 0 12 16" version="1.1" xmlns="http://www.w3.org/2000/svg" xmlns:xlink="http://www.w3.org/1999/xlink">
    <!-- Generator: Sketch 50.2 (55047) - http://www.bohemiancoding.com/sketch -->
    <title>script_paper/standard</title>
    <desc>Created with Sketch.</desc>
    <defs>
        <polygon id="path-1" points="0.000355555556 0 11.8616889 0 11.8616889 15.9999111 0.000355555556 15.9999111"></polygon>
        <polygon id="path-3" points="0 16 11.8622222 16 11.8622222 0 0 0"></polygon>
    </defs>
    <g id="Icons" stroke="none" stroke-width="1" fill="none" fill-rule="evenodd">
        <g transform="translate(-966.000000, -1731.000000)" id="Objects">
            <g transform="translate(25.000000, 1496.000000)">
                <g id="Script" transform="translate(941.000000, 205.000000)">
                    <g id="script_paper/standard" transform="translate(0.000000, 30.000000)">
                        <g id="Group-3">
                            <mask id="mask-2" fill="white">
                                <use xlink:href="#path-1"></use>
                            </mask>
                            <g id="Clip-2"></g>
                            <path d="M1.00035556,14.9999111 L10.8616889,14.9999111 L10.8616889,4.32791111 L7.53457778,0.999911111 L1.00035556,0.999911111 L1.00035556,14.9999111 Z M11.3621333,15.9999111 L0.499911111,15.9999111 C0.223466667,15.9999111 0.000355555556,15.7759111 0.000355555556,15.4994667 L0.000355555556,0.500355556 C0.000355555556,0.223911111 0.223466667,-8.88888889e-05 0.499911111,-8.88888889e-05 L7.7408,-8.88888889e-05 C7.87413333,-8.88888889e-05 8.00035556,0.0523555556 8.09457778,0.146577778 L11.7159111,3.76702222 C11.8092444,3.86124444 11.8616889,3.98835556 11.8616889,4.1208 L11.8616889,15.4994667 C11.8616889,15.7759111 11.6376889,15.9999111 11.3621333,15.9999111 Z" id="Fill-1" fill="#626E70" mask="url(#mask-2)"></path>
                        </g>
                        <path d="M11.3619556,4.62062222 L7.74151111,4.62062222 C7.46506667,4.62062222 7.24106667,4.39662222 7.24106667,4.12106667 L7.24106667,0.499733333 L8.24106667,0.499733333 L8.24106667,3.62062222 L11.3619556,3.62062222 L11.3619556,4.62062222 Z" id="Fill-4" fill="#626E70"></path>
                        <mask id="mask-4" fill="white">
                            <use xlink:href="#path-3"></use>
                        </mask>
                        <g id="Clip-7"></g>
                        <polygon id="Fill-6" fill="#626E70" mask="url(#mask-4)" points="5.06488889 10.5617778 6.27288889 10.5617778 6.27288889 6.424 5.06488889 6.424"></polygon>
                        <path d="M6.58764444,12.3046222 C6.58764444,12.7384 6.23564444,13.0904 5.80186667,13.0904 C5.3672,13.0904 5.01608889,12.7384 5.01608889,12.3046222 C5.01608889,11.8708444 5.3672,11.5188444 5.80186667,11.5188444 C6.23564444,11.5188444 6.58764444,11.8708444 6.58764444,12.3046222" id="Fill-8" fill="#626E70" mask="url(#mask-4)"></path>
                    </g>
                </g>
            </g>
        </g>
    </g>
</svg>