<?xml version="1.0" encoding="UTF-8"?>
<svg width="16px" height="16px" viewBox="0 0 16 16" xmlns="http://www.w3.org/2000/svg" xmlns:xlink="http://www.w3.org/1999/xlink">
    <!-- Generator: Sketch 51.1 (57501) - http://www.bohemiancoding.com/sketch -->
    <title>iconSlice 1</title>
    <desc>Created with Sketch.</desc>
    <defs>
        <polygon id="path-1" points="8.88888889e-05 0 15.5226667 0 15.5226667 15.5555556 8.88888889e-05 15.5555556"></polygon>
    </defs>
    <g id="Page-1" stroke="none" stroke-width="1" fill="none" fill-rule="evenodd">
        <g id="server/standard">
            <g id="Clip-2"></g>
            <path d="M1.112,6.88711111 L14.4097778,6.88711111 L14.4097778,3.91911111 L1.112,3.91911111 L1.112,6.88711111 Z M14.8942222,7.85422222 L0.628444444,7.85422222 C0.361777778,7.85422222 0.144888889,7.63733333 0.144888889,7.37066667 L0.144888889,3.43555556 C0.144888889,3.168 0.361777778,2.95111111 0.628444444,2.95111111 L14.8942222,2.95111111 C15.1608889,2.95111111 15.3777778,3.168 15.3777778,3.43555556 L15.3777778,7.37066667 C15.3777778,7.63733333 15.1608889,7.85422222 14.8942222,7.85422222 Z" id="Fill-1" fill="#626E70" mask="url(#mask-2)"></path>
            <path d="M14.8939556,3.91893333 C14.7704,3.91893333 14.6468444,3.87182222 14.5517333,3.7776 L11.7419556,0.967822222 L3.78017778,0.967822222 L0.9704,3.7776 C0.781955556,3.96604444 0.475288889,3.96604444 0.285955556,3.7776 C0.0975111111,3.58826667 0.0975111111,3.28248889 0.285955556,3.09315556 L3.23795556,0.141155556 C3.32862222,0.0513777778 3.45128889,-0.000177777778 3.58017778,-0.000177777778 L11.9428444,-0.000177777778 C12.0708444,-0.000177777778 12.1935111,0.0513777778 12.2841778,0.141155556 L15.2361778,3.09315556 C15.4255111,3.28248889 15.4255111,3.58826667 15.2361778,3.7776 C15.1419556,3.87182222 15.0175111,3.91893333 14.8939556,3.91893333" id="Fill-3" fill="#626E70" mask="url(#mask-2)"></path>
            <path d="M11.9425778,15.2330667 L3.57991111,15.2330667 C3.31324444,15.2330667 3.09635556,15.0161778 3.09635556,14.7495111 C3.09635556,14.4819556 3.31324444,14.2659556 3.57991111,14.2659556 L11.9425778,14.2659556 C12.2092444,14.2659556 12.4261333,14.4819556 12.4261333,14.7495111 C12.4261333,15.0161778 12.2092444,15.2330667 11.9425778,15.2330667" id="Fill-4" fill="#626E70" mask="url(#mask-2)"></path>
            <path d="M8.00728889,15.2330667 C7.74062222,15.2330667 7.52373333,15.0161778 7.52373333,14.7495111 L7.52373333,11.3059556 C7.52373333,11.0384 7.74062222,10.8224 8.00728889,10.8224 C8.27395556,10.8224 8.49084444,11.0384 8.49084444,11.3059556 L8.49084444,14.7495111 C8.49084444,15.0161778 8.27395556,15.2330667 8.00728889,15.2330667" id="Fill-5" fill="#626E70" mask="url(#mask-2)"></path>
            <path d="M13.6643556,11.7896889 L1.85813333,11.7896889 C0.913244444,11.7896889 0.145244444,11.0208 0.145244444,10.0759111 L0.145244444,7.37013333 C0.145244444,7.10346667 0.361244444,6.88657778 0.627911111,6.88657778 C0.895466667,6.88657778 1.11235556,7.10346667 1.11235556,7.37013333 L1.11235556,10.0759111 C1.11235556,10.4874667 1.44657778,10.8225778 1.85813333,10.8225778 L13.6643556,10.8225778 C14.0759111,10.8225778 14.4101333,10.4874667 14.4101333,10.0759111 L14.4101333,7.37013333 C14.4101333,7.10346667 14.6270222,6.88657778 14.8936889,6.88657778 C15.1612444,6.88657778 15.3781333,7.10346667 15.3781333,7.37013333 L15.3781333,10.0759111 C15.3781333,11.0208 14.6083556,11.7896889 13.6643556,11.7896889" id="Fill-8" fill="#626E70" mask="url(#mask-2)"></path>
            <path d="M3.40222222,5.40284444 C3.40222222,5.84817778 3.04133333,6.20906667 2.596,6.20906667 C2.15066667,6.20906667 1.78977778,5.84817778 1.78977778,5.40284444 C1.78977778,4.95751111 2.15066667,4.59662222 2.596,4.59662222 C3.04133333,4.59662222 3.40222222,4.95751111 3.40222222,5.40284444" id="Fill-9" fill="#626E70" mask="url(#mask-2)"></path>
            <path d="M13.4183111,5.40284444 C13.4183111,5.67484444 13.1978667,5.8944 12.9267556,5.8944 C12.6547556,5.8944 12.4343111,5.67484444 12.4343111,5.40284444 C12.4343111,5.13084444 12.6547556,4.91128889 12.9267556,4.91128889 C13.1978667,4.91128889 13.4183111,5.13084444 13.4183111,5.40284444" id="Fill-12" fill="#626E70" mask="url(#mask-2)"></path>
            <path d="M13.4183111,9.33822222 C13.4183111,9.61022222 13.1978667,9.82977778 12.9267556,9.82977778 C12.6547556,9.82977778 12.4343111,9.61022222 12.4343111,9.33822222 C12.4343111,9.06622222 12.6547556,8.84666667 12.9267556,8.84666667 C13.1978667,8.84666667 13.4183111,9.06622222 13.4183111,9.33822222" id="Fill-15" fill="#626E70" mask="url(#mask-2)"></path>
            <path d="M3.40222222,9.33822222 C3.40222222,9.78355556 3.04133333,10.1444444 2.596,10.1444444 C2.15066667,10.1444444 1.78977778,9.78355556 1.78977778,9.33822222 C1.78977778,8.89288889 2.15066667,8.532 2.596,8.532 C3.04133333,8.532 3.40222222,8.89288889 3.40222222,9.33822222" id="Fill-16" fill="#626E70" mask="url(#mask-2)"></path>
        </g>
    </g>
</svg>