<?xml version="1.0" encoding="utf-8"?>
<svg xmlns="http://www.w3.org/2000/svg" viewBox="0 0 20 20">
    <title>settings</title>
    <path d="M10.1,18a.6.6,0,0,1-.6-.6V8.2a.6.6,0,0,1,1.2,0v9.3A.6.6,0,0,1,10.1,18Z"/>
    <path d="M16.8,18a.6.6,0,0,1-.6-.6V14.6a.6.6,0,0,1,1.2,0v2.8A.6.6,0,0,1,16.8,18Z"/>
    <path d="M3.2,10.9a.6.6,0,0,1-.6-.6V2.6a.6.6,0,0,1,1.2,0v7.7A.6.6,0,0,1,3.2,10.9Z"/>
    <path d="M3.2,18a.6.6,0,0,1-.6-.6v-5a.6.6,0,0,1,1.2,0v5A.6.6,0,0,1,3.2,18Z"/>
    <path d="M16.8,13a.6.6,0,0,1-.6-.6V2.6a.6.6,0,0,1,1.2,0v9.9A.6.6,0,0,1,16.8,13Z"/>
    <path d="M18.9,15.2H14.6a.6.6,0,0,1-.6-.6V12.4a.6.6,0,0,1,.6-.6h4.3a.6.6,0,0,1,.6.6v2.1A.6.6,0,0,1,18.9,15.2ZM15.2,14h3.1V13H15.2Z"/>
    <path d="M12.3,8.8H8a.6.6,0,0,1-.6-.6V6A.6.6,0,0,1,8,5.4h4.3a.6.6,0,0,1,.6.6V8.2A.6.6,0,0,1,12.3,8.8ZM8.6,7.6h3.1v-1H8.6Z"/>
    <path d="M5.4,13H1.1a.6.6,0,0,1-.6-.6V10.3a.6.6,0,0,1,.6-.6H5.4a.6.6,0,0,1,.6.6v2.1A.6.6,0,0,1,5.4,13ZM1.7,11.8H4.8v-1H1.7Z"/>
    <path d="M10.1,6.6A.6.6,0,0,1,9.5,6V2.6a.6.6,0,0,1,1.2,0V6A.6.6,0,0,1,10.1,6.6Z"/>
</svg>
