<svg id="Layer_1" data-name="Layer 1" xmlns="http://www.w3.org/2000/svg" xmlns:xlink="http://www.w3.org/1999/xlink" viewBox="0 0 13 14">
    <g id="global-notes">
        <g id="Group">
            <g id="Group-8">
                <g id="Group-3">
                    <g id="Fill-1">
                        <path fill="#03a9f4" d="M9.6,14H.8c-.3,0-.8,0-.8-.8V.8A.9.9,0,0,1,.8,0H12.2a.9.9,0,0,1,.8.8V10Z" transform="translate(0)"/>
                    </g>
                </g>
                <g id="Fill-6">
                    <path fill="#03a9f4" d="M9.6,14l.4-4h3c-1.1,1.3-2.2,2.7-3.4,4" transform="translate(0)"/>
                </g>
                <g id="Fill-6-2" data-name="Fill-6">
                    <path fill="#ddd" d="M10,10h3c-1.1,1.3-2.2,2.7-3.4,4Z" transform="translate(0)"/>
                </g>
            </g>
        </g>
        <g id="Rectangle">
            <path fill="#fff" d="M3,6.5h7a.5.5,0,0,1,.5.5h0a.5.5,0,0,1-.5.5H3A.5.5,0,0,1,2.5,7h0A.5.5,0,0,1,3,6.5Z" transform="translate(0)"/>
            <g opacity="0.08">
                <path fill="#fff" d="M3,6.5h7a.5.5,0,0,1,.5.5h0a.5.5,0,0,1-.5.5H3A.5.5,0,0,1,2.5,7h0A.5.5,0,0,1,3,6.5Z" transform="translate(0)"/>
                <path fill="#979797" d="M10,8H3A.9.9,0,0,1,2,7,.9.9,0,0,1,3,6h7a.9.9,0,0,1,1,1A.9.9,0,0,1,10,8ZM3,6.5V7H3Z" transform="translate(0)"/>
            </g>
        </g>
        <g id="Rectangle-2" data-name="Rectangle">
            <path fill="#fff" d="M3,4.5h7.2a.5.5,0,0,1,.5.5h0a.5.5,0,0,1-.5.5H3A.5.5,0,0,1,2.5,5h0A.5.5,0,0,1,3,4.5Z" transform="translate(0)"/>
            <g opacity="0.08">
                <path fill="#fff" d="M3,4.5h7.2a.5.5,0,0,1,.5.5h0a.5.5,0,0,1-.5.5H3A.5.5,0,0,1,2.5,5h0A.5.5,0,0,1,3,4.5Z" transform="translate(0)"/>
                <path fill="#979797" d="M10.2,6H3A.9.9,0,0,1,2,5,.9.9,0,0,1,3,4h7.2a1,1,0,0,1,0,2ZM3,4.5V5H3Z" transform="translate(0)"/>
            </g>
        </g>
        <g id="Rectangle-3" data-name="Rectangle">
            <path fill="#fff" d="M3,8.5H8.8a.5.5,0,0,1,.5.5h0a.5.5,0,0,1-.5.5H3A.5.5,0,0,1,2.5,9h0A.5.5,0,0,1,3,8.5Z" transform="translate(0)"/>
            <g opacity="0.08">
                <path fill="#fff" d="M3,8.5H8.8a.5.5,0,0,1,.5.5h0a.5.5,0,0,1-.5.5H3A.5.5,0,0,1,2.5,9h0A.5.5,0,0,1,3,8.5Z" transform="translate(0)"/>
                <path fill="#979797" d="M8.8,10H3A.9.9,0,0,1,2,9,.9.9,0,0,1,3,8H8.8a1,1,0,0,1,0,2ZM3,8.5V9H3Z" transform="translate(0)"/>
            </g>
        </g>
    </g>
</svg>