<?xml version="1.0" encoding="utf-8"?>
<svg xmlns="http://www.w3.org/2000/svg" viewBox="0 0 20 20">
    <title>software</title>
    <path d="M9.7,18.3H9.5l-8.7-4a.6.6,0,0,1-.3-.5V7.2a.6.6,0,0,1,.3-.5h.5l8.7,4a.6.6,0,0,1,.3.5v6.5a.6.6,0,0,1-.3.5ZM1.6,13.4l7.6,3.5V11.6L1.6,8.1Z"/>
    <path d="M9.7,18.3H9.4a.5.5,0,0,1-.2-.5V11.2a.5.5,0,0,1,.3-.5l9.3-4h.5a.5.5,0,0,1,.2.5v6.5a.5.5,0,0,1-.3.5l-9.3,4Zm.6-6.7v5.3l8.2-3.6V8Z"/>
    <path d="M10,9.4c-1.7,0-2.9-.7-2.9-1.7S8.3,6,10,6s2.9.7,2.9,1.7S11.7,9.4,10,9.4Zm0-2.3c-1.2,0-1.8.5-1.8.6s.6.6,1.8.6,1.8-.5,1.8-.6S11.2,7.1,10,7.1Z"/>
    <path d="M10,5.1c-1.7,0-2.9-.7-2.9-1.7S8.3,1.7,10,1.7s2.9.7,2.9,1.7S11.7,5.1,10,5.1Zm0-2.3c-1.2,0-1.8.5-1.8.6S8.8,4,10,4s1.8-.5,1.8-.6S11.2,2.8,10,2.8Z"/>
    <path d="M15.5,7.5c-1.7,0-2.9-.7-2.9-1.7S13.8,4,15.5,4s2.9.7,2.9,1.7S17.1,7.5,15.5,7.5Zm0-2.3c-1.2,0-1.8.5-1.8.6s.6.6,1.8.6,1.8-.5,1.8-.6S16.7,5.1,15.5,5.1Z"/>
    <path d="M4.9,7.5C3.3,7.5,2,6.7,2,5.8S3.3,4,4.9,4s2.9.7,2.9,1.7S6.6,7.5,4.9,7.5Zm0-2.3c-1.2,0-1.8.5-1.8.6s.6.6,1.8.6,1.8-.5,1.8-.6S6.1,5.1,4.9,5.1Z"/>
    <path d="M1,7.8A.6.6,0,0,1,.8,6.7l2-.8a.5.5,0,1,1,.4,1l-2,.8Z"/>
    <path d="M6.5,5.5a.6.6,0,0,1-.2-1.1L8,3.7a.5.5,0,0,1,.4,1l-1.7.7Z"/>
    <path d="M13.7,5.6h-.2l-1.9-.8a.6.6,0,0,1,.4-1l1.9.8a.6.6,0,0,1-.2,1.1Z"/>
    <path d="M19,7.8h-.2L17,7.1a.6.6,0,1,1,.4-1l1.8.7A.6.6,0,0,1,19,7.8Z"/>
</svg>
