<?xml version="1.0" encoding="UTF-8"?>
<svg width="16px" height="16px" viewBox="0 0 16 16" version="1.1" xmlns="http://www.w3.org/2000/svg" xmlns:xlink="http://www.w3.org/1999/xlink">
    <!-- Generator: Sketch 50.2 (55047) - http://www.bohemiancoding.com/sketch -->
    <title>star/active</title>
    <desc>Created with Sketch.</desc>
    <defs>
        <polygon id="path-1" points="0 8.88888889e-05 16 8.88888889e-05 16 15.9627556 0 15.9627556"></polygon>
    </defs>
    <g id="Icons" stroke="none" stroke-width="1" fill="none" fill-rule="evenodd">
        <g transform="translate(-1185.000000, -966.000000)" id="Action">
            <g transform="translate(25.000000, 502.000000)">
                <g id="Star" transform="translate(1160.000000, 353.000000)">
                    <g id="Icons" transform="translate(0.000000, 31.000000)">
                        <g id="star/active" transform="translate(0.000000, 80.000000)">
                            <mask id="mask-2" fill="white">
                                <use xlink:href="#path-1"></use>
                            </mask>
                            <g id="Clip-2"></g>
                            <path d="M3.08702222,15.9625778 C2.98213333,15.9625778 2.87902222,15.9305778 2.79191111,15.8665778 C2.61502222,15.7376889 2.54213333,15.5101333 2.61235556,15.3030222 L4.47635556,9.77502222 L0.199911111,6.55191111 C0.0274666667,6.42213333 -0.0427555556,6.19724444 0.0256888889,5.99368889 C0.0941333333,5.79013333 0.284355556,5.65235556 0.499466667,5.65235556 L5.82391111,5.65235556 L7.52346667,0.311022222 C7.65591111,-0.104088889 8.3448,-0.104088889 8.47635556,0.311022222 L10.1759111,5.65235556 L15.5003556,5.65235556 C15.7172444,5.65235556 15.9083556,5.79191111 15.9759111,5.99902222 C16.0425778,6.20524444 15.9688,6.43102222 15.7928,6.55813333 L11.5394667,9.62391111 L13.3883556,15.3083556 C13.4568,15.5145778 13.3830222,15.7412444 13.2061333,15.8683556 C13.0301333,15.9954667 12.7919111,15.9945778 12.6168,15.8656889 L7.99991111,12.4630222 L3.38302222,15.8656889 C3.29502222,15.9305778 3.19102222,15.9625778 3.08702222,15.9625778" id="Fill-1" fill="#1173BD" mask="url(#mask-2)"></path>
                        </g>
                    </g>
                </g>
            </g>
        </g>
    </g>
</svg>