<?xml version="1.0" encoding="utf-8"?>
<svg xmlns="http://www.w3.org/2000/svg" viewBox="0 0 20 20">
    <title>stop</title>
    <path d="M10,19.6A9.6,9.6,0,1,1,19.6,10,9.6,9.6,0,0,1,10,19.6Zm0-18A8.4,8.4,0,1,0,18.4,10,8.4,8.4,0,0,0,10,1.6Z"/>
    <path d="M4.3,14.8l-.4-.6A7.4,7.4,0,0,1,2.8,10,7.2,7.2,0,0,1,10,2.8a7.4,7.4,0,0,1,4.2,1.2l.6.4ZM10,4a6,6,0,0,0-6,6,6.7,6.7,0,0,0,.6,2.9l8.3-8.3A6.7,6.7,0,0,0,10,4Z"/>
    <path d="M10,17.2a7.4,7.4,0,0,1-4.2-1.2l-.6-.4L15.7,5.2l.4.6A7.4,7.4,0,0,1,17.2,10,7.2,7.2,0,0,1,10,17.2ZM7.1,15.5A6.7,6.7,0,0,0,10,16a6,6,0,0,0,6-6,6.7,6.7,0,0,0-.6-2.9Z"/>
</svg>
