<?xml version="1.0" encoding="UTF-8"?>
<svg width="17px" height="18px" viewBox="0 0 17 18" version="1.1" xmlns="http://www.w3.org/2000/svg" xmlns:xlink="http://www.w3.org/1999/xlink">
    <!-- Generator: Sketch 51.1 (57501) - http://www.bohemiancoding.com/sketch -->
    <title>icon_ticketSlice 1</title>
    <desc>Created with Sketch.</desc>
    <defs></defs>
    <g id="Page-1" stroke="none" stroke-width="1" fill="none" fill-rule="evenodd">
        <g id="Alerts-Icon" transform="translate(1.000000, 0.000000)">
            <path d="M0,12.9817 L0.697,13.3947 C1.176,12.8667 1.519,12.8557 1.953,13.1147 C2.395,13.3787 2.471,13.9427 2.297,14.3427 L2.489,14.4567 L2.837,14.6627 C3.077,14.3397 3.554,14.0407 4.173,14.4067 C4.761,14.7977 4.663,15.2787 4.531,15.6667 L5.281,16.1107 C5.562,15.8117 5.789,15.4737 6.542,15.7877 C6.202,15.6457 7.159,15.8837 6.826,17.0267 L7.544,17.4517 L14.914,5.0147 L14.197,4.5897 C14.197,4.5897 13.665,5.1477 13.06,4.7887 C12.44,4.4217 12.65,3.6737 12.65,3.6737 C12.489,3.5777 12.073,3.3307 11.901,3.2287 C11.57,3.5267 11.104,3.5787 10.717,3.3637 C10.255,3.1087 10.109,2.5137 10.207,2.2257 L9.667,1.9047 C9.667,1.9047 9.1,2.3697 8.514,2.0407 C7.928,1.7117 8.067,0.9577 8.067,0.9577 L7.37,0.5437 L0,12.9817 Z" id="Fill-1" fill="#F5F5F5"></path>
            <path d="M0,12.9817 L0.697,13.3947 C1.176,12.8667 1.519,12.8557 1.953,13.1147 C2.395,13.3787 2.471,13.9427 2.297,14.3427 L2.489,14.4567 L2.837,14.6627 C3.077,14.3397 3.554,14.0407 4.173,14.4067 C4.761,14.7977 4.663,15.2787 4.531,15.6667 L5.281,16.1107 C5.562,15.8117 5.789,15.4737 6.542,15.7877 C6.202,15.6457 7.159,15.8837 6.826,17.0267 L7.544,17.4517 L14.914,5.0147 L14.197,4.5897 C14.197,4.5897 13.665,5.1477 13.06,4.7887 C12.44,4.4217 12.65,3.6737 12.65,3.6737 C12.489,3.5777 12.073,3.3307 11.901,3.2287 C11.57,3.5267 11.104,3.5787 10.717,3.3637 C10.255,3.1087 10.109,2.5137 10.207,2.2257 L9.667,1.9047 C9.667,1.9047 9.1,2.3697 8.514,2.0407 C7.928,1.7117 8.067,0.9577 8.067,0.9577 L7.37,0.5437 L0,12.9817 Z" id="Stroke-3" stroke="#626E70" stroke-width="0.8"></path>
            <polygon id="Stroke-7" stroke="#626E70" stroke-width="0.5" points="7.095 14.0042 3.022 11.5912 6.256 6.1342 10.328 8.5472"></polygon>
            <path d="M4.8846,11.7476 L6.9866,8.2006" id="Stroke-9" stroke="#626E70" stroke-width="0.5"></path>
            <path d="M6.3177,12.5974 L7.8157,10.0704" id="Stroke-11" stroke="#626E70" stroke-width="0.5"></path>
            <g id="Group-16" transform="translate(5.452000, 0.000000)">
                <path d="M7.0493,7.5957 L7.7673,8.0207 L9.4623,5.0147 L8.7443,4.5897 C8.7443,4.5897 8.2133,5.1477 7.6083,4.7887 C6.9883,4.4217 7.1983,3.6737 7.1983,3.6737 C7.0373,3.5777 6.6203,3.3307 6.4493,3.2287 C6.1183,3.5267 5.6523,3.5787 5.2653,3.3637 C4.8033,3.1087 4.6573,2.5137 4.7553,2.2257 L4.2143,1.9047 C4.2143,1.9047 3.6483,2.3697 3.0623,2.0407 C2.4763,1.7117 2.6153,0.9577 2.6153,0.9577 L1.9183,0.5437 L0.2233,3.5507 L7.2653,7.7237" id="Fill-13" fill="#F6921E"></path>
                <path d="M7.0493,7.5957 L7.7673,8.0207 L9.4623,5.0147 L8.7443,4.5897 C8.7443,4.5897 8.2133,5.1477 7.6083,4.7887 C6.9883,4.4217 7.1983,3.6737 7.1983,3.6737 C7.0373,3.5777 6.6203,3.3307 6.4493,3.2287 C6.1183,3.5267 5.6523,3.5787 5.2653,3.3637 C4.8033,3.1087 4.6573,2.5137 4.7553,2.2257 L4.2143,1.9047 C4.2143,1.9047 3.6483,2.3697 3.0623,2.0407 C2.4763,1.7117 2.6153,0.9577 2.6153,0.9577 L1.9183,0.5437 L0.2233,3.5507 L7.2653,7.7237" id="Stroke-15" stroke="#626E70" stroke-width="0.8"></path>
            </g>
        </g>
    </g>
</svg>