<?xml version="1.0" encoding="UTF-8"?>
<svg width="13px" height="16px" viewBox="0 0 13 16" version="1.1" xmlns="http://www.w3.org/2000/svg" xmlns:xlink="http://www.w3.org/1999/xlink">
    <!-- Generator: Sketch 50.2 (55047) - http://www.bohemiancoding.com/sketch -->
    <title>tickets_normal_checklist</title>
    <desc>Created with Sketch.</desc>
    <defs>
        <polygon id="path-1" points="0 0.727695238 12.9864381 0.727695238 12.9864381 15.2380952 0 15.2380952"></polygon>
    </defs>
    <g id="Icons" stroke="none" stroke-width="1" fill="none" fill-rule="evenodd">
        <g transform="translate(-989.000000, -306.000000)" id="Status">
            <g transform="translate(25.000000, 139.000000)">
                <g id="Tickets-(normal)" transform="translate(941.000000, 137.000000)">
                    <g id="Icons" transform="translate(0.000000, 30.000000)">
                        <g id="tickets_normal_checklist" transform="translate(23.000000, 0.000000)">
                            <path d="M12.207619,12.8833524 C12.207619,13.7686857 11.4830476,14.4932571 10.5977143,14.4932571 L2.38895238,14.4932571 C1.50361905,14.4932571 0.779047619,13.7686857 0.779047619,12.8833524 L0.779047619,3.15078095 C0.779047619,2.26544762 1.50361905,1.54087619 2.38895238,1.54087619 L10.5977143,1.54087619 C11.4830476,1.54087619 12.207619,2.26544762 12.207619,3.15078095 L12.207619,12.8833524 Z" id="Fill-1" fill="#FFFFFF"></path>
                            <g id="Group-5" transform="translate(0.000000, 0.034210)">
                                <mask id="mask-2" fill="white">
                                    <use xlink:href="#path-1"></use>
                                </mask>
                                <g id="Clip-4"></g>
                                <path d="M10.5978667,0.727695238 L2.38910476,0.727695238 C1.07177143,0.727695238 -0.000228571429,1.79893333 -0.000228571429,3.11626667 L-0.000228571429,12.8488381 C-0.000228571429,14.1661714 1.07177143,15.2381714 2.38910476,15.2381714 L10.5978667,15.2381714 C11.9152,15.2381714 12.9864381,14.1661714 12.9864381,12.8488381 L12.9864381,3.11626667 C12.9864381,1.79893333 11.9152,0.727695238 10.5978667,0.727695238 M10.5978667,1.5063619 C11.4832,1.5063619 12.2077714,2.23093333 12.2077714,3.11626667 L12.2077714,12.8488381 C12.2077714,13.7349333 11.4832,14.4587429 10.5978667,14.4587429 L2.38910476,14.4587429 C1.50300952,14.4587429 0.7792,13.7349333 0.7792,12.8488381 L0.7792,3.11626667 C0.7792,2.23093333 1.50300952,1.5063619 2.38910476,1.5063619 L10.5978667,1.5063619" id="Fill-3" fill="#DDDDDD" mask="url(#mask-2)"></path>
                            </g>
                            <path d="M12.207619,4.63055238 L0.779047619,4.63055238 L0.779047619,3.0648381 C0.779047619,2.22293333 1.46095238,1.54102857 2.30285714,1.54102857 L10.6838095,1.54102857 C11.5249524,1.54102857 12.207619,2.22293333 12.207619,3.0648381 L12.207619,4.63055238 Z" id="Fill-6" fill="#6D6E70"></path>
                            <path d="M9.69272381,11.2382476 L6.97653333,11.2382476 C6.73958095,11.2382476 6.54681905,11.0332952 6.54681905,10.7803429 C6.54681905,10.5281524 6.73958095,10.3232 6.97653333,10.3232 L9.69272381,10.3232 C9.92967619,10.3232 10.1216762,10.5281524 10.1216762,10.7803429 C10.1216762,11.0332952 9.92967619,11.2382476 9.69272381,11.2382476" id="Fill-8" fill="#231F20"></path>
                            <path d="M9.69272381,7.976 L6.97653333,7.976 C6.73958095,7.976 6.54681905,7.77104762 6.54681905,7.51809524 C6.54681905,7.26590476 6.73958095,7.06095238 6.97653333,7.06095238 L9.69272381,7.06095238 C9.92967619,7.06095238 10.1216762,7.26590476 10.1216762,7.51809524 C10.1216762,7.77104762 9.92967619,7.976 9.69272381,7.976" id="Fill-10" fill="#231F20"></path>
                            <path d="M3.94605714,8.87961905 L2.63177143,7.88761905 C2.45577143,7.75428571 2.43139048,7.51657143 2.57767619,7.35657143 C2.7232,7.19580952 2.98453333,7.17371429 3.16053333,7.30704762 L3.69691429,7.71238095 L4.3704381,6.57561905 C4.47862857,6.392 4.73005714,6.32419048 4.9312,6.42247619 C5.13310476,6.52152381 5.20777143,6.75085714 5.09881905,6.93371429 L3.94605714,8.87961905 Z" id="Fill-12" fill="#231F20"></path>
                            <path d="M3.94605714,12.0866286 L2.63177143,11.0946286 C2.45577143,10.9620571 2.43139048,10.7243429 2.57767619,10.563581 C2.7232,10.403581 2.98453333,10.3807238 3.16053333,10.5140571 L3.69691429,10.9193905 L4.3704381,9.78262857 C4.47862857,9.59900952 4.73005714,9.5312 4.9312,9.63024762 C5.13310476,9.72853333 5.20777143,9.95786667 5.09881905,10.1407238 L3.94605714,12.0866286 Z" id="Fill-14" fill="#231F20"></path>
                        </g>
                    </g>
                </g>
            </g>
        </g>
    </g>
</svg>