<?xml version="1.0" encoding="utf-8"?>
<svg xmlns="http://www.w3.org/2000/svg" viewBox="0 0 20 20">
    <title>uncategorized</title>
    <path d="M7.4,19.5H7.1L3.3,17.2,3,16.9a.6.6,0,0,1,.1-.5l2.1-3.6H1a.6.6,0,0,1-.6-.6V7.8A.6.6,0,0,1,1,7.2H5.2L3.1,3.6A.6.6,0,0,1,3,3.1l.3-.4L7.1.6a.6.6,0,0,1,.8.2L10,4.5,12.1.8l.4-.3h.5l3.8,2.2a.6.6,0,0,1,.2.8L14.8,7.2H19a.6.6,0,0,1,.6.6v4.3a.6.6,0,0,1-.6.6H14.8l2.1,3.6a.6.6,0,0,1-.2.8l-3.8,2.2a.6.6,0,0,1-.8-.2L10,15.5,7.9,19.2l-.4.3Zm-2.9-3,2.7,1.6,2.3-4a.6.6,0,0,1,1,0l2.3,4,2.7-1.6-2.3-4a.6.6,0,0,1,.5-.9h4.6V8.4H13.8a.6.6,0,0,1-.5-.9l2.3-4L12.8,1.9,10.5,6a.6.6,0,0,1-1,0l-2.3-4L4.4,3.5l2.3,4a.6.6,0,0,1-.5.9H1.6v3.1H6.2a.6.6,0,0,1,.5.9Z"/>
</svg>
