<?xml version="1.0" encoding="UTF-8"?>
<svg width="11px" height="16px" viewBox="0 0 11 16" version="1.1" xmlns="http://www.w3.org/2000/svg" xmlns:xlink="http://www.w3.org/1999/xlink">
    <!-- Generator: Sketch 50.2 (55047) - http://www.bohemiancoding.com/sketch -->
    <title>urgent/standard</title>
    <desc>Created with Sketch.</desc>
    <defs></defs>
    <g id="Icons" stroke="none" stroke-width="1" fill="none" fill-rule="evenodd">
        <g transform="translate(-1185.000000, -376.000000)" fill="#626E70" id="Status">
            <g transform="translate(25.000000, 139.000000)">
                <g id="Urgent" transform="translate(1160.000000, 207.000000)">
                    <g id="urgent/standard" transform="translate(0.000000, 30.000000)">
                        <path d="M5.33020217,13.8096889 C4.41997995,13.8096889 3.66620217,13.1519111 3.51153551,12.2861333 C4.61375773,12.5448 6.46709106,10.6719111 5.73375773,9.36524444 C6.84486884,9.36524444 7.31153551,10.8408 7.18175773,11.9572444 C7.06353551,12.9732444 6.3524244,13.8096889 5.33020217,13.8096889 M3.5044244,0.0354666667 C3.29553551,-0.0472 3.05820217,0.0203555556 2.92309106,0.198133333 C2.78797995,0.377688889 2.78797995,0.623911111 2.92309106,0.802577778 C4.4244244,2.78213333 4.57553551,5.95991111 3.36753551,7.88791111 C3.2244244,7.53946667 3.14353551,7.14124444 3.05464662,6.7048 L3.03597995,6.60791111 C3.00220217,6.44168889 2.88664662,6.30391111 2.7284244,6.24168889 C2.57020217,6.18035556 2.39153551,6.20168889 2.25464662,6.30124444 C0.323091063,7.68524444 -0.457353381,10.0336889 0.266202175,12.2852444 C0.990646619,14.5421333 3.00309106,15.9999111 5.39064662,15.9999111 C8.02264662,15.9999111 9.89375773,14.4221333 10.3942022,11.7803556 C11.16398,7.71902222 8.57909106,2.03102222 3.5044244,0.0354666667" id="Page-1"></path>
                    </g>
                </g>
            </g>
        </g>
    </g>
</svg>