<?xml version="1.0" encoding="utf-8"?>
<svg xmlns="http://www.w3.org/2000/svg" viewBox="0 0 47.77 35">
    <title>wifi</title>
    <path d="M47.18,9.64a33,33,0,0,0-46.6,0A2,2,0,0,0,3.4,12.45a29,29,0,0,1,41,0,2,2,0,0,0,2.81-2.81Z"/>
    <path d="M8.2,17.25A2,2,0,0,0,11,20.07a18.22,18.22,0,0,1,25.74,0,2,2,0,0,0,2.82-2.82A22.2,22.2,0,0,0,8.2,17.25Z"/>
    <path d="M15.81,24.87a2,2,0,0,0,2.82,2.81,7.45,7.45,0,0,1,10.51,0A2,2,0,1,0,32,24.86,11.42,11.42,0,0,0,15.81,24.87Z"/>
    <circle cx="23.88" cy="32.39" r="2.61"/>
</svg>