<?xml version="1.0" encoding="utf-8"?>
<svg xmlns="http://www.w3.org/2000/svg" viewBox="0 0 20 20">
    <title>window</title>
    <path d="M17.4,17.4H2.6A2.2,2.2,0,0,1,.4,15.3V4.7A2.2,2.2,0,0,1,2.6,2.6H17.4a2.2,2.2,0,0,1,2.2,2.2V15.3A2.2,2.2,0,0,1,17.4,17.4ZM2.6,3.8a1,1,0,0,0-1,1V15.3a1,1,0,0,0,1,1H17.4a1,1,0,0,0,1-1V4.7a1,1,0,0,0-1-1Z"/>
    <path d="M19,7.9H1A.6.6,0,1,1,1,6.7H19a.6.6,0,1,1,0,1.2Z"/>
    <circle cx="3.4" cy="5.2" r="0.6"/>
    <circle cx="5.3" cy="5.2" r="0.6"/>
    <circle cx="7.2" cy="5.2" r="0.6"/>
</svg>
